<svg height="300px" width="300px" fill="#000000" xmlns="http://www.w3.org/2000/svg" xmlns:xlink="http://www.w3.org/1999/xlink" viewBox="0 0 16 16" version="1.1" x="0px" y="0px">
	<g stroke="none" stroke-width="1" fill="none" fill-rule="evenodd">
		<g fill-rule="nonzero" fill="#000000">
			<path d="M8,6.58578644 L4.70710678,3.29289322 C4.31658249,2.90236893 3.68341751,2.90236893 3.29289322,3.29289322 C2.90236893,3.68341751 2.90236893,4.31658249 3.29289322,4.70710678 L6.58578644,8 L3.29289322,11.2928932 C2.90236893,11.6834175 2.90236893,12.3165825 3.29289322,12.7071068 C3.68341751,13.0976311 4.31658249,13.0976311 4.70710678,12.7071068 L8,9.41421356 L11.2928932,12.7071068 C11.6834175,13.0976311 12.3165825,13.0976311 12.7071068,12.7071068 C13.0976311,12.3165825 13.0976311,11.6834175 12.7071068,11.2928932 L9.41421356,8 L12.7071068,4.70710678 C13.0976311,4.31658249 13.0976311,3.68341751 12.7071068,3.29289322 C12.3165825,2.90236893 11.6834175,2.90236893 11.2928932,3.29289322 L8,6.58578644 Z">
			</path>
		</g>
	</g>
</svg>
