<svg xmlns="http://www.w3.org/2000/svg"
	xmlns:xlink="http://www.w3.org/1999/xlink" style="isolation:isolate" viewBox="0 0 86.3 81.3" width="86.3pt" height="81.3pt">
	<path d=" M 71.14 8.96 C 53.647 -5.077 28.089 -2.284 14.04 15.2 C 13.537 15.827 13.638 16.742 14.265 17.245 C 14.892 17.748 15.807 17.647 16.31 17.02 C 25.858 5.123 41.633 0.151 56.277 4.421 C 70.921 8.692 81.55 21.364 83.207 36.528 C 84.863 51.692 77.221 66.361 63.844 73.692 C 50.468 81.024 33.991 79.574 22.1 70.02 C 19.498 67.938 17.187 65.517 15.23 62.82 C 14.747 62.206 13.865 62.084 13.234 62.545 C 12.604 63.006 12.452 63.884 12.89 64.53 C 15.011 67.435 17.506 70.048 20.31 72.3 C 27.485 78.113 36.436 81.289 45.67 81.3 C 47.167 81.301 48.663 81.217 50.15 81.05 C 66.458 79.247 80.079 67.808 84.673 52.057 C 89.267 36.306 83.932 19.337 71.15 9.05 L 71.14 8.96 Z " fill="rgb(0,0,0)"/>
	<path d=" M 41.31 39.18 L 1.45 39.18 C 0.649 39.18 0 39.829 0 40.63 C 0 41.431 0.649 42.08 1.45 42.08 L 41.31 42.08 L 31.86 51.63 C 31.449 52.212 31.521 53.007 32.031 53.505 C 32.542 54.003 33.338 54.056 33.91 53.63 L 45.91 41.63 C 46.185 41.358 46.339 40.987 46.339 40.6 C 46.339 40.213 46.185 39.842 45.91 39.57 L 33.91 27.57 C 33.338 27.144 32.542 27.197 32.031 27.695 C 31.521 28.193 31.449 28.988 31.86 29.57 L 41.31 39.18 Z " fill="rgb(0,0,0)"/>
</svg>
