<svg height="300px" width="300px" fill="#000000" xmlns="http://www.w3.org/2000/svg" xmlns:xlink="http://www.w3.org/1999/xlink" version="1.1" x="0px" y="0px" viewBox="0 0 23 23" style="enable-background:new 0 0 23 23;" xml:space="preserve">
			<path d="M9.531,9.034c-1.75,2.745-2.043,3.374-4.538,5.656c0.972-1.059,1.62-4.002,3.824-7.046    c2.205-3.043,6.705-3.586,6.705-3.586S11.088,0.765,5.834,5.66C0.584,10.556,4.927,19.487,0,22c3.986,0,19.502-2.699,17.49-16.095    C15.998,5.377,11.727,5.59,9.531,9.034z">
			</path>
			<path d="M21.586,0.047c-1.17-0.279-4.828,0.65-6.063,4.012c1.198,0.472,1.968,1.847,1.968,1.847s0.975-4.938,4.453-4.122    C20.969,0.427,22.756,0.324,21.586,0.047z">
			</path>
			<polygon points="20,15 18,15 18,18 15,18 15,20 18,20 18,23 20,23 20,20 23,20 23,18 20,18   ">
			</polygon>
</svg>
