<svg height="300px" width="300px" fill="#000000" xmlns="http://www.w3.org/2000/svg" xmlns:xlink="http://www.w3.org/1999/xlink" version="1.1" x="0px" y="0px" viewBox="0 0 23 22" style="enable-background:new 0 0 23 22;" xml:space="preserve">
	<g>
		<path d="M17.49,5.905c-1.492-0.528-5.764-0.315-7.959,3.129c-1.75,2.745-2.043,3.374-4.538,5.656    c0.972-1.059,1.62-4.002,3.824-7.046c2.205-3.043,6.705-3.586,6.705-3.586S11.088,0.765,5.834,5.66    C0.584,10.556,4.927,19.487,0,22C3.986,22,19.502,19.301,17.49,5.905z">
		</path>
		<path d="M17.49,5.905c0,0,0.975-4.938,4.453-4.122c-0.975-1.355,0.813-1.459-0.358-1.736c-1.17-0.279-4.828,0.65-6.063,4.012    C16.721,4.53,17.49,5.905,17.49,5.905z">
		</path>
		<rect x="15" y="18" width="8" height="2">
		</rect>
	</g>
</svg>
