<svg height="300px" width="300px" xmlns="http://www.w3.org/2000/svg" data-name="Layer 1" viewBox="0 0 100 100" x="0px" y="0px">
	<path d="M53.23,90.07c-1.35.13-2.75.2-4.15.2A41.18,41.18,0,1,1,90.26,49.09c0,.87,0,1.75-.08,2.62a1.45,1.45,0,1,0,2.89.18c.06-.92.09-1.86.09-2.8A44.08,44.08,0,1,0,49.08,93.17,43.28,43.28,0,0,0,53.52,93a1.45,1.45,0,1,0-.29-2.88Z">
	</path>
	<path d="M62.39,38.82A13.12,13.12,0,1,0,42.58,50.08,24.26,24.26,0,0,0,25.39,73.26a1.45,1.45,0,0,0,2.9,0A21.35,21.35,0,0,1,49.61,51.94a21.86,21.86,0,0,1,6.59,1,1.45,1.45,0,0,0,.9-2.76c-.3-.1-.62-.18-.93-.26A13.11,13.11,0,0,0,62.39,38.82ZM49.27,49A10.21,10.21,0,1,1,59.48,38.82,10.22,10.22,0,0,1,49.27,49Z">
	</path>
	<path d="M72.66,50.31A22.34,22.34,0,1,0,95,72.65,22.36,22.36,0,0,0,72.66,50.31Zm0,41.78A19.44,19.44,0,1,1,92.1,72.65,19.46,19.46,0,0,1,72.66,92.09Z">
	</path>
	<path d="M83.43,71.2H74.11V61.88a1.45,1.45,0,1,0-2.9,0V71.2H61.89a1.45,1.45,0,0,0,0,2.9h9.32v9.32a1.45,1.45,0,1,0,2.9,0V74.1h9.32a1.45,1.45,0,0,0,0-2.9Z">
	</path>
</svg>
