<svg xmlns="http://www.w3.org/2000/svg" xmlns:xlink="http://www.w3.org/1999/xlink" style="isolation:isolate" viewBox="0 0 226.8 236" width="226.8pt" height="236pt">
	<path d=" M 220.952 42.57 C 206.869 59.827 192.129 79.473 169.719 90.853 C 174.049 87.233 178.932 81.52 184.005 74.55 C 185.782 72.12 195.715 58.97 195.039 56.613 C 186.719 54.38 184.412 56.643 180.592 61.773 C 180.605 62.33 180.349 62.86 179.772 63.527 C 178.145 65.433 176.425 67.42 174.635 69.393 C 174.615 69.417 174.595 69.437 174.575 69.46 C 174.539 69.5 174.505 69.533 174.472 69.573 C 174.459 69.587 174.445 69.6 174.439 69.613 C 173.582 70.577 172.712 71.49 171.842 72.363 C 171.635 72.573 171.432 72.78 171.219 72.99 C 171.175 73.033 171.132 73.077 171.085 73.12 C 166.309 77.927 160.962 82.327 154.832 84.927 L 156.269 79.013 C 158.955 73.037 162.785 66.777 166.809 60.37 C 172.435 51.13 183.659 30.413 183.432 25.213 L 183.429 25.21 C 183.345 24.917 183.239 24.623 183.115 24.34 C 183.075 24.14 183.062 23.913 183.075 23.673 C 182.479 22.137 181.175 21.127 179.795 20.463 C 179.612 20.613 179.422 20.81 179.169 21.123 C 179.169 21.12 179.162 21.113 179.162 21.11 C 179.102 21.19 179.052 21.277 178.992 21.353 C 178.862 21.53 178.725 21.717 178.575 21.943 C 178.535 22.003 178.505 22.057 178.472 22.113 C 167.692 37.687 160.345 54.983 149.339 70.437 C 155.385 56.977 163.725 44.663 169.562 31.097 C 167.365 30.03 165.679 27.947 163.519 26.8 C 163.519 26.797 163.519 26.797 163.512 26.797 C 161.359 25.34 155.629 41.74 150.629 51.323 C 149.712 53.087 148.655 54.623 147.562 56.07 C 146.755 57.47 145.609 58.713 144.319 59.87 C 140.215 64.097 135.822 67.08 133.015 70.423 C 128.639 75.637 126.699 65.727 126.699 65.727 C 125.599 56.407 123.619 46.193 123.059 34.313 C 122.735 27.713 123.769 19.79 123.405 13.22 C 123.415 12.353 123.375 11.55 123.349 10.733 C 123.149 8.767 123.002 7.013 122.905 5.657 C 122.835 5.133 122.742 4.62 122.659 4.113 C 121.942 1.533 119.809 0.43 117.595 0 C 116.462 0.437 115.155 0.213 115.155 0.213 C 114.119 0.03 112.965 -0.03 111.672 0.04 C 111.989 22.983 108.302 43.92 114.459 69.793 C 96.082 59.4 76.962 51.637 53.695 60.76 C 6.959 79.093 2.949 144.533 33.372 193.917 C 33.919 195.747 27.385 196.663 29.085 197.38 C 32.212 196.9 32.845 195.667 30.305 199.013 C 26.522 203.993 22.779 213.56 19.072 216.333 C 21.812 218.97 15.935 225.923 10.699 227.947 C 15.985 227.44 3.065 234.16 0.902 235.28 C -2.575 236.913 5.445 235.103 6.819 234.673 C 11.942 233.06 18.709 229.023 22.122 227.543 C 22.155 227.687 22.182 227.83 22.172 227.947 C 25.919 224.547 34.919 216.293 42.122 212.067 C 40.482 214.197 39.959 215.693 40.489 217.367 C 42.665 206.333 54.395 209.847 60.479 212.08 C 78.815 218.833 97.389 221.293 121.049 216.43 C 171.892 205.98 196.195 159.093 161.119 112.05 C 174.382 105.803 187.049 108.687 195.189 104.13 C 189.205 101.473 180.155 104.943 173.365 103.907 C 189.809 94.74 205.615 77.663 216.849 62.957 C 221.599 56.747 234.122 44.82 220.952 42.57 Z " fill="rgb(0,0,0)" />
</svg>
