<svg height="300px" width="300px" xmlns="http://www.w3.org/2000/svg" xmlns:xlink="http://www.w3.org/1999/xlink" version="1.1" x="0px" y="0px" viewBox="0 0 100 100" enable-background="new 0 0 100 100" xml:space="preserve">
	<path fill="none" d="M15.32,56.109c0.052-0.161,0.055-0.355-0.043-0.53c-0.082-0.15-0.227-0.294-0.406-0.348    c-0.174-0.052-0.36,0.037-0.486,0.12c-0.138,0.084-0.222,0.255-0.246,0.41c-0.033,0.176-0.021,0.372,0.1,0.505    c0.191,0.208,0.404,0.236,0.493,0.26c0.002-0.015,0.007-0.027,0.017-0.032c0.062-0.033,0.149-0.005,0.24,0.066    C15.045,56.493,15.227,56.382,15.32,56.109z">
	</path>
	<path fill="none" d="M10.829,54.246c-0.043-0.029-0.09-0.05-0.133-0.055c-0.034-0.005-0.083-0.046-0.138-0.031    c-0.048,0.012-0.095,0.057-0.093,0.053c-0.003,0.001-0.005,0.006-0.005,0.006c-0.003,0.011,0.005,0.017,0.003,0.03    c0.017,0.046,0.074,0.125,0.123,0.18c0.046,0.051,0.049,0.076,0.09,0.093c0.03,0.016,0.065,0.008,0.096,0.009    c0.053-0.072,0.112-0.138,0.176-0.201C10.909,54.301,10.87,54.27,10.829,54.246z">
	</path>
	<path fill="none" d="M13.641,59.196c0.004-0.048,0.055-0.087,0.14-0.118c-0.075-0.083-0.143-0.371-0.424-0.62    c-0.157-0.138-0.377-0.247-0.619-0.223c-0.204,0.013-0.452,0.083-0.617,0.263c-0.154,0.167-0.226,0.414-0.182,0.608    c0.036,0.194,0.257,0.336,0.472,0.419c0.25,0.099,0.52,0.111,0.737,0.054c0.296-0.08,0.49-0.232,0.607-0.317    C13.683,59.24,13.639,59.217,13.641,59.196z">
	</path>
	<path fill="none" d="M14.421,54.856c0.073-0.021,0.148-0.034,0.224-0.038c-0.005-0.026-0.011-0.054-0.027-0.085    c-0.02-0.04-0.052-0.078-0.082-0.093c-0.023-0.011-0.053-0.03-0.098-0.024c-0.047,0.008-0.054,0.08-0.063,0.088    c-0.017,0.019-0.005,0.01-0.014,0.015c-0.018-0.003-0.048,0.07,0.003,0.105C14.382,54.838,14.402,54.847,14.421,54.856z">
	</path>
	<path fill="none" d="M12.209,55.78c0.042-0.032,0.142,0.089,0.341,0.261c0.002,0.001,0.004,0.003,0.005,0.004    c0.05-0.162,0.153-0.441,0.184-0.803c0.015-0.263-0.06-0.588-0.278-0.8c-0.178-0.181-0.471-0.236-0.764-0.132    c-0.283,0.099-0.493,0.348-0.641,0.584c-0.161,0.251-0.187,0.538-0.087,0.761c0.108,0.266,0.342,0.502,0.601,0.562    c0.382,0.081,0.667-0.026,0.815-0.082C12.24,55.933,12.193,55.791,12.209,55.78z">
	</path>
	<path fill="none" d="M16.967,55.961c-0.039-0.059-0.023-0.094-0.054-0.15c-0.016-0.03-0.03-0.035-0.047-0.044    c-0.013-0.004-0.022-0.018-0.04-0.015c-0.014,0.002-0.012,0.067-0.015,0.068c-0.009,0.005,0.001,0.001-0.009,0.004    c-0.013,0.003-0.057,0.068-0.038,0.105c0.016,0.038,0.039,0.061,0.059,0.082c0.05-0.018,0.101-0.033,0.152-0.044    C16.973,55.965,16.968,55.965,16.967,55.961z">
	</path>
	<path fill="none" d="M10.309,45.427c0.016-0.006,0.027-0.008,0.047-0.017c0.093-0.039,0.241-0.125,0.35-0.269    c0.101-0.121,0.097-0.309,0.012-0.52c-0.075-0.175-0.208-0.362-0.381-0.479c-0.175-0.117-0.375-0.093-0.53-0.048    c-0.173,0.048-0.262,0.17-0.291,0.328c-0.037,0.182-0.023,0.401,0.095,0.553c0.229,0.286,0.499,0.381,0.514,0.435    c0.041-0.101,0.085-0.16,0.121-0.155C10.286,45.259,10.3,45.324,10.309,45.427z">
	</path>
	<path fill="none" d="M7.785,48.292c0.032-0.054,0.145-0.044,0.304-0.005c-0.027-0.094,0.028-0.432-0.21-0.819    c-0.131-0.208-0.365-0.404-0.661-0.481c-0.249-0.068-0.543-0.041-0.786,0.111c-0.239,0.147-0.337,0.419-0.369,0.666    c-0.041,0.261,0.066,0.529,0.227,0.662c0.162,0.152,0.524,0.211,0.785,0.215c0.439,0.004,0.679-0.184,0.78-0.251    C7.806,48.344,7.776,48.307,7.785,48.292z">
	</path>
	<path fill="none" d="M16.374,52.264c-0.051,0.053-0.184-0.066-0.438-0.144c-0.123-0.037-0.268-0.073-0.432-0.092    c-0.141-0.017-0.294-0.038-0.453-0.039c-0.153-0.001-0.306,0.066-0.465,0.074c-0.164,0.008-0.328,0.031-0.486,0.032    c-0.184,0.002-0.358-0.059-0.504-0.08c-0.302-0.041-0.49-0.118-0.48-0.163c0.02-0.096,0.213-0.135,0.488-0.168    c0.16-0.019,0.308-0.036,0.462-0.054c0.149-0.018,0.314,0.004,0.483-0.01c0.161-0.013,0.331-0.031,0.502-0.024    c0.176,0.007,0.352,0.007,0.515,0.046c0.134,0.031,0.252,0.083,0.359,0.139c-0.09-0.067-0.189-0.141-0.304-0.223    c-0.202-0.142-0.44-0.3-0.712-0.427c-0.234-0.11-0.491-0.208-0.763-0.24c-0.264-0.031-0.516,0.061-0.779,0.126    c-0.275,0.067-0.549,0.175-0.828,0.244c-0.327,0.084-0.656,0.06-0.917,0.043c-0.233-0.014-0.423-0.051-0.566-0.09    c0.109,0.113,0.245,0.258,0.411,0.42c0.193,0.186,0.43,0.39,0.71,0.573c0.241,0.157,0.495,0.337,0.791,0.45    c0.283,0.109,0.585,0.176,0.885,0.213c0.313,0.04,0.624,0.022,0.913-0.004c0.336-0.03,0.648-0.09,0.909-0.168    c0.383-0.116,0.654-0.242,0.798-0.285c-0.033-0.053-0.066-0.106-0.099-0.159C16.374,52.256,16.376,52.262,16.374,52.264z">
	</path>
	<path fill="none" d="M18.357,57.113c-0.062-0.236-0.212-0.491-0.464-0.639c-0.214-0.131-0.504-0.192-0.781-0.138    c-0.272,0.052-0.47,0.26-0.593,0.464c-0.137,0.219-0.119,0.457-0.001,0.662c0.132,0.237,0.349,0.438,0.598,0.499    c0.385,0.088,0.69,0.024,0.823,0.012c-0.024-0.057-0.033-0.099-0.01-0.118c0.072-0.064,0.2-0.05,0.325,0.033    c0.02,0.014,0.042,0.036,0.063,0.052C18.315,57.844,18.469,57.55,18.357,57.113z">
	</path>
	<path fill="none" d="M16.183,60.659c-0.041,0.067-0.13,0.113-0.207,0.144c-0.045,0.019-0.07,0.042-0.069,0.055    c0.006,0.004-0.04-0.003-0.046,0.028c-0.004,0.027,0.004,0.043,0.014,0.074c0.011,0.032,0.047,0.05,0.07,0.076    c0.015,0.021,0.017,0.045,0.045,0.061l0.018,0.007c0.057,0.023,0.158-0.033,0.216-0.009c-0.021-0.045-0.041-0.09-0.053-0.144    C16.154,60.856,16.162,60.757,16.183,60.659z">
	</path>
	<path fill="none" d="M31.724,64.049c-0.113,0.051-0.218,0.099-0.329,0.149c-0.111,0.044-0.219,0.087-0.334,0.132    c-0.109,0.048-0.195,0.15-0.303,0.198c-0.112,0.056-0.206,0.103-0.32,0.159c-0.12,0.053-0.258,0.059-0.357,0.1    c-0.201,0.086-0.331,0.148-0.36,0.108c-0.057-0.077,0.012-0.234,0.185-0.389c0.083-0.074,0.187-0.152,0.305-0.227    c0.102-0.066,0.233-0.091,0.349-0.149c0.112-0.056,0.225-0.114,0.343-0.159c0.122-0.046,0.235-0.106,0.352-0.137    c0.031-0.008,0.06-0.013,0.09-0.019c-0.08-0.025-0.16-0.053-0.24-0.079c-0.097,0.024-0.207,0.051-0.34,0.091    c-0.181,0.055-0.39,0.124-0.607,0.217c-0.187,0.08-0.387,0.166-0.578,0.278c-0.185,0.109-0.328,0.279-0.49,0.41    c-0.171,0.137-0.318,0.293-0.458,0.439c-0.161,0.168-0.341,0.308-0.455,0.462c-0.168,0.226-0.271,0.408-0.335,0.487    c0.102-0.07,0.323-0.143,0.615-0.222c0.201-0.053,0.434-0.117,0.684-0.192c0.214-0.065,0.455-0.099,0.684-0.185    c0.221-0.082,0.439-0.18,0.654-0.276c0.223-0.1,0.428-0.227,0.628-0.331c0.229-0.121,0.432-0.234,0.579-0.363    c0.257-0.218,0.356-0.446,0.423-0.513c-0.077-0.022-0.154-0.044-0.231-0.066C31.834,63.996,31.783,64.02,31.724,64.049z">
	</path>
	<path fill="none" d="M34.246,66.757c0.005-0.085,0.098-0.157,0.242-0.172c-0.031-0.095-0.078-0.21-0.185-0.324    c-0.111-0.116-0.283-0.205-0.483-0.212c-0.17-0.008-0.347,0.041-0.485,0.171c-0.135,0.128-0.156,0.323-0.154,0.469    c0.002,0.169,0.08,0.277,0.202,0.339c0.143,0.077,0.35,0.128,0.522,0.075c0.235-0.076,0.406-0.176,0.509-0.223    C34.314,66.83,34.243,66.801,34.246,66.757z">
	</path>
	<path fill="none" d="M20.764,62.245c-0.061-0.001-0.132-0.015-0.204-0.034c-0.066-0.02-0.137-0.027-0.148-0.013    c0.006,0.005-0.027-0.026-0.051,0.014c-0.014,0.039-0.01,0.055,0,0.09c0.012,0.038,0.059,0.064,0.098,0.092    c0.042,0.034,0.106,0.065,0.173,0.071c0.017,0.002,0.032,0.002,0.048,0.002C20.698,62.388,20.725,62.314,20.764,62.245z">
	</path>
	<path fill="none" d="M31.021,69.234c-0.057,0.039-0.126,0.07-0.195,0.104c-0.052,0.022-0.107,0.051-0.153,0.088    c-0.014,0.011-0.029,0.018-0.046,0.026c0.002-0.008-0.009-0.008-0.014-0.009c-0.006,0-0.011,0.002-0.013,0.006    c-0.004,0.013,0.011,0.018,0.015,0.028c0.009,0.015,0.093,0.036,0.135,0.045c0.058,0.017,0.124,0.029,0.187,0.018    c0.06-0.009,0.113-0.028,0.159-0.043c-0.041-0.077-0.069-0.163-0.076-0.249C31.019,69.243,31.021,69.239,31.021,69.234z">
	</path>
	<path fill="none" d="M5.621,47.729c-0.023-0.001-0.048-0.001-0.068-0.002c-0.039-0.002-0.078,0.002-0.091,0.013    c-0.012,0.006-0.048-0.019-0.058-0.011C5.402,47.732,5.4,47.736,5.4,47.739c-0.001,0.005-0.001,0.008-0.004,0.013    c-0.005,0.016,0.016,0.04,0.022,0.062c0.004,0.026,0.029,0.075,0.066,0.105c0.046,0.039,0.096,0.072,0.133,0.106    C5.607,47.926,5.609,47.826,5.621,47.729z">
	</path>
	<path fill="none" d="M24.542,59.561c0.14,0.257,0.256,0.513,0.396,0.706c0.045,0.06,0.084,0.108,0.126,0.16    c-0.023-0.059-0.046-0.122-0.069-0.187c-0.041-0.118-0.039-0.256-0.075-0.386c-0.035-0.125-0.075-0.251-0.104-0.378    c-0.03-0.132-0.076-0.257-0.097-0.38c-0.024-0.143-0.032-0.279-0.041-0.395c-0.019-0.239-0.001-0.402,0.066-0.421    c0.067-0.018,0.127,0.124,0.218,0.343c0.044,0.106,0.089,0.232,0.133,0.37c0.038,0.119,0.064,0.249,0.1,0.379    c0.034,0.125,0.124,0.238,0.154,0.364c0.031,0.131,0.073,0.257,0.097,0.38c0.028,0.142-0.001,0.288,0.014,0.402    c0.01,0.072,0.017,0.134,0.022,0.189c0.003,0.002,0.006,0.003,0.009,0.005c0.025-0.125,0.052-0.273,0.073-0.446    c0.029-0.25,0.048-0.543,0.034-0.858c-0.013-0.271-0.037-0.561-0.102-0.849c-0.063-0.279-0.209-0.533-0.322-0.787    c-0.118-0.267-0.271-0.51-0.422-0.733c-0.174-0.258-0.325-0.516-0.501-0.699c-0.252-0.262-0.469-0.428-0.571-0.522    c0.003,0.137-0.018,0.379-0.012,0.692c0.007,0.236,0.017,0.511,0.06,0.805c0.03,0.254,0.076,0.523,0.144,0.793    c0.069,0.26,0.211,0.498,0.31,0.742C24.287,59.103,24.413,59.343,24.542,59.561z">
	</path>
	<path fill="none" d="M32.837,69.081c-0.01-0.039,0.043-0.085,0.143-0.138c-0.077-0.077-0.204-0.242-0.461-0.343    c-0.17-0.065-0.384-0.081-0.598-0.007c-0.179,0.063-0.365,0.182-0.453,0.358c-0.043,0.084-0.05,0.182-0.029,0.253    c0.022,0.072,0.059,0.112,0.113,0.165c0.114,0.11,0.358,0.175,0.547,0.205c0.22,0.036,0.444,0.054,0.601-0.04    c0.237-0.146,0.295-0.34,0.325-0.442C32.91,69.102,32.841,69.097,32.837,69.081z">
	</path>
	<path fill="none" d="M21.186,64.658c0.003-0.037,0.007-0.077,0.004-0.133c-0.007-0.136-0.07-0.349-0.252-0.506    c-0.172-0.151-0.459-0.236-0.776-0.215c-0.272,0.018-0.576,0.084-0.805,0.252c-0.225,0.16-0.299,0.444-0.284,0.661    c0.007,0.227,0.202,0.406,0.433,0.499c0.26,0.111,0.568,0.146,0.815,0.069c0.43-0.137,0.625-0.407,0.705-0.474    c-0.075-0.02-0.119-0.039-0.119-0.053C20.91,64.709,21.012,64.68,21.186,64.658z">
	</path>
	<path fill="none" d="M22.336,62.788c0.001-0.083,0.054-0.263-0.086-0.463c-0.083-0.112-0.242-0.21-0.425-0.223    c-0.157-0.014-0.343,0.022-0.504,0.12c-0.161,0.1-0.211,0.263-0.22,0.38c-0.018,0.143,0.054,0.283,0.153,0.364    c0.113,0.101,0.288,0.194,0.442,0.164c0.301-0.063,0.425-0.271,0.476-0.28C22.205,62.822,22.262,62.802,22.336,62.788z">
	</path>
	<path fill="none" d="M32.77,66.439c-0.046,0.006-0.094,0.014-0.136,0.031c-0.038,0.014-0.093,0.006-0.101,0.017    c-0.006,0.01-0.002,0.02-0.003,0.031c-0.017-0.003,0.068,0.059,0.102,0.09c0.036,0.033,0.07,0.061,0.105,0.083    C32.737,66.604,32.75,66.521,32.77,66.439z">
	</path>
	<path fill="none" d="M23.534,66.623c-0.011-0.038,0.027-0.083,0.086-0.133c-0.081-0.067-0.185-0.242-0.402-0.35    c-0.129-0.067-0.284-0.081-0.444-0.016c-0.131,0.053-0.283,0.135-0.332,0.29c-0.047,0.147-0.018,0.327,0.062,0.457    c0.081,0.136,0.248,0.211,0.402,0.241c0.181,0.036,0.374,0.006,0.493-0.083c0.155-0.115,0.198-0.279,0.225-0.391    C23.575,66.64,23.538,66.636,23.534,66.623z">
	</path>
	<path fill="none" d="M7.191,38.497c-0.001-0.19-0.1-0.409-0.295-0.559c-0.164-0.13-0.384-0.205-0.619-0.17    c-0.228,0.033-0.413,0.202-0.541,0.354c-0.143,0.17-0.161,0.348-0.09,0.513c0.08,0.193,0.239,0.381,0.446,0.424    c0.272,0.053,0.479-0.004,0.606-0.04c-0.034-0.076-0.042-0.128-0.022-0.142c0.072-0.047,0.195,0.016,0.344,0.116    C7.095,38.894,7.19,38.739,7.191,38.497z">
	</path>
	<path fill="none" d="M15.36,33.922c0.015-0.007,0.029-0.013,0.047-0.029c0.02-0.022,0.028-0.042,0.049-0.092    c0.014-0.036,0.041-0.119,0.039-0.118c0-0.004-0.004-0.008-0.01-0.01c-0.022-0.006-0.049,0.019-0.045,0.017    c-0.052-0.03-0.124-0.053-0.152-0.064c-0.019-0.012-0.027-0.019-0.048-0.052c0.001-0.004-0.026-0.028-0.042-0.02    c-0.048,0.018-0.066,0.038-0.084,0.059C15.215,33.696,15.298,33.801,15.36,33.922z">
	</path>
	<path fill="none" d="M15.912,45.367c0.043,0.034,0.02,0.101-0.028,0.198c0.073,0.068,0.191,0.18,0.434,0.195    c0.166,0.009,0.397-0.032,0.61-0.109c0.181-0.067,0.352-0.17,0.405-0.326c0.055-0.155-0.049-0.331-0.143-0.442    c-0.095-0.122-0.271-0.172-0.435-0.165c-0.19,0.001-0.394,0.043-0.529,0.17c-0.194,0.187-0.269,0.385-0.316,0.479    C15.911,45.367,15.912,45.366,15.912,45.367z">
	</path>
	<path fill="none" d="M15.313,44.269c0.02,0.007,0.026,0.04,0.026,0.084c0.133-0.046,0.401-0.116,0.655-0.372    c0.166-0.172,0.292-0.436,0.29-0.732c0-0.251-0.095-0.514-0.308-0.691c-0.208-0.176-0.484-0.188-0.706-0.127    c-0.248,0.058-0.439,0.245-0.511,0.453c-0.094,0.246-0.104,0.556-0.01,0.789c0.154,0.37,0.395,0.554,0.489,0.642    C15.268,44.281,15.295,44.262,15.313,44.269z">
	</path>
	<path fill="none" d="M13.608,30.75c0.015-0.039,0.04-0.069,0.047-0.127c0.002-0.034-0.006-0.055-0.027-0.094    c-0.018-0.031-0.038-0.072-0.08-0.098c-0.045-0.027-0.113,0.011-0.166,0.001c-0.031-0.008-0.064-0.005-0.065-0.001    c-0.008-0.002-0.014-0.009-0.014-0.009c-0.002-0.018-0.08-0.027-0.1,0.029c-0.019,0.057-0.024,0.116-0.032,0.161    C13.322,30.624,13.47,30.669,13.608,30.75z">
	</path>
	<path fill="none" d="M14.356,34.723c0.157,0.052,0.336,0.082,0.495-0.024c0.148-0.101,0.233-0.27,0.218-0.425    c-0.011-0.171-0.147-0.33-0.289-0.422c-0.162-0.112-0.372-0.128-0.55-0.079c-0.193,0.055-0.333,0.151-0.432,0.224    c0.029,0.11,0.066,0.242,0.143,0.381C14.025,34.526,14.167,34.661,14.356,34.723z">
	</path>
	<path fill="none" d="M23.154,51.047c0.02-0.005,0.036-0.009,0.059-0.017c0.021-0.007,0.045-0.016,0.067-0.025    c-0.044-0.031-0.086-0.041-0.113-0.055c-0.011-0.006-0.023-0.02-0.035-0.033C23.141,50.961,23.151,51.003,23.154,51.047z">
	</path>
	<path fill="none" d="M7.928,45.299c0.028-0.114,0.091-0.304,0.067-0.574c-0.022-0.197-0.09-0.385-0.279-0.496    c-0.158-0.099-0.376-0.159-0.585-0.115c-0.205,0.039-0.338,0.212-0.42,0.362c-0.093,0.161-0.067,0.33,0.02,0.486    c0.097,0.18,0.251,0.346,0.444,0.404c0.348,0.098,0.61,0.039,0.678,0.061c-0.071-0.118-0.103-0.191-0.092-0.201    C7.786,45.201,7.844,45.232,7.928,45.299z">
	</path>
	<path fill="none" d="M34.616,61.274c0.001-0.021,0.001-0.04,0.003-0.064c0.008-0.15,0.047-0.365,0.032-0.595    c-0.008-0.112-0.035-0.215-0.094-0.285c-0.071-0.087-0.169-0.163-0.289-0.209c-0.206-0.082-0.462-0.094-0.678,0.023    c-0.215,0.114-0.335,0.352-0.416,0.563c-0.092,0.229-0.073,0.47,0.029,0.601c0.115,0.167,0.367,0.308,0.593,0.312    c0.38,0.009,0.624-0.129,0.726-0.165c-0.078-0.104-0.124-0.173-0.106-0.195C34.445,61.225,34.518,61.231,34.616,61.274z">
	</path>
	<path fill="none" d="M21.597,47.622c0.008-0.058,0.041-0.08,0.052-0.163c0.003-0.04,0-0.083-0.021-0.133    c-0.016-0.042-0.036-0.093-0.074-0.125c-0.032-0.032-0.114,0.007-0.099,0.007l0-0.001c-0.004,0.004,0.007-0.008-0.011,0.008    c-0.022,0.015-0.094,0.053-0.098,0.12c-0.001,0.029-0.001,0.056,0,0.082C21.44,47.471,21.523,47.542,21.597,47.622z">
	</path>
	<path fill="none" d="M13.106,32.391c0.172-0.157,0.343-0.374,0.443-0.642c0.091-0.233,0.117-0.471-0.046-0.605    c-0.166-0.144-0.435-0.128-0.647-0.073c-0.235,0.052-0.436,0.213-0.556,0.392c-0.143,0.198-0.218,0.457-0.171,0.684    c0.078,0.349,0.278,0.53,0.363,0.618C12.61,32.708,12.852,32.62,13.106,32.391z">
	</path>
	<path fill="none" d="M17.59,44.686c0.027-0.028,0.063-0.051,0.095-0.096c0.022-0.033,0.029-0.058,0.031-0.095    c0.001-0.03,0.007-0.071-0.01-0.104c-0.019-0.035-0.085-0.019-0.106-0.034c-0.028-0.02-0.058-0.017-0.08-0.022    c-0.023-0.009-0.095-0.048-0.14-0.025c-0.048,0.023-0.079,0.053-0.105,0.076c0.093,0.055,0.18,0.119,0.253,0.204    C17.551,44.619,17.568,44.654,17.59,44.686z">
	</path>
	<path fill="none" d="M10.688,36.102c0.004-0.017,0.008-0.033,0.011-0.052c0.005-0.029,0.009-0.055,0.014-0.08    c0.002-0.022-0.002-0.022-0.004-0.032c-0.002-0.01-0.005-0.02-0.011-0.031L10.691,35.9c-0.011-0.008-0.055,0.039-0.075,0.036    c-0.026-0.003-0.04,0.01-0.056,0.011c-0.019-0.001-0.097-0.006-0.124,0.03c-0.009,0.011-0.01,0.02-0.017,0.03    C10.514,36.025,10.603,36.057,10.688,36.102z">
	</path>
	<path fill="none" d="M12.818,41.188c-0.01,0.04-0.02,0.078-0.029,0.111c0,0.002,0.001,0.005,0.001,0.007    c0.018-0.022,0.038-0.045,0.06-0.07C12.834,41.228,12.826,41.208,12.818,41.188z">
	</path>
	<path fill="none" d="M9.701,31.118c-0.009-0.015-0.02-0.026-0.036-0.044c-0.025-0.024-0.023-0.013-0.056-0.028    c-0.024-0.009-0.063-0.033-0.12-0.042c-0.064-0.01-0.036,0.042-0.039,0.047l0,0c-0.004,0,0.004-0.006-0.009,0.005    c-0.018,0.024-0.084,0.042-0.09,0.072c-0.002,0.019,0.003,0.032,0.006,0.046c0.049-0.016,0.096-0.039,0.145-0.048    C9.568,31.115,9.635,31.118,9.701,31.118z">
	</path>
	<path fill="none" d="M13.154,40.166c0.079-0.154,0.203-0.294,0.296-0.457c0.09-0.157,0.177-0.32,0.276-0.473    c0.102-0.159,0.191-0.324,0.297-0.465c0.123-0.163,0.256-0.302,0.37-0.418c0.235-0.241,0.427-0.356,0.477-0.311    c0.053,0.047-0.075,0.213-0.241,0.487c-0.089,0.145-0.181,0.294-0.279,0.454c-0.093,0.147-0.188,0.297-0.286,0.453    c-0.092,0.153-0.134,0.339-0.227,0.493c-0.097,0.16-0.183,0.323-0.277,0.468c-0.109,0.168-0.258,0.295-0.35,0.425    c-0.042,0.059-0.081,0.112-0.116,0.161c0.055-0.056,0.113-0.114,0.176-0.178c0.176-0.183,0.382-0.396,0.576-0.649    c0.173-0.212,0.371-0.431,0.53-0.686c0.15-0.247,0.278-0.511,0.396-0.774c0.119-0.276,0.205-0.557,0.281-0.823    c0.097-0.305,0.165-0.597,0.212-0.849c0.063-0.363,0.092-0.642,0.129-0.781c-0.097,0.12-0.234,0.276-0.391,0.475    c-0.161,0.206-0.346,0.447-0.531,0.718c-0.159,0.234-0.335,0.479-0.485,0.748c-0.15,0.256-0.233,0.551-0.361,0.815    c-0.128,0.278-0.233,0.559-0.331,0.823c-0.052,0.137-0.109,0.266-0.163,0.391C13.139,40.197,13.145,40.182,13.154,40.166z">
	</path>
	<path fill="none" d="M6.835,43.793c-0.008-0.011-0.013-0.022-0.027-0.033c-0.027-0.019-0.043-0.018-0.077-0.02    c-0.026,0-0.068-0.006-0.101,0.012c-0.037,0.02-0.027,0.09-0.051,0.121c-0.028,0.034-0.042,0.092-0.053,0.116    c-0.007,0.018-0.031,0.017-0.048,0.037c-0.007,0.009-0.006,0.019-0.009,0.03C6.572,43.943,6.697,43.852,6.835,43.793z">
	</path>
	<path fill="none" d="M9.975,37.902c0.06,0.012,0.06,0.124,0.064,0.293c0.125-0.047,0.317-0.124,0.502-0.313    c0.145-0.151,0.266-0.376,0.294-0.635c0.025-0.219-0.012-0.472-0.152-0.651c-0.142-0.176-0.369-0.202-0.533-0.152    c-0.196,0.047-0.369,0.223-0.472,0.406c-0.124,0.211-0.211,0.455-0.174,0.67c0.057,0.315,0.215,0.503,0.291,0.602    C9.855,37.974,9.923,37.891,9.975,37.902z">
	</path>
	<path fill="none" d="M7.133,34.955c-0.013-0.017-0.028-0.035-0.048-0.052c-0.041-0.035-0.091-0.065-0.14-0.073    c-0.04-0.008-0.094-0.017-0.147,0.003c-0.055,0.022-0.054,0.098-0.07,0.119c-0.024,0.032-0.027,0.076-0.033,0.128    c-0.008,0.057-0.05,0.146-0.034,0.214c0.002,0.01,0.005,0.016,0.007,0.025c0.021-0.023,0.042-0.046,0.063-0.069    C6.837,35.14,6.975,35.031,7.133,34.955z">
	</path>
	<path fill="none" d="M10.258,33.268c-0.016,0.005-0.029,0.005-0.036-0.001c-0.066-0.044,0.2-0.314,0.235-0.806    c0.014-0.23-0.055-0.505-0.239-0.711c-0.152-0.178-0.391-0.283-0.642-0.239c-0.25,0.049-0.354,0.246-0.433,0.489    c-0.089,0.264-0.117,0.547-0.061,0.757c0.055,0.238,0.219,0.477,0.434,0.56c0.217,0.086,0.43,0.057,0.564,0.018    c0.086-0.025,0.14-0.046,0.178-0.058C10.257,33.274,10.258,33.272,10.258,33.268z">
	</path>
	<path fill="none" d="M7.751,36.864c0.013-0.002,0.026,0.006,0.038,0.02c0.103-0.103,0.236-0.252,0.336-0.469    c0.088-0.205,0.127-0.484,0.028-0.73c-0.076-0.205-0.272-0.395-0.505-0.433c-0.227-0.036-0.422,0.133-0.598,0.308    c-0.186,0.188-0.356,0.444-0.39,0.626c-0.054,0.196,0.048,0.46,0.236,0.591c0.19,0.133,0.402,0.178,0.546,0.208    c0.097,0.019,0.165,0.033,0.203,0.047c0.015-0.022,0.041-0.049,0.078-0.085C7.731,36.895,7.741,36.864,7.751,36.864z">
	</path>
	<path fill="none" d="M5.716,37.504c-0.032-0.026-0.069-0.046-0.101-0.05c-0.023-0.004-0.058-0.015-0.093-0.002    c-0.039,0.015-0.017,0.077-0.019,0.077c-0.013,0.01-0.018,0.07-0.032,0.128c-0.016,0.056-0.075,0.096-0.076,0.126    c0.001,0.019,0.009,0.029,0.014,0.041c0.097-0.113,0.211-0.209,0.339-0.283C5.738,37.529,5.731,37.517,5.716,37.504z">
	</path>

	<path fill="none" d="M18.895,49.223c0.082-0.224,0.123-0.514,0.033-0.779c-0.071-0.221-0.256-0.435-0.495-0.498    c-0.227-0.061-0.464,0.092-0.631,0.251c-0.184,0.171-0.28,0.426-0.296,0.658c-0.024,0.265,0.039,0.538,0.202,0.721    c0.233,0.254,0.483,0.326,0.62,0.363c0.004-0.026,0.012-0.044,0.024-0.047c0.036-0.009,0.077,0.015,0.12,0.053    C18.503,49.851,18.737,49.622,18.895,49.223z">
	</path>
	



	<path d="M44.921,64.956c-1.351,0.136-3.307,0.219-5.662,0.018c-0.821-0.071-1.692-0.174-2.597-0.316    c-0.003-0.111-0.027-0.268-0.077-0.462c-0.046-0.176-0.101-0.383-0.189-0.596c-0.073-0.185-0.184-0.366-0.284-0.557    c-0.098-0.183-0.214-0.359-0.33-0.531c-0.121-0.178-0.214-0.372-0.344-0.524c-0.148-0.177-0.299-0.329-0.436-0.451    c-0.094-0.083-0.18-0.143-0.259-0.192c0.014-0.029,0.029-0.063,0.045-0.103c0.053-0.143,0.134-0.344,0.158-0.632    c0.009-0.136,0.001-0.317-0.108-0.487c-0.096-0.15-0.242-0.281-0.418-0.361c-0.272-0.13-0.619-0.126-0.92,0    c-0.044-0.08-0.125-0.173-0.247-0.188c-0.118-0.017-0.245,0.031-0.338,0.09c-0.095,0.059-0.117,0.17-0.164,0.234    c-0.05,0.068-0.105,0.143-0.128,0.235c-0.028,0.103-0.018,0.227,0.027,0.31c0.03,0.058,0.067,0.095,0.105,0.122    c-0.059,0.161-0.098,0.331-0.097,0.511c0.001,0.181,0.06,0.382,0.185,0.527c0.299,0.332,0.69,0.374,0.972,0.347    c0.301-0.032,0.52-0.157,0.641-0.266c0.067-0.061,0.105-0.115,0.122-0.158c0.053,0.068,0.113,0.144,0.182,0.236    c0.106,0.141,0.188,0.336,0.313,0.515c0.11,0.153,0.232,0.312,0.343,0.484c0.105,0.165,0.259,0.306,0.358,0.478    c0.101,0.179,0.187,0.361,0.273,0.53c0.094,0.19,0.182,0.366,0.266,0.535c0.064,0.13,0.113,0.236,0.156,0.324    c-1.558-0.252-3.215-0.62-4.91-1.152c-0.377-0.119-0.756-0.251-1.136-0.389c-0.125-0.142-0.288-0.325-0.478-0.548    c-0.212-0.251-0.414-0.579-0.653-0.908c-0.207-0.284-0.423-0.588-0.606-0.919c-0.099-0.178-0.207-0.355-0.305-0.537    c0.035-0.058,0.076-0.127,0.134-0.207c0.072-0.1,0.203-0.184,0.302-0.305c0.085-0.105,0.165-0.223,0.262-0.333    c0.092-0.105,0.144-0.251,0.242-0.353c0.102-0.106,0.211-0.201,0.308-0.296c0.103-0.1,0.2-0.194,0.298-0.291    c0.003,0.037,0.012,0.082,0.034,0.138c0.054,0.129,0.184,0.307,0.422,0.421c0.223,0.116,0.575,0.145,0.874-0.022    c0.257-0.137,0.465-0.412,0.518-0.739c0.035-0.205-0.002-0.413-0.085-0.6c0.024-0.011,0.05-0.025,0.084-0.033    c0.04-0.012,0.101,0.035,0.123,0.042c0.022,0.005,0.048-0.001,0.073,0.012c0.018,0.01,0.039-0.042,0.06-0.026    c0.004,0.004,0.006,0.01,0.005,0.015c-0.003,0.009-0.004,0.016-0.003,0.023c0.006,0.008-0.013,0.08-0.016,0.101    c-0.008,0.062-0.025,0.075-0.031,0.147c-0.016,0.068,0.119,0.145,0.264,0.032c0.067-0.058,0.12-0.092,0.169-0.219    c0.019-0.062,0.011-0.13,0.013-0.2c-0.01-0.039-0.031-0.081-0.057-0.118c-0.06-0.088-0.187-0.156-0.274-0.18    c-0.09-0.028-0.19-0.072-0.287-0.046c-0.11,0.029-0.194,0.091-0.244,0.156c-0.013,0.017-0.016,0.033-0.025,0.05    c-0.006-0.007-0.009-0.016-0.015-0.023c-0.205-0.252-0.527-0.412-0.828-0.395c-0.35,0.006-0.658,0.219-0.797,0.42    c-0.079,0.104-0.13,0.199-0.172,0.289c-0.045,0.094-0.078,0.21-0.05,0.308c0.026,0.093,0.09,0.142,0.137,0.151    c0.048,0.009,0.07-0.014,0.076-0.036c0.006-0.024-0.033-0.051-0.021-0.133c0.004-0.063,0.135-0.217,0.28-0.361    c0.148-0.144,0.354-0.182,0.559-0.172c0.178,0.006,0.365,0.07,0.478,0.217c0.109,0.133,0.226,0.324,0.196,0.522    c-0.029,0.198-0.171,0.363-0.33,0.462c-0.188,0.12-0.397,0.134-0.57,0.081c-0.296-0.092-0.417-0.291-0.488-0.353    c0.149-0.144,0.249-0.236,0.215-0.288c-0.037-0.057-0.217-0.014-0.459,0.117c-0.117,0.064-0.254,0.141-0.388,0.243    c-0.116,0.088-0.218,0.205-0.331,0.314c-0.109,0.105-0.206,0.225-0.302,0.342c-0.1,0.121-0.222,0.223-0.3,0.347    c-0.09,0.142-0.164,0.285-0.212,0.417c-0.002,0.004-0.002,0.008-0.003,0.012c-0.011-0.029-0.025-0.057-0.036-0.087    c-0.123-0.357-0.197-0.721-0.244-1.064c-0.056-0.398-0.055-0.77-0.027-1.087c0.03-0.341,0.098-0.609,0.147-0.794    c0.032,0.012,0.07,0.022,0.118,0.026c0.171,0.015,0.416-0.07,0.635-0.254c0.209-0.172,0.444-0.428,0.545-0.796    c0.084-0.313,0.041-0.693-0.174-1.004c-0.141-0.206-0.37-0.356-0.623-0.411c-0.004-0.048-0.004-0.101,0.009-0.169    c0.017-0.099,0.104-0.205,0.147-0.326c0.033-0.102,0.08-0.172,0.082-0.157c-0.018-0.004,0.09-0.05,0.206,0.01    c0.132,0.066,0.121,0.075,0.137,0.13c0.016,0.073-0.016,0.21-0.036,0.308c-0.044,0.211-0.111,0.223-0.107,0.297    c0.004,0.032,0.052,0.066,0.139,0.04c0.087-0.025,0.18-0.119,0.245-0.234c0.057-0.113,0.145-0.227,0.148-0.451    c0-0.095-0.046-0.215-0.13-0.297c-0.083-0.081-0.167-0.116-0.228-0.148c-0.114-0.055-0.303-0.157-0.546-0.064    c-0.24,0.113-0.324,0.311-0.359,0.442c-0.033,0.155-0.047,0.308-0.029,0.448c0.007,0.058,0.026,0.107,0.046,0.155    c-0.02,0.002-0.04-0.003-0.06,0c-0.382,0.061-0.699,0.302-0.851,0.606c-0.175,0.351-0.172,0.732-0.068,1.014    c0.108,0.295,0.302,0.472,0.448,0.552c0.149,0.081,0.249,0.076,0.268,0.034c0.034-0.043-0.293-0.219-0.399-0.683    c-0.047-0.222,0.036-0.486,0.166-0.702c0.107-0.187,0.299-0.357,0.506-0.382c0.179-0.03,0.434,0.026,0.573,0.219    c0.139,0.194,0.159,0.462,0.111,0.688c-0.055,0.268-0.211,0.498-0.369,0.669c-0.16,0.178-0.331,0.268-0.448,0.296    c-0.027,0.007-0.043,0.007-0.066,0.01c0.021-0.087,0.029-0.141,0.005-0.152c-0.051-0.03-0.337,0.345-0.477,1.042    c-0.067,0.336-0.108,0.741-0.068,1.174c0.033,0.375,0.135,0.763,0.261,1.147c0.121,0.372,0.296,0.73,0.489,1.065    c0.199,0.349,0.392,0.696,0.623,0.984c0.268,0.333,0.54,0.619,0.783,0.85c0.032,0.03,0.061,0.056,0.092,0.084    c-1.394-0.545-2.784-1.222-4.124-2.032c0.061-0.131,0.124-0.301,0.178-0.506c0.067-0.261,0.128-0.575,0.133-0.919    c0.005-0.298-0.044-0.612-0.11-0.928c-0.062-0.305-0.171-0.605-0.302-0.886c-0.135-0.292-0.267-0.586-0.45-0.823    c-0.212-0.275-0.442-0.5-0.656-0.669c-0.377-0.295-0.693-0.403-0.807-0.382c-0.005-0.01-0.012-0.017-0.021-0.019    c-0.061-0.014-0.201,0.294-0.269,0.807c-0.03,0.248-0.058,0.544-0.032,0.861c0.015,0.275,0.085,0.561,0.152,0.851    c0.068,0.279,0.169,0.554,0.282,0.817c0.12,0.272,0.218,0.553,0.374,0.783c0.006,0.009,0.013,0.017,0.019,0.026    c-0.837-0.587-1.645-1.224-2.416-1.906c-0.113-0.206-0.29-0.519-0.486-0.926c-0.168-0.356-0.308-0.793-0.469-1.256    c-0.149-0.397-0.288-0.826-0.402-1.271c-0.106-0.428-0.249-0.86-0.311-1.301c-0.024-0.188-0.041-0.373-0.057-0.557    c0.045,0.008,0.127-0.014,0.236-0.054c0.071-0.027,0.183-0.022,0.267-0.074c0.073-0.044,0.137-0.107,0.208-0.165    c0.069-0.057,0.091-0.16,0.149-0.224c0.06-0.067,0.125-0.128,0.17-0.199c0.054-0.08,0.095-0.16,0.123-0.231    c0-0.001,0.001-0.002,0.001-0.003c0.095,0.105,0.256,0.231,0.501,0.33c0.233,0.087,0.556,0.13,0.879-0.005    c0.273-0.108,0.502-0.385,0.571-0.705c0.028,0.014,0.06,0.026,0.098,0.035c0.079,0.014,0.168,0.038,0.297-0.008    c0.11-0.038,0.236-0.183,0.229-0.365c-0.001-0.045-0.012-0.095-0.037-0.141c-0.025-0.042-0.047-0.059-0.074-0.087    c-0.061-0.059-0.088-0.069-0.128-0.095c-0.078-0.047-0.158-0.126-0.27-0.138c-0.098-0.012-0.2,0.017-0.28,0.06    c-0.052-0.067-0.112-0.126-0.179-0.172c-0.266-0.205-0.602-0.287-0.885-0.249c-0.325,0.042-0.632,0.185-0.811,0.413    c-0.192,0.242-0.189,0.513-0.125,0.66c0.066,0.154,0.162,0.186,0.195,0.157c0.022-0.016-0.008-0.08-0.006-0.192    c0.001-0.109,0.044-0.28,0.184-0.404c0.141-0.128,0.378-0.158,0.615-0.17c0.204-0.012,0.418,0.018,0.567,0.14    c0.141,0.11,0.272,0.256,0.234,0.46c-0.039,0.205-0.185,0.364-0.361,0.448c-0.206,0.104-0.443,0.112-0.636,0.073    c-0.244-0.053-0.414-0.149-0.528-0.209c0.009-0.055,0.003-0.094-0.031-0.111c-0.063-0.031-0.158,0.027-0.269,0.121    c-0.055,0.046-0.121,0.095-0.184,0.152c-0.053,0.05-0.093,0.116-0.15,0.17c-0.059,0.059-0.107,0.107-0.16,0.161    c-0.058,0.053-0.14,0.074-0.192,0.122c-0.06,0.058-0.116,0.112-0.161,0.164c-0.033,0.038-0.057,0.077-0.076,0.116    c-0.013-0.19-0.024-0.379-0.028-0.561c-0.023-0.492-0.004-0.949,0.017-1.34c0.05-0.805,0.16-1.323,0.085-1.339    c-0.008-0.002-0.019,0.007-0.031,0.023c-0.048-0.091-0.226-0.315-0.21-0.697c0.012-0.228,0.157-0.441,0.352-0.588    c0.164-0.135,0.4-0.227,0.624-0.2c0.205,0.022,0.458,0.1,0.583,0.296c0.128,0.201,0.132,0.457,0.04,0.643    c-0.106,0.227-0.329,0.383-0.534,0.453c-0.443,0.142-0.787,0.038-0.797,0.117c-0.017,0.05,0.301,0.257,0.878,0.166    c0.272-0.054,0.608-0.214,0.803-0.564c0.171-0.308,0.134-0.718-0.061-1.028c-0.019-0.03-0.045-0.053-0.066-0.081    c0.009,0.002,0.012,0.008,0.023,0.009c0.065,0.005,0.159-0.032,0.228-0.124c0.068-0.086,0.116-0.225,0.091-0.365    c-0.02-0.122-0.097-0.229-0.193-0.321c-0.101-0.089-0.218-0.144-0.385-0.141c-0.027,0.001-0.053,0.004-0.079,0.009    c-0.134,0.018-0.276,0.122-0.319,0.231c-0.045,0.1-0.049,0.201-0.036,0.284c-0.045-0.01-0.09-0.024-0.136-0.028    c-0.359-0.034-0.726,0.064-0.975,0.294c-0.297,0.263-0.405,0.658-0.372,0.949c0.027,0.31,0.173,0.531,0.297,0.641    c0.089,0.077,0.161,0.106,0.208,0.105c-0.085,0.175-0.217,0.613-0.311,1.227c-0.057,0.398-0.116,0.868-0.113,1.378    c-0.001,0.048,0.006,0.099,0.006,0.147c-0.034-0.056-0.069-0.113-0.1-0.163c-0.076-0.119-0.17-0.236-0.247-0.368    c-0.073-0.127-0.152-0.254-0.219-0.385c-0.069-0.137-0.099-0.287-0.157-0.414c-0.063-0.133-0.123-0.261-0.189-0.402    c-0.057-0.118-0.115-0.215-0.17-0.281c0.107-0.022,0.398-0.203,0.651-0.646c0.134-0.256,0.241-0.618,0.134-1.015    c-0.093-0.343-0.381-0.651-0.77-0.76c-0.09-0.025-0.18-0.031-0.269-0.029c0.031-0.065,0.106-0.131,0.133-0.213    c0.007-0.025,0.012-0.043,0.018-0.064c0,0,0-0.001,0.002,0.001c-0.005,0.005-0.016-0.058,0.011-0.052    c0.032,0.008,0.09,0.048,0.107,0.065c0.009,0.007,0.016,0.014,0.02,0.015c0.012,0.012,0.023,0.025,0.027,0.049    c0.012,0.07-0.005,0.085-0.01,0.158c0.001,0.032,0.027,0.071,0.094,0.07c0.066,0,0.157-0.058,0.203-0.162    c0.032-0.068,0.053-0.172,0.012-0.284c-0.012-0.035-0.032-0.074-0.058-0.109c-0.087-0.106-0.184-0.145-0.319-0.188    c-0.147-0.045-0.306-0.044-0.405,0.062c-0.05,0.051-0.087,0.109-0.113,0.184c-0.012,0.039-0.023,0.076-0.032,0.106    c-0.006,0.019-0.011,0.039-0.013,0.058c-0.009,0.091-0.011,0.176-0.006,0.25c0.003,0.04,0.011,0.077,0.021,0.111    c-0.176,0.061-0.335,0.165-0.46,0.287c-0.269,0.261-0.448,0.61-0.452,0.966c-0.008,0.415,0.206,0.778,0.442,0.972    c0.249,0.21,0.515,0.277,0.691,0.273c0.065-0.001,0.114-0.011,0.155-0.024c0.006,0.079,0.019,0.179,0.041,0.301    c0.026,0.136,0.015,0.312,0.073,0.479c0.048,0.145,0.124,0.29,0.194,0.44c0.069,0.145,0.199,0.257,0.282,0.39    c0.088,0.138,0.171,0.277,0.268,0.394c0.11,0.137,0.223,0.254,0.327,0.347c0.038,0.034,0.071,0.061,0.105,0.089    c0.02,0.239,0.048,0.482,0.076,0.727c0.058,0.456,0.155,0.915,0.27,1.36c0.124,0.461,0.227,0.922,0.398,1.33    c0.188,0.476,0.409,0.897,0.614,1.245c0.027,0.045,0.053,0.084,0.079,0.126c-0.824-0.78-1.601-1.608-2.312-2.479    c-1.678-2.049-2.959-4.33-3.933-6.565c0.004-0.073,0.009-0.152,0.015-0.24c0.013-0.184,0.079-0.397,0.101-0.625    c0.016-0.198,0.026-0.409,0.051-0.622c0.003-0.027,0.001-0.054,0.003-0.081c0.008-0.007,0.015-0.012,0.023-0.019    c0.06-0.05,0.168-0.079,0.237-0.148c0.059-0.06,0.11-0.134,0.17-0.202c0.058-0.065,0.07-0.17,0.124-0.239    c0.057-0.071,0.12-0.135,0.168-0.203c0.04-0.058,0.071-0.11,0.102-0.163c0.003,0.007,0.004,0.012,0.008,0.02    c0.061,0.121,0.226,0.271,0.468,0.323c0.236,0.05,0.495,0.044,0.778-0.033c0.238-0.069,0.525-0.242,0.647-0.563    c0.075-0.205,0.052-0.418-0.026-0.606c0.045,0.009,0.099,0.011,0.167-0.012c0.091-0.03,0.209-0.122,0.251-0.259    c0.037-0.117,0.012-0.245-0.04-0.362c-0.051-0.116-0.148-0.2-0.252-0.253c-0.104-0.055-0.229-0.117-0.358-0.089    c-0.144,0.032-0.246,0.117-0.303,0.202c-0.056,0.088-0.063,0.166-0.048,0.226c-0.126-0.044-0.258-0.065-0.382-0.05    c-0.328,0.032-0.596,0.223-0.737,0.417c-0.221,0.312-0.224,0.576-0.176,0.692c-0.053,0.016-0.117,0.05-0.188,0.101    c-0.065,0.047-0.144,0.099-0.216,0.166c-0.062,0.058-0.109,0.135-0.17,0.202c-0.059,0.065-0.111,0.138-0.165,0.206    c-0.014,0.017-0.032,0.031-0.048,0.046c0.033-0.194,0.074-0.384,0.109-0.562c0.043-0.22,0.083-0.423,0.121-0.617    c0.036-0.185,0.07-0.336,0.087-0.445c0.045,0.011,0.108,0.017,0.19,0.012c0.171-0.011,0.428-0.075,0.676-0.276    c0.241-0.19,0.458-0.531,0.477-0.943c0.023-0.354-0.149-0.748-0.446-0.996c-0.148-0.134-0.34-0.224-0.543-0.266    c0.027-0.041,0.049-0.124,0.091-0.228c0.015-0.036,0.044-0.071,0.074-0.106c0.03-0.034,0.068-0.082,0.067-0.064l0.004,0.002    l0.001,0l0,0l0.037,0.002c0.059,0.003,0.178-0.03,0.207-0.02c0.006,0.002,0.012,0.006,0.015,0.011    c0.01,0.023,0.003,0.006,0.014,0.064c0.013,0.076,0.011,0.151,0.004,0.217c-0.009,0.073-0.026,0.123-0.02,0.136    c0.005,0.007,0.021,0.05,0.016,0.044c0.002-0.006-0.003,0.009-0.009,0.027c-0.019,0.027,0.01,0.089,0.096,0.067    c0.079-0.023,0.145-0.095,0.197-0.18c0.052-0.087,0.102-0.205,0.105-0.342c0.004-0.066-0.022-0.232-0.114-0.313    c-0.035-0.035-0.082-0.065-0.133-0.086c-0.159-0.06-0.24-0.061-0.365-0.068c-0.066-0.006-0.257-0.013-0.35,0.067    c-0.043,0.031-0.077,0.071-0.1,0.117c-0.051,0.111-0.05,0.156-0.062,0.212c-0.008,0.055-0.011,0.107-0.01,0.155    c0.004,0.131,0.048,0.222,0.103,0.272c-0.134-0.012-0.269-0.01-0.397,0.027c-0.376,0.092-0.733,0.367-0.841,0.743    c-0.12,0.422-0.01,0.807,0.14,1.078c0.161,0.285,0.378,0.45,0.539,0.525c0.073,0.033,0.132,0.049,0.179,0.054    c-0.063,0.096-0.136,0.241-0.211,0.425c-0.071,0.176-0.155,0.383-0.218,0.614c-0.057,0.199-0.084,0.418-0.126,0.638    c-0.039,0.212-0.062,0.431-0.083,0.645c-0.021,0.223-0.075,0.44-0.075,0.648c0,0.011,0.001,0.021,0.001,0.032    c-0.815-2.063-1.331-4.088-1.641-5.922c0.136-0.059,0.378-0.201,0.674-0.429c0.211-0.165,0.488-0.337,0.714-0.598    c0.201-0.219,0.377-0.484,0.551-0.754c0.165-0.264,0.258-0.57,0.377-0.852c0.12-0.296,0.234-0.589,0.296-0.878    c0.082-0.332,0.115-0.648,0.127-0.917c0.018-0.557-0.045-0.913-0.108-0.907c-0.001,0-0.001,0.001-0.002,0.001l-0.124-0.138    c-0.052,0.059-0.075,0.098-0.082,0.126c-0.126,0.091-0.285,0.221-0.461,0.391c-0.194,0.189-0.417,0.416-0.627,0.687    c-0.181,0.234-0.347,0.503-0.509,0.78c-0.162,0.264-0.296,0.549-0.426,0.829c-0.129,0.294-0.282,0.573-0.368,0.858    c-0.088,0.278-0.145,0.538-0.187,0.776c-0.258-2.003-0.289-3.719-0.25-5.007c0.001,0.012-0.001,0.024,0.003,0.036    c0.017,0.045,0.122,0.035,0.282,0.007c0.078-0.014,0.188,0.013,0.283-0.019c0.082-0.026,0.162-0.072,0.248-0.11    c0.083-0.036,0.137-0.129,0.214-0.173c0.081-0.045,0.164-0.083,0.233-0.133c0.07-0.05,0.129-0.1,0.181-0.15    c0.087,0.104,0.195,0.198,0.339,0.257c0.265,0.116,0.636,0.091,0.906-0.097c0.266-0.174,0.398-0.524,0.356-0.834    c-0.003-0.022-0.012-0.042-0.016-0.063c0.019,0.001,0.034,0.009,0.055,0.007c0.11-0.007,0.243-0.092,0.308-0.2    c0.057-0.1,0.074-0.178,0.087-0.349c0-0.035-0.006-0.07-0.017-0.104c-0.036-0.105-0.129-0.178-0.23-0.223    c-0.09-0.041-0.156-0.115-0.28-0.13c-0.068-0.007-0.144-0.002-0.213,0.021c-0.085,0.028-0.142,0.076-0.181,0.126    c-0.043,0.055-0.062,0.117-0.065,0.175c-0.282-0.127-0.587-0.087-0.786,0.012c-0.18,0.091-0.303,0.2-0.384,0.299    c-0.014-0.029-0.029-0.051-0.051-0.055c-0.034-0.016-0.2,0.289-0.045,0.77c0.014,0.042,0.035,0.088,0.055,0.133    c-0.069,0.022-0.146,0.043-0.224,0.076c-0.074,0.032-0.141,0.085-0.22,0.122c-0.076,0.035-0.148,0.08-0.222,0.118    c-0.078,0.039-0.17,0.042-0.239,0.081c-0.08,0.046-0.154,0.091-0.215,0.137c-0.089,0.066-0.146,0.143-0.162,0.214    c0.006-0.178,0.012-0.349,0.02-0.51c0.033-0.676,0.067-1.202,0.097-1.552c0.015-0.234,0.018-0.384,0.012-0.458    c0.153,0.007,0.429-0.042,0.748-0.255c0.227-0.155,0.472-0.393,0.62-0.728c0.064-0.142,0.112-0.31,0.105-0.502    c-0.003-0.188-0.099-0.401-0.247-0.532c0.045-0.014,0.093-0.038,0.142-0.092c0.076-0.081,0.123-0.241,0.079-0.381    c-0.035-0.123-0.132-0.218-0.236-0.289c-0.1-0.069-0.215-0.095-0.318-0.107c-0.082-0.011-0.272-0.05-0.401,0.044    c-0.148,0.117-0.182,0.299-0.164,0.4c0.017,0.084,0.048,0.136,0.084,0.175c-0.072,0.006-0.143,0.015-0.211,0.033    c-0.344,0.086-0.667,0.282-0.844,0.58c-0.208,0.349-0.191,0.749-0.088,1.023c0.107,0.293,0.301,0.474,0.449,0.553    c0.077,0.041,0.14,0.058,0.186,0.06c0.015,0.006,0.036,0.011,0.062,0.014c-0.019,0.081-0.048,0.254-0.089,0.519    c-0.064,0.365-0.121,0.9-0.186,1.582c-0.006,0.072-0.011,0.153-0.017,0.229c-0.027-0.052-0.059-0.107-0.098-0.169    c-0.068-0.107-0.146-0.235-0.242-0.362c-0.083-0.109-0.19-0.209-0.285-0.323c-0.092-0.11-0.194-0.213-0.29-0.318    c-0.1-0.109-0.17-0.242-0.268-0.338c-0.113-0.111-0.222-0.21-0.322-0.29c-0.147-0.118-0.279-0.181-0.368-0.185    c0.03-0.024,0.063-0.053,0.1-0.093c0.109-0.122,0.248-0.33,0.305-0.631c0.056-0.288,0.016-0.677-0.237-0.997    c-0.135-0.18-0.355-0.301-0.593-0.353c0.019-0.033,0.034-0.073,0.036-0.119c0.003-0.048-0.002-0.101-0.025-0.158    c-0.024-0.06-0.069-0.114-0.113-0.15c-0.084-0.067-0.182-0.079-0.261-0.1c-0.059-0.014-0.216-0.043-0.303,0.005l-0.031,0.016    c-0.103,0.055-0.2,0.17-0.229,0.282c-0.027,0.112-0.013,0.25,0.055,0.345c0.015,0.021,0.034,0.028,0.052,0.043    c-0.037,0.027-0.078,0.047-0.111,0.081c-0.139,0.142-0.218,0.315-0.271,0.475c-0.1,0.323-0.195,0.675-0.084,1.031    c0.134,0.41,0.472,0.666,0.786,0.74c0.333,0.078,0.601-0.026,0.742-0.128c0.068-0.05,0.109-0.098,0.133-0.139    c0.038,0.066,0.099,0.153,0.173,0.258c0.073,0.103,0.122,0.256,0.221,0.38c0.085,0.107,0.188,0.21,0.284,0.323    c0.093,0.108,0.232,0.178,0.328,0.283c0.1,0.11,0.19,0.223,0.286,0.321c0.111,0.113,0.217,0.214,0.312,0.298    c0.131,0.115,0.229,0.197,0.297,0.228c-0.085,1.329-0.087,3.111,0.156,5.202c0.099,0.79,0.233,1.628,0.409,2.495    c-0.11-0.162-0.252-0.358-0.422-0.579c-0.222-0.289-0.483-0.626-0.782-0.975c-0.259-0.301-0.556-0.602-0.849-0.917    c-0.138-0.148-0.284-0.289-0.427-0.434c-0.011-0.054-0.025-0.115-0.04-0.189c-0.021-0.106,0.004-0.241-0.018-0.37    c-0.021-0.111-0.051-0.227-0.068-0.348c-0.015-0.116-0.086-0.228-0.096-0.348c-0.009-0.123-0.005-0.245-0.008-0.359    c-0.003-0.102-0.006-0.201-0.009-0.302c0.152,0.014,0.411-0.026,0.698-0.239c0.216-0.165,0.42-0.447,0.48-0.803    c0.051-0.305-0.015-0.656-0.231-0.944c-0.028-0.039-0.068-0.07-0.104-0.105c0.026-0.017,0.052-0.039,0.078-0.067    c0.025-0.027,0.052-0.058,0.077-0.094c0.026-0.042,0.061-0.113,0.069-0.18c0.021-0.099-0.062-0.176-0.11-0.263    c-0.02-0.018-0.041-0.037-0.064-0.055c-0.111-0.082-0.227-0.101-0.333-0.098c-0.109,0.002-0.243,0.008-0.335,0.091    c-0.1,0.093-0.144,0.207-0.15,0.302c-0.002,0.047,0.005,0.084,0.016,0.118c-0.034,0.005-0.069,0.002-0.103,0.012    c-0.352,0.099-0.629,0.338-0.769,0.623c-0.162,0.331-0.169,0.694-0.078,0.965c0.092,0.283,0.264,0.462,0.397,0.548    c0.072,0.047,0.132,0.068,0.177,0.073c-0.003,0.009-0.006,0.016-0.009,0.025c-0.032,0.11-0.071,0.242-0.086,0.387    c-0.015,0.125,0.003,0.258,0.007,0.394c0.004,0.131,0.026,0.263,0.049,0.391c0.018,0.099,0.022,0.198,0.037,0.293    c-0.275-0.279-0.526-0.563-0.764-0.819c-0.304-0.324-0.548-0.646-0.72-0.943c-0.229-0.388-0.335-0.724-0.408-0.916    c0.148-0.07,0.346-0.214,0.525-0.488c0.148-0.246,0.255-0.612,0.13-0.999c-0.109-0.336-0.422-0.615-0.811-0.684    c-0.12-0.022-0.237-0.013-0.348,0.012c-0.002-0.041-0.01-0.086-0.029-0.137c-0.039-0.097-0.119-0.217-0.266-0.28    c-0.128-0.054-0.274-0.036-0.404,0.008c-0.127,0.041-0.242,0.137-0.313,0.259c-0.073,0.12-0.133,0.26-0.117,0.384    c0.018,0.143,0.074,0.254,0.136,0.334c0.035,0.043,0.072,0.076,0.11,0.102c-0.128,0.161-0.237,0.338-0.278,0.577    c-0.032,0.222,0.04,0.448,0.147,0.602c0.108,0.158,0.246,0.268,0.385,0.341c0.293,0.145,0.546,0.136,0.706,0.114    c0.124-0.02,0.202-0.053,0.23-0.089c0.013,0.001,0.03,0,0.051-0.003c0.004,0.221,0.06,0.589,0.261,1.023    c0.155,0.342,0.36,0.745,0.668,1.102c0.104,0.121,0.219,0.238,0.333,0.356c-0.063,0.002-0.132,0.006-0.215,0.01    c-0.112,0.005-0.24-0.002-0.373-0.012c-0.115-0.008-0.237-0.004-0.359-0.031C7.917,39.509,7.8,39.48,7.689,39.435    c-0.116-0.047-0.204-0.139-0.3-0.195c-0.088-0.051-0.161-0.103-0.233-0.154c0.005-0.003,0.009-0.005,0.014-0.008    c0.123-0.089,0.278-0.279,0.315-0.566c0.042-0.277-0.068-0.637-0.344-0.875c-0.232-0.213-0.595-0.304-0.923-0.255    c-0.081,0.01-0.161,0.029-0.239,0.056c-0.002-0.027-0.002-0.052-0.01-0.084c-0.027-0.086-0.087-0.198-0.213-0.263    c-0.113-0.056-0.245-0.044-0.363-0.009c-0.116,0.033-0.224,0.124-0.284,0.243c-0.058,0.119-0.101,0.21-0.102,0.294    c0,0.104,0.021,0.24,0.109,0.341c0.042,0.048,0.092,0.075,0.139,0.088c-0.045,0.083-0.081,0.171-0.1,0.268    c-0.038,0.183-0.005,0.375,0.072,0.526c0.179,0.351,0.537,0.534,0.821,0.547c0.3,0.021,0.519-0.082,0.644-0.171    c0.031-0.023,0.057-0.045,0.078-0.066c0.024,0.038,0.049,0.077,0.081,0.121c0.075,0.101,0.144,0.252,0.277,0.355    c0.114,0.088,0.252,0.157,0.394,0.22c0.139,0.062,0.302,0.05,0.445,0.074c0.15,0.026,0.3,0.044,0.44,0.034    c0.162-0.012,0.31-0.047,0.43-0.091c0.13-0.049,0.227-0.1,0.288-0.146c0.132,0.132,0.266,0.263,0.398,0.397    c0.288,0.292,0.621,0.55,0.906,0.846c0.291,0.312,0.575,0.618,0.844,0.907c0.309,0.33,0.594,0.635,0.847,0.904    c0.322,0.342,0.568,0.612,0.72,0.754c0.331,1.538,0.803,3.163,1.493,4.801c0.24,0.567,0.504,1.135,0.789,1.701    c-0.138-0.127-0.308-0.259-0.522-0.383c-0.358-0.215-0.806-0.406-1.28-0.586c-0.41-0.154-0.837-0.313-1.258-0.522    c-0.361-0.18-0.721-0.378-1.064-0.594c-0.072-0.1-0.104-0.245-0.166-0.387c-0.058-0.133-0.128-0.279-0.179-0.432    c-0.048-0.147-0.149-0.283-0.185-0.438c-0.037-0.16-0.054-0.32-0.077-0.469c-0.026-0.173-0.043-0.335-0.056-0.474    c-0.006-0.063-0.01-0.119-0.014-0.172c0.022,0.004,0.045,0.007,0.074,0.006c0.142-0.005,0.343-0.066,0.533-0.243    c0.092-0.078,0.184-0.241,0.199-0.39c0.024-0.153,0.005-0.316-0.048-0.468c-0.094-0.263-0.282-0.488-0.528-0.662    c-0.171-0.125-0.401-0.194-0.628-0.186c0.027-0.04,0.049-0.09,0.054-0.153c0.014-0.115-0.041-0.266-0.139-0.359    c-0.088-0.084-0.19-0.119-0.301-0.158c-0.104-0.041-0.292-0.04-0.424,0.061c-0.133,0.098-0.223,0.223-0.235,0.358    c-0.011,0.164,0.049,0.284,0.105,0.362c0.126,0.16,0.264,0.171,0.338,0.115c0.041-0.029-0.011-0.126-0.037-0.254    c-0.013-0.065,0.04-0.139,0.057-0.162c0.011-0.03,0.027-0.062,0.031-0.057c-0.008,0.008-0.007-0.06,0.061-0.044    c0.06,0.017,0.122,0.058,0.161,0.083c0.05,0.034,0.073,0.056,0.09,0.087c0.032,0.066,0.021,0.105,0.037,0.154    c-0.015,0.004-0.031,0.004-0.046,0.008c-0.154,0.046-0.307,0.127-0.424,0.254c-0.116,0.127-0.185,0.288-0.199,0.441    c-0.038,0.355,0.13,0.666,0.315,0.835c0.372,0.321,0.688,0.306,0.748,0.24c-0.029,0.08-0.056,0.177-0.074,0.302    c-0.023,0.15-0.044,0.328-0.037,0.52c0.007,0.166,0.047,0.339,0.082,0.515c0.034,0.17,0.09,0.338,0.149,0.501    c0.019,0.052,0.034,0.104,0.051,0.156c-0.165-0.134-0.326-0.269-0.483-0.395c-0.388-0.314-0.729-0.628-1.011-0.907    c-0.336-0.327-0.596-0.594-0.774-0.754c0.099-0.084,0.242-0.3,0.27-0.661c0.006-0.124-0.002-0.264-0.053-0.413    c-0.05-0.149-0.168-0.3-0.304-0.397c-0.237-0.171-0.553-0.229-0.859-0.177c0.002-0.031,0.006-0.06-0.003-0.1    c-0.02-0.101-0.122-0.229-0.26-0.269c-0.12-0.036-0.246-0.007-0.361,0.046c-0.111,0.051-0.189,0.142-0.245,0.23    c-0.057,0.093-0.131,0.172-0.141,0.297c-0.006,0.079,0.012,0.179,0.049,0.24c0.033,0.065,0.078,0.109,0.116,0.136    c0.024,0.014,0.042,0.017,0.063,0.025c-0.135,0.281-0.122,0.649,0.048,0.881c0.197,0.298,0.518,0.445,0.77,0.476    c0.473,0.046,0.737-0.127,0.771-0.221c0.127,0.204,0.353,0.52,0.676,0.894c0.264,0.311,0.56,0.695,0.953,1.037    c0.338,0.295,0.725,0.577,1.131,0.846c0.205,0.137,0.424,0.252,0.647,0.36c-0.004,0-0.006,0-0.01,0    c-0.186,0.011-0.407,0.024-0.605,0.035c-0.188,0.015-0.384,0.05-0.584,0.052c-0.191,0.003-0.384,0.001-0.574-0.02    c-0.198-0.023-0.38-0.098-0.556-0.139c-0.205-0.047-0.392-0.104-0.553-0.156c-0.098-0.032-0.185-0.057-0.264-0.079    c0.032-0.03,0.073-0.107,0.098-0.235c0.034-0.173,0.035-0.446-0.106-0.742c-0.132-0.285-0.411-0.584-0.813-0.711    c-0.347-0.114-0.767-0.051-1.101,0.156c-0.242,0.141-0.426,0.379-0.525,0.644c-0.053-0.056-0.122-0.129-0.241-0.138    c-0.118-0.006-0.236,0.034-0.349,0.127c-0.047,0.039-0.078,0.097-0.093,0.155C4.995,47.63,5,47.704,5.004,47.772    c0.008,0.123,0.051,0.231,0.129,0.308c0.094,0.089,0.197,0.12,0.28,0.126c0.118,0.005,0.194-0.018,0.228-0.053    c0.046,0.249,0.156,0.486,0.369,0.646c0.2,0.147,0.426,0.184,0.604,0.194C6.795,49,6.951,48.992,7.107,48.971    c0.322-0.041,0.581-0.184,0.704-0.327c0.069-0.077,0.101-0.143,0.112-0.193c0.084,0.066,0.199,0.145,0.349,0.23    c0.159,0.09,0.338,0.23,0.565,0.303c0.194,0.064,0.41,0.1,0.629,0.13c0.213,0.029,0.433-0.02,0.641-0.03    c0.218-0.01,0.429-0.025,0.622-0.059c0.224-0.04,0.426-0.086,0.598-0.13c0.147-0.038,0.266-0.07,0.361-0.101    c0.069,0.032,0.137,0.064,0.205,0.096c0.436,0.21,0.878,0.397,1.297,0.535c0.484,0.162,0.921,0.308,1.271,0.479    c0.475,0.222,0.765,0.486,0.928,0.634c0.148,0.28,0.302,0.558,0.461,0.836c-0.017-0.017-0.029-0.031-0.047-0.048    c-0.189-0.177-0.423-0.382-0.723-0.546c-0.258-0.141-0.566-0.236-0.893-0.28c-0.317-0.044-0.647,0.009-0.936,0.087    c-0.303,0.08-0.591,0.147-0.843,0.225c-0.29,0.093-0.555,0.14-0.794,0.16c-0.357,0.03-0.633,0.019-0.766,0.049    c-0.042-0.029-0.074-0.039-0.096-0.024c-0.035,0.021,0.099,0.392,0.472,0.861c0.181,0.226,0.388,0.512,0.692,0.735    c0.261,0.191,0.571,0.35,0.898,0.48c0.317,0.127,0.668,0.152,0.999,0.186c0.346,0.037,0.689,0.039,1.006-0.009    c0.367-0.055,0.696-0.161,0.963-0.28c0.385-0.174,0.64-0.356,0.748-0.467c0.572,0.898,1.201,1.777,1.89,2.62    c1.125,1.379,2.422,2.635,3.815,3.759c-0.217,0.003-0.74,0.081-1.457,0.11c-0.457,0.018-0.989-0.001-1.558-0.062    c-0.074-0.008-0.153-0.021-0.229-0.029c-0.008-0.025-0.009-0.045-0.02-0.072c-0.028-0.067-0.058-0.147-0.103-0.223    c-0.039-0.066-0.1-0.119-0.148-0.186c-0.046-0.064-0.102-0.121-0.153-0.181c-0.053-0.062-0.076-0.148-0.131-0.2    c-0.03-0.029-0.058-0.047-0.087-0.072c0.038-0.01,0.105-0.067,0.175-0.191c0.084-0.151,0.163-0.409,0.119-0.724    c-0.037-0.3-0.196-0.675-0.548-0.91c-0.272-0.184-0.622-0.242-0.964-0.2c0.031-0.029,0.059-0.068,0.075-0.131    c0.023-0.083,0.016-0.229-0.077-0.335c-0.08-0.093-0.218-0.128-0.348-0.114c-0.136,0.015-0.232,0.081-0.31,0.172    c-0.081,0.09-0.16,0.229-0.13,0.36c0.029,0.132,0.106,0.216,0.184,0.267c-0.159,0.108-0.295,0.251-0.391,0.417    c-0.216,0.329-0.232,0.825-0.011,1.133c0.235,0.364,0.626,0.544,0.937,0.576c0.328,0.038,0.583-0.036,0.741-0.109    c0.087-0.041,0.145-0.082,0.178-0.118c0.007,0.014,0.013,0.026,0.02,0.04c0.033,0.063,0.034,0.167,0.082,0.241    c0.042,0.063,0.098,0.12,0.147,0.186c0.047,0.063,0.142,0.088,0.193,0.148c0.049,0.059,0.092,0.12,0.141,0.172    c-0.288-0.043-0.58-0.096-0.871-0.172c-0.498-0.13-0.996-0.294-1.469-0.5c-0.111-0.048-0.212-0.107-0.319-0.161    c-0.009-0.021-0.016-0.042-0.027-0.065c-0.038-0.083-0.078-0.182-0.133-0.279c-0.047-0.084-0.116-0.16-0.17-0.249    c-0.052-0.086-0.112-0.167-0.167-0.251c-0.056-0.088-0.077-0.194-0.132-0.272c-0.064-0.09-0.126-0.173-0.186-0.241    c-0.009-0.01-0.018-0.017-0.027-0.026c0.034-0.002,0.072-0.006,0.123-0.025c0.123-0.047,0.29-0.166,0.407-0.382    c0.113-0.201,0.172-0.526,0.032-0.822c-0.116-0.252-0.353-0.452-0.642-0.546c-0.036-0.012-0.074-0.014-0.111-0.021    c0.02-0.038,0.035-0.085,0.039-0.145c0.006-0.102-0.016-0.243-0.134-0.355c-0.105-0.098-0.262-0.121-0.396-0.105    c-0.132,0.014-0.258,0.084-0.348,0.194c-0.091,0.103-0.182,0.289-0.118,0.444c0.032,0.08,0.085,0.139,0.142,0.182    c-0.213,0.172-0.36,0.411-0.381,0.667c-0.032,0.336,0.141,0.65,0.342,0.796c0.208,0.164,0.43,0.194,0.568,0.172    c0.076-0.013,0.127-0.037,0.158-0.064c0.012,0.053,0.031,0.117,0.058,0.196c0.03,0.087,0.024,0.213,0.075,0.319    c0.043,0.091,0.105,0.179,0.159,0.273c0.053,0.091,0.159,0.149,0.218,0.234c0.01,0.014,0.019,0.027,0.029,0.041    c-0.146-0.084-0.294-0.169-0.436-0.247c-0.5-0.283-0.964-0.546-1.374-0.778c-0.351-0.196-0.622-0.377-0.819-0.535    c0.029-0.035,0.061-0.077,0.098-0.134c0.095-0.154,0.226-0.388,0.283-0.721c0.053-0.317,0.021-0.755-0.298-1.105    c-0.136-0.149-0.34-0.254-0.551-0.287c-0.212-0.034-0.424-0.001-0.618,0.062c-0.155,0.052-0.297,0.133-0.428,0.228    c-0.008-0.034-0.017-0.068-0.034-0.107c-0.042-0.091-0.097-0.242-0.252-0.309c-0.128-0.055-0.275-0.053-0.415-0.019    c-0.138,0.038-0.233,0.152-0.324,0.295c-0.018,0.03-0.032,0.061-0.041,0.091c-0.041,0.13-0.001,0.269,0.08,0.365    c0.102,0.115,0.197,0.159,0.282,0.197c0.055,0.031,0.138,0.044,0.211,0.035c-0.195,0.33-0.285,0.781-0.097,1.141    c0.212,0.425,0.621,0.65,0.97,0.688c0.366,0.041,0.645-0.079,0.801-0.186c0.066-0.046,0.109-0.089,0.14-0.128    c0.179,0.219,0.472,0.468,0.845,0.715c0.388,0.258,0.81,0.598,1.316,0.901c0.437,0.261,0.921,0.512,1.431,0.739    c0.062,0.028,0.128,0.05,0.191,0.075c-0.071,0.017-0.142,0.035-0.207,0.051c-0.148,0.039-0.301,0.095-0.463,0.129    c-0.156,0.032-0.314,0.069-0.472,0.094c-0.165,0.024-0.329,0.005-0.48,0.021c-0.161,0.017-0.315,0.033-0.479,0.051    c-0.114,0.013-0.209,0.031-0.289,0.053c0.035-0.117,0.044-0.461-0.258-0.831c-0.171-0.21-0.473-0.469-0.881-0.458    c-0.339,0.006-0.677,0.169-0.924,0.434c-0.084,0.092-0.14,0.202-0.184,0.317c-0.008-0.013-0.013-0.024-0.022-0.038    c-0.023-0.036-0.041-0.078-0.066-0.126c-0.023-0.047-0.097-0.129-0.18-0.159c-0.022-0.009-0.049-0.016-0.076-0.019    c-0.089-0.013-0.199,0.017-0.27,0.057c-0.07,0.038-0.133,0.089-0.186,0.147c-0.106,0.116-0.109,0.277-0.119,0.412    c-0.012,0.144,0.022,0.306,0.129,0.416c0.121,0.123,0.27,0.163,0.39,0.159c0.261-0.01,0.368-0.186,0.311-0.222    c-0.053-0.044-0.171-0.011-0.286-0.071c-0.057-0.025-0.106-0.081-0.123-0.124c-0.013-0.03-0.04-0.072-0.03-0.127    c0.01-0.051,0.027-0.11,0.063-0.15c0.018-0.021,0.045-0.029,0.067-0.033c0.021-0.001,0.01,0.012,0.013,0.007l0.001-0.004    c0.007,0-0.005-0.019,0.027,0.001c0.028,0.019,0.057,0.038,0.088,0.059c0.071,0.046,0.139,0.082,0.201,0.1    c-0.014,0.134-0.012,0.27,0.022,0.402c0.106,0.394,0.445,0.599,0.73,0.69c0.348,0.109,0.699,0.072,0.959-0.04    c0.395-0.177,0.578-0.431,0.628-0.564c0.074,0.016,0.157,0.031,0.258,0.045c0.148,0.019,0.325,0.087,0.517,0.084    c0.166,0,0.34-0.027,0.518-0.048c0.172-0.022,0.333-0.111,0.498-0.152c0.172-0.043,0.343-0.082,0.496-0.142    c0.178-0.066,0.336-0.143,0.467-0.217c0.027-0.016,0.048-0.029,0.073-0.044c0.298,0.089,0.601,0.164,0.898,0.237    c0.54,0.135,1.08,0.229,1.593,0.264c0.119,0.008,0.235,0.013,0.351,0.016c-0.061,0.035-0.132,0.084-0.214,0.145    c-0.101,0.073-0.224,0.161-0.32,0.23c-0.098,0.075-0.19,0.168-0.298,0.246c-0.108,0.078-0.209,0.151-0.313,0.226    c-0.112,0.073-0.242,0.109-0.345,0.173c-0.105,0.068-0.208,0.134-0.326,0.21c-0.196,0.133-0.314,0.265-0.279,0.356    c0.014,0.036,0.126,0.022,0.296-0.022c-0.031,0.064-0.013,0.263-0.189,0.413c-0.087,0.073-0.23,0.101-0.371,0.076    c-0.117-0.019-0.251-0.07-0.359-0.18c-0.101-0.102-0.201-0.24-0.221-0.348c-0.012-0.055,0.005-0.111,0.028-0.138    c0.023-0.026,0.045-0.039,0.084-0.061c0.095-0.055,0.263-0.061,0.402-0.052c0.289,0.017,0.504,0.07,0.555-0.016    c0.024-0.037-0.146-0.203-0.492-0.31c-0.162-0.043-0.378-0.152-0.662-0.045c-0.118,0.047-0.243,0.153-0.306,0.293    c-0.009,0.02-0.009,0.04-0.016,0.061c-0.011-0.04-0.077-0.085-0.216-0.121c-0.073-0.017-0.207-0.077-0.347,0.005    c-0.118,0.073-0.185,0.2-0.213,0.327c-0.03,0.131,0.055,0.258,0.108,0.347c0.056,0.1,0.133,0.183,0.227,0.228    c0.096,0.048,0.22,0.062,0.3,0.029c0.025-0.009,0.043-0.017,0.059-0.027c0.112-0.087,0.146-0.156,0.149-0.206    c0.083,0.129,0.194,0.225,0.293,0.322c0.159,0.151,0.371,0.271,0.598,0.281c0.255,0.014,0.501-0.099,0.626-0.278    c0.126-0.181,0.131-0.368,0.097-0.483c-0.022-0.073-0.053-0.113-0.081-0.132c0.022-0.006,0.041-0.011,0.065-0.018    c0.116-0.035,0.274-0.037,0.415-0.103c0.122-0.056,0.24-0.136,0.365-0.212c0.12-0.074,0.202-0.203,0.31-0.288    c0.112-0.089,0.227-0.173,0.32-0.268c0.109-0.108,0.201-0.218,0.272-0.317c0.111-0.155,0.182-0.274,0.187-0.34    c0.387,0.004,0.75-0.016,1.07-0.053c0.817-0.098,1.367-0.26,1.505-0.344c0.651,0.522,1.321,1.019,2.007,1.481    c1.067,0.722,2.177,1.357,3.304,1.907c-0.138,0.076-0.411,0.299-0.795,0.571c-0.252,0.178-0.556,0.367-0.891,0.556    c-0.213,0.12-0.44,0.243-0.676,0.358c-0.039-0.085-0.114-0.193-0.239-0.307c-0.113-0.103-0.257-0.215-0.429-0.303    c-0.149-0.076-0.32-0.118-0.488-0.169c-0.162-0.049-0.329-0.078-0.491-0.108c-0.168-0.031-0.323-0.097-0.477-0.117    c-0.178-0.023-0.345-0.039-0.488-0.044c-0.065-0.002-0.123,0-0.177,0.003c0.013-0.017,0.027-0.036,0.04-0.06    c0.059-0.111,0.097-0.316-0.01-0.539c-0.101-0.211-0.331-0.409-0.633-0.457c-0.259-0.042-0.527,0.041-0.755,0.175    c-0.085,0.047-0.166,0.119-0.239,0.201c-0.029-0.046-0.074-0.101-0.141-0.16c-0.069-0.057-0.152-0.193-0.357-0.197    c-0.184,0.001-0.345,0.139-0.416,0.286c-0.079,0.146-0.019,0.341,0.05,0.461c0.069,0.135,0.179,0.232,0.301,0.276    c0.13,0.047,0.253,0.034,0.349,0.005c0.024,0.23,0.129,0.454,0.317,0.584c0.27,0.187,0.589,0.194,0.816,0.104    c0.236-0.094,0.36-0.262,0.408-0.382c0.015-0.04,0.014-0.066,0.017-0.096c0.078,0.035,0.205,0.075,0.375,0.125    c0.137,0.041,0.289,0.135,0.463,0.177c0.151,0.037,0.315,0.058,0.476,0.094c0.155,0.034,0.323,0.011,0.473,0.051    c0.156,0.041,0.302,0.099,0.437,0.149c0.157,0.059,0.296,0.125,0.413,0.186c0.099,0.053,0.174,0.103,0.237,0.145    c-0.029,0.013-0.055,0.028-0.084,0.04c-0.318,0.135-0.648,0.26-0.981,0.354c-0.347,0.099-0.7,0.133-1.025,0.188    c-0.378,0.063-0.732,0.097-1.037,0.118c-0.253,0.018-0.47,0.031-0.642,0.047c0.014-0.03,0.028-0.065,0.038-0.107    c0.042-0.177,0.009-0.472-0.217-0.728c-0.22-0.25-0.604-0.398-0.999-0.393c-0.339,0.005-0.701,0.101-1.023,0.327    c-0.312,0.215-0.526,0.609-0.491,1.015c0.006,0.101,0.031,0.196,0.066,0.285c-0.025-0.004-0.051-0.008-0.078-0.013    c-0.066-0.012-0.136-0.041-0.203-0.068c-0.058-0.023-0.122-0.035-0.175-0.072c-0.024-0.012-0.035-0.026-0.047-0.038    c0.009-0.01,0.024-0.018,0.062-0.021c0.107-0.006,0.257,0,0.307-0.085c0.021-0.037-0.028-0.127-0.202-0.23    c-0.045-0.023-0.095-0.057-0.167-0.076c-0.078-0.019-0.166-0.016-0.245,0.023c-0.068,0.035-0.134,0.089-0.182,0.177    c-0.049,0.085-0.064,0.212-0.034,0.309c0.067,0.199,0.225,0.223,0.308,0.278c0.098,0.057,0.2,0.105,0.303,0.118    c0.119,0.015,0.23,0.005,0.318-0.024c0.063-0.02,0.11-0.044,0.15-0.069c0.139,0.197,0.339,0.342,0.538,0.404    c0.409,0.139,0.81,0.068,1.096-0.064c0.303-0.138,0.489-0.349,0.574-0.509c0.064-0.121,0.079-0.211,0.065-0.257    c0.181,0.041,0.49,0.084,0.889,0.101c0.317,0.013,0.695,0.059,1.099,0.011c0.348-0.041,0.713-0.123,1.08-0.223    c0.354-0.095,0.686-0.275,1.016-0.423c0.345-0.153,0.678-0.319,0.972-0.506c0.045-0.029,0.083-0.059,0.127-0.088    c0.02,0.102,0.034,0.231-0.004,0.387c-0.037,0.164-0.139,0.337-0.272,0.52c-0.117,0.159-0.236,0.34-0.387,0.498    c-0.144,0.152-0.294,0.305-0.455,0.44c-0.169,0.14-0.366,0.231-0.532,0.341c-0.194,0.127-0.381,0.235-0.545,0.323    c-0.148,0.081-0.27,0.151-0.364,0.213c-0.001-0.126-0.061-0.351-0.311-0.558c-0.167-0.145-0.477-0.28-0.785-0.178    c-0.258,0.08-0.502,0.301-0.597,0.598c-0.032,0.1-0.034,0.2-0.025,0.299c-0.004-0.002-0.006-0.005-0.01-0.007    c-0.087-0.043-0.213-0.125-0.366-0.093c-0.124,0.029-0.263,0.113-0.357,0.279c-0.049,0.089-0.047,0.197-0.011,0.283    c0.026,0.063,0.065,0.115,0.107,0.164c0.059,0.067,0.109,0.103,0.147,0.132c0.044,0.031,0.089,0.058,0.137,0.078    c0.11,0.045,0.226,0.065,0.328,0.054c0.219-0.023,0.321-0.152,0.273-0.199c-0.046-0.053-0.155-0.043-0.263-0.096    c-0.055-0.024-0.112-0.067-0.171-0.112c-0.036-0.023-0.055-0.036-0.082-0.053l-0.041-0.029c-0.008-0.006-0.006-0.005-0.008-0.009    l-0.004-0.012c-0.002-0.005-0.003-0.012,0-0.018c0.001-0.008,0.049,0.002,0.078-0.015c0.037-0.02,0.087-0.032,0.135-0.039    c0.056-0.011,0.119-0.014,0.179-0.022c0.032,0.078,0.07,0.152,0.115,0.22c0.163,0.245,0.428,0.385,0.682,0.41    c0.295,0.027,0.576-0.074,0.743-0.258c0.176-0.19,0.195-0.417,0.176-0.541c-0.005-0.034-0.014-0.05-0.022-0.074    c0.115-0.018,0.266-0.053,0.447-0.113c0.19-0.06,0.432-0.105,0.658-0.229c0.195-0.107,0.385-0.248,0.574-0.398    c0.182-0.146,0.312-0.351,0.463-0.522c0.159-0.178,0.307-0.359,0.422-0.551c0.134-0.223,0.228-0.47,0.234-0.699    c0.008-0.236-0.061-0.411-0.137-0.521c0.221-0.157,0.426-0.315,0.593-0.465c0.389-0.351,0.631-0.634,0.69-0.757    c0.947,0.459,1.906,0.857,2.863,1.19c-0.171,0.024-0.356,0.057-0.552,0.122c-0.213,0.071-0.424,0.186-0.636,0.304    c-0.205,0.114-0.397,0.257-0.576,0.408c-0.186,0.156-0.383,0.299-0.525,0.475c-0.165,0.203-0.293,0.409-0.384,0.594    c-0.189,0.387-0.198,0.676-0.109,0.703c0.005,0.002,0.015-0.01,0.022-0.014c-0.018,0.019-0.03,0.039-0.027,0.058    c0.007,0.045,0.296,0.058,0.739,0.016c0.215-0.019,0.477-0.007,0.747-0.068c0.233-0.052,0.473-0.134,0.717-0.22    c0.235-0.082,0.446-0.233,0.669-0.339c0.231-0.111,0.457-0.225,0.658-0.351c0.233-0.147,0.446-0.314,0.593-0.497    c0.252-0.305,0.299-0.592,0.274-0.693c2.003,0.561,3.933,0.896,5.695,1.084c-0.096,0.141-0.221,0.333-0.379,0.557    c-0.167,0.232-0.373,0.493-0.615,0.756c-0.201,0.232-0.422,0.475-0.67,0.699c-0.185,0.163-0.38,0.32-0.579,0.469    c0.025-0.054,0.02-0.148-0.024-0.264c-0.029-0.075-0.065-0.166-0.127-0.247c-0.052-0.072-0.131-0.124-0.201-0.187    c-0.069-0.06-0.149-0.108-0.228-0.153c-0.082-0.046-0.15-0.122-0.236-0.148c-0.05-0.016-0.093-0.016-0.141-0.023    c0.015-0.127-0.007-0.326-0.141-0.527c-0.126-0.196-0.376-0.381-0.686-0.414c-0.267-0.035-0.57,0.078-0.78,0.276    c-0.062,0.055-0.114,0.122-0.16,0.192c-0.009-0.005-0.016-0.01-0.026-0.015c-0.083-0.039-0.199-0.119-0.341-0.101    c-0.119,0.018-0.251,0.073-0.365,0.215c-0.11,0.145-0.071,0.339,0.003,0.463c0.097,0.152,0.165,0.194,0.263,0.254    c0.111,0.058,0.242,0.082,0.351,0.059c0.002,0,0.003-0.001,0.005-0.002c0.016,0.05,0.03,0.1,0.057,0.147    c0.079,0.142,0.211,0.253,0.348,0.308c0.319,0.126,0.627,0.055,0.83-0.046c0.303-0.167,0.449-0.348,0.486-0.46    c0.038,0.037,0.077,0.079,0.122,0.106c0.06,0.033,0.128,0.06,0.19,0.1c0.058,0.039,0.151,0.033,0.211,0.078    c0.06,0.047,0.111,0.103,0.163,0.15c0.053,0.047,0.105,0.093,0.168,0.149c0.091,0.08,0.147,0.141,0.202,0.133    c-0.04,0.029-0.079,0.062-0.12,0.09c-0.278,0.187-0.576,0.324-0.848,0.463c-0.312,0.171-0.616,0.298-0.877,0.406    c-0.268,0.108-0.492,0.195-0.649,0.268c-0.013-0.127-0.116-0.367-0.432-0.562c-0.209-0.126-0.525-0.198-0.841-0.111    c-0.269,0.074-0.532,0.265-0.684,0.553c-0.047,0.09-0.074,0.195-0.088,0.304c-0.049-0.031-0.122-0.061-0.222-0.072    c-0.097-0.012-0.237-0.049-0.37,0.015c-0.038,0.018-0.075,0.042-0.11,0.071c-0.056,0.044-0.089,0.091-0.131,0.142    c-0.028,0.044-0.036,0.099-0.061,0.15c-0.065,0.173,0.106,0.319,0.231,0.398c0.137,0.092,0.239,0.124,0.367,0.128    c0.141,0,0.267-0.051,0.35-0.116c0.062-0.049,0.1-0.097,0.128-0.143c0.016,0.017,0.031,0.035,0.048,0.049    c0.264,0.216,0.525,0.306,0.797,0.337c0.316,0.026,0.635-0.058,0.844-0.239c0.213-0.181,0.288-0.415,0.28-0.566    c-0.003-0.069-0.019-0.118-0.039-0.152c0.173-0.022,0.411-0.066,0.695-0.141c0.285-0.079,0.638-0.139,0.98-0.303    c0.299-0.134,0.594-0.321,0.891-0.515c0.285-0.191,0.521-0.451,0.77-0.68c0.257-0.241,0.506-0.482,0.705-0.74    c0.238-0.292,0.422-0.589,0.565-0.85c0.151-0.284,0.254-0.522,0.31-0.689c0.404,0.041,0.802,0.078,1.185,0.105    c2.376,0.165,4.346,0.042,5.702-0.142c0.678-0.097,1.205-0.192,1.558-0.285c0.354-0.086,0.54-0.139,0.536-0.156    C47.027,64.639,46.273,64.814,44.921,64.956z M33.796,61.62c-0.226-0.004-0.479-0.145-0.593-0.312    c-0.102-0.131-0.12-0.372-0.029-0.601c0.081-0.211,0.201-0.449,0.416-0.563c0.216-0.117,0.472-0.106,0.678-0.023    c0.12,0.046,0.219,0.122,0.289,0.209c0.059,0.07,0.086,0.174,0.094,0.285c0.015,0.23-0.024,0.446-0.032,0.595    c-0.002,0.024-0.002,0.043-0.003,0.064c-0.098-0.043-0.171-0.049-0.2-0.014c-0.018,0.022,0.027,0.091,0.106,0.195    C34.42,61.491,34.176,61.629,33.796,61.62z M23.166,50.95c0.027,0.013,0.07,0.024,0.113,0.055    c-0.023,0.009-0.047,0.018-0.067,0.025c-0.023,0.008-0.038,0.012-0.059,0.017c-0.003-0.044-0.013-0.086-0.022-0.129    C23.143,50.93,23.155,50.944,23.166,50.95z M21.346,47.334c0.004-0.068,0.076-0.105,0.098-0.12    c0.018-0.016,0.008-0.004,0.011-0.008l0,0.001c-0.014,0,0.067-0.039,0.099-0.007c0.038,0.032,0.057,0.084,0.074,0.125    c0.021,0.05,0.024,0.094,0.021,0.133c-0.012,0.083-0.044,0.105-0.052,0.163c-0.075-0.08-0.157-0.151-0.251-0.205    C21.345,47.39,21.345,47.363,21.346,47.334z M18.351,49.891c-0.012,0.003-0.02,0.02-0.024,0.047    c-0.137-0.038-0.387-0.11-0.62-0.363c-0.163-0.183-0.226-0.456-0.202-0.721c0.016-0.232,0.112-0.487,0.296-0.658    c0.167-0.158,0.404-0.312,0.631-0.251c0.238,0.063,0.424,0.277,0.495,0.498c0.09,0.266,0.049,0.556-0.033,0.779    c-0.158,0.4-0.392,0.628-0.424,0.722C18.429,49.906,18.388,49.882,18.351,49.891z M17.379,44.31    c0.046-0.023,0.118,0.016,0.14,0.025c0.022,0.005,0.052,0.003,0.08,0.022c0.021,0.015,0.088-0.001,0.106,0.034    c0.017,0.033,0.011,0.074,0.01,0.104c-0.002,0.036-0.009,0.062-0.031,0.095c-0.032,0.045-0.067,0.068-0.095,0.096    c-0.021-0.032-0.039-0.066-0.064-0.095c-0.072-0.085-0.16-0.15-0.253-0.204C17.3,44.363,17.331,44.333,17.379,44.31z     M16.226,44.887c0.135-0.127,0.339-0.169,0.529-0.17c0.164-0.006,0.341,0.044,0.435,0.165c0.094,0.111,0.198,0.287,0.143,0.442    c-0.054,0.156-0.225,0.259-0.405,0.326c-0.213,0.077-0.444,0.118-0.61,0.109c-0.243-0.014-0.361-0.126-0.434-0.195    c0.048-0.096,0.071-0.163,0.028-0.198c0,0-0.001,0-0.002-0.001C15.957,45.272,16.032,45.074,16.226,44.887z M14.749,43.671    c-0.094-0.233-0.084-0.543,0.01-0.789c0.073-0.207,0.264-0.395,0.511-0.453c0.222-0.06,0.497-0.048,0.706,0.127    c0.213,0.177,0.308,0.44,0.308,0.691c0.002,0.296-0.123,0.561-0.29,0.732c-0.254,0.257-0.522,0.327-0.655,0.372    c0-0.044-0.005-0.077-0.026-0.084c-0.019-0.006-0.045,0.013-0.076,0.045C15.143,44.225,14.902,44.041,14.749,43.671z     M15.198,33.554c0.015-0.008,0.043,0.016,0.042,0.02c0.021,0.033,0.028,0.04,0.048,0.052c0.028,0.012,0.1,0.034,0.152,0.064    c-0.005,0.002,0.022-0.023,0.045-0.017c0.006,0.001,0.01,0.005,0.01,0.01c0.003,0-0.025,0.082-0.039,0.118    c-0.02,0.05-0.028,0.07-0.049,0.092c-0.018,0.016-0.032,0.021-0.047,0.029c-0.062-0.122-0.144-0.227-0.245-0.309    C15.132,33.592,15.151,33.572,15.198,33.554z M14.23,33.773c0.178-0.049,0.388-0.033,0.55,0.079    c0.142,0.091,0.278,0.251,0.289,0.422c0.014,0.155-0.07,0.324-0.218,0.425c-0.159,0.107-0.338,0.076-0.495,0.024    c-0.189-0.062-0.331-0.196-0.414-0.345c-0.078-0.138-0.115-0.27-0.143-0.381C13.898,33.923,14.037,33.828,14.23,33.773z     M13.302,30.422c0,0,0.006,0.007,0.014,0.009c0.001-0.004,0.034-0.007,0.065,0.001c0.053,0.011,0.121-0.028,0.166-0.001    c0.042,0.026,0.063,0.067,0.08,0.098c0.02,0.039,0.028,0.06,0.027,0.094c-0.007,0.058-0.031,0.088-0.047,0.127    c-0.138-0.081-0.286-0.125-0.438-0.138c0.008-0.045,0.013-0.104,0.032-0.161C13.222,30.394,13.301,30.404,13.302,30.422z     M12.129,32.147c-0.047-0.227,0.028-0.486,0.171-0.684c0.12-0.178,0.321-0.339,0.556-0.392c0.212-0.055,0.481-0.071,0.647,0.073    c0.163,0.134,0.137,0.371,0.046,0.605c-0.099,0.268-0.271,0.485-0.443,0.642c-0.255,0.229-0.496,0.316-0.614,0.375    C12.407,32.677,12.207,32.496,12.129,32.147z M9.351,31.128c0.006-0.03,0.071-0.049,0.09-0.072    c0.013-0.011,0.004-0.005,0.009-0.005l0,0c0.003-0.004-0.025-0.057,0.039-0.047c0.058,0.01,0.096,0.033,0.12,0.042    c0.033,0.015,0.031,0.004,0.056,0.028c0.017,0.018,0.027,0.029,0.036,0.044c-0.066-0.001-0.133-0.004-0.199,0.008    c-0.049,0.008-0.097,0.031-0.145,0.048C9.354,31.16,9.349,31.147,9.351,31.128z M10.08,33.335    c-0.135,0.039-0.348,0.068-0.564-0.018c-0.214-0.083-0.379-0.322-0.434-0.56c-0.055-0.21-0.028-0.493,0.061-0.757    c0.079-0.242,0.183-0.44,0.433-0.489c0.251-0.044,0.49,0.061,0.642,0.239c0.184,0.206,0.253,0.481,0.239,0.711    c-0.035,0.492-0.302,0.761-0.235,0.806c0.007,0.006,0.02,0.005,0.036,0.001c0,0.003-0.001,0.005,0,0.009    C10.219,33.289,10.166,33.31,10.08,33.335z M6.662,35.295c-0.016-0.068,0.026-0.157,0.034-0.214    c0.006-0.052,0.009-0.096,0.033-0.128c0.016-0.022,0.015-0.097,0.07-0.119c0.053-0.02,0.107-0.011,0.147-0.003    c0.049,0.008,0.099,0.038,0.14,0.073c0.02,0.017,0.034,0.035,0.048,0.052c-0.158,0.076-0.296,0.185-0.401,0.296    c-0.021,0.023-0.042,0.046-0.063,0.069C6.667,35.311,6.665,35.305,6.662,35.295z M7.646,37.033    c-0.038-0.014-0.106-0.028-0.203-0.047c-0.144-0.03-0.356-0.075-0.546-0.208c-0.189-0.132-0.29-0.396-0.236-0.591    c0.034-0.182,0.203-0.438,0.39-0.626c0.176-0.176,0.371-0.345,0.598-0.308c0.232,0.038,0.429,0.228,0.505,0.433    c0.098,0.246,0.06,0.526-0.028,0.73c-0.1,0.217-0.233,0.366-0.336,0.469c-0.013-0.014-0.025-0.022-0.038-0.02    c-0.01,0-0.02,0.031-0.027,0.084C7.687,36.984,7.661,37.011,7.646,37.033z M5.41,37.824c-0.006-0.013-0.013-0.023-0.014-0.041    c0.001-0.031,0.06-0.07,0.076-0.126c0.013-0.058,0.019-0.118,0.032-0.128c0.003,0.001-0.019-0.062,0.019-0.077    c0.035-0.012,0.07-0.001,0.093,0.002c0.032,0.005,0.068,0.025,0.101,0.05c0.015,0.012,0.022,0.024,0.033,0.037    C5.621,37.615,5.507,37.711,5.41,37.824z M6.675,38.878c-0.02,0.013-0.012,0.066,0.022,0.142c-0.127,0.037-0.334,0.094-0.606,0.04    c-0.206-0.044-0.366-0.231-0.446-0.424c-0.071-0.165-0.053-0.343,0.09-0.513c0.128-0.153,0.312-0.321,0.541-0.354    c0.235-0.036,0.455,0.039,0.619,0.17c0.196,0.15,0.294,0.368,0.295,0.559c-0.001,0.241-0.097,0.396-0.172,0.497    C6.87,38.894,6.747,38.832,6.675,38.878z M10.559,35.947c0.016-0.001,0.03-0.015,0.056-0.011c0.02,0.003,0.064-0.044,0.075-0.036    l0.007,0.007c0.006,0.011,0.009,0.021,0.011,0.031c0.001,0.01,0.006,0.011,0.004,0.032c-0.004,0.025-0.009,0.051-0.014,0.08    c-0.003,0.019-0.007,0.036-0.011,0.052c-0.085-0.046-0.174-0.078-0.269-0.096c0.006-0.01,0.008-0.02,0.017-0.03    C10.462,35.941,10.54,35.946,10.559,35.947z M9.503,37.519c-0.037-0.215,0.051-0.459,0.174-0.67    c0.103-0.183,0.276-0.359,0.472-0.406c0.164-0.05,0.39-0.024,0.533,0.152c0.14,0.179,0.177,0.432,0.152,0.651    c-0.027,0.26-0.148,0.485-0.294,0.635c-0.185,0.189-0.376,0.266-0.502,0.313c-0.004-0.169-0.004-0.281-0.064-0.293    c-0.052-0.011-0.12,0.072-0.18,0.219C9.718,38.022,9.561,37.834,9.503,37.519z M12.789,41.299    c0.009-0.034,0.019-0.071,0.029-0.111c0.008,0.02,0.016,0.04,0.032,0.048c-0.022,0.025-0.042,0.048-0.06,0.07    C12.79,41.304,12.789,41.302,12.789,41.299z M13.294,39.821c0.097-0.265,0.203-0.545,0.331-0.823    c0.128-0.264,0.21-0.559,0.361-0.815c0.151-0.268,0.327-0.514,0.485-0.748c0.185-0.271,0.37-0.512,0.531-0.718    c0.157-0.198,0.294-0.355,0.391-0.475c-0.037,0.14-0.066,0.418-0.129,0.781c-0.047,0.253-0.115,0.544-0.212,0.849    c-0.075,0.265-0.162,0.547-0.281,0.823c-0.118,0.263-0.246,0.527-0.396,0.774c-0.159,0.255-0.357,0.474-0.53,0.686    c-0.194,0.253-0.399,0.466-0.576,0.649c-0.063,0.064-0.121,0.122-0.176,0.178c0.036-0.049,0.074-0.102,0.116-0.161    c0.092-0.13,0.242-0.257,0.35-0.425c0.094-0.145,0.179-0.308,0.277-0.468c0.093-0.153,0.136-0.339,0.227-0.493    c0.099-0.156,0.193-0.306,0.286-0.453c0.098-0.16,0.19-0.309,0.279-0.454c0.167-0.274,0.294-0.439,0.241-0.487    c-0.05-0.046-0.242,0.07-0.477,0.311c-0.114,0.116-0.246,0.255-0.37,0.418c-0.107,0.141-0.195,0.306-0.297,0.465    c-0.099,0.153-0.186,0.316-0.276,0.473c-0.093,0.163-0.217,0.304-0.296,0.457c-0.008,0.016-0.015,0.031-0.023,0.046    C13.185,40.087,13.242,39.958,13.294,39.821z M6.527,43.989c0.011-0.024,0.025-0.081,0.053-0.116    c0.024-0.031,0.014-0.101,0.051-0.121c0.033-0.018,0.075-0.013,0.101-0.012c0.034,0.003,0.049,0.002,0.077,0.02    c0.014,0.011,0.019,0.022,0.027,0.033c-0.138,0.059-0.263,0.15-0.365,0.262c0.002-0.01,0.002-0.021,0.009-0.03    C6.496,44.006,6.519,44.007,6.527,43.989z M7.175,45.365c-0.193-0.058-0.347-0.224-0.444-0.404    c-0.087-0.156-0.113-0.325-0.02-0.486c0.082-0.15,0.215-0.323,0.42-0.362c0.208-0.043,0.426,0.016,0.585,0.115    c0.189,0.112,0.256,0.299,0.279,0.496c0.025,0.27-0.038,0.46-0.067,0.574c-0.084-0.067-0.142-0.098-0.167-0.075    c-0.011,0.011,0.021,0.083,0.092,0.201C7.785,45.404,7.524,45.462,7.175,45.365z M5.484,47.92    c-0.037-0.03-0.062-0.079-0.066-0.105c-0.006-0.022-0.027-0.046-0.022-0.062c0.003-0.005,0.004-0.008,0.004-0.013    c0.001-0.004,0.002-0.007,0.005-0.01c0.009-0.009,0.046,0.017,0.058,0.011c0.013-0.011,0.051-0.015,0.091-0.013    c0.02,0.001,0.045,0.001,0.068,0.002c-0.011,0.097-0.013,0.197-0.004,0.297C5.58,47.992,5.53,47.96,5.484,47.92z M7.075,48.641    c-0.261-0.004-0.622-0.063-0.785-0.215c-0.162-0.133-0.268-0.401-0.227-0.662c0.033-0.247,0.131-0.518,0.369-0.666    c0.243-0.153,0.537-0.179,0.786-0.111c0.296,0.076,0.53,0.273,0.661,0.481c0.238,0.387,0.183,0.725,0.21,0.819    c-0.159-0.039-0.272-0.048-0.304,0.005c-0.009,0.015,0.021,0.052,0.069,0.098C7.753,48.458,7.514,48.645,7.075,48.641z     M10.125,45.409c-0.016-0.054-0.285-0.149-0.514-0.435c-0.118-0.152-0.132-0.371-0.095-0.553c0.029-0.158,0.118-0.28,0.291-0.328    c0.155-0.045,0.355-0.069,0.53,0.048c0.174,0.117,0.307,0.304,0.381,0.479c0.085,0.212,0.089,0.4-0.012,0.52    c-0.109,0.144-0.257,0.23-0.35,0.269c-0.02,0.009-0.03,0.011-0.047,0.017c-0.01-0.102-0.023-0.167-0.063-0.172    C10.21,45.249,10.166,45.308,10.125,45.409z M15.677,52.697c-0.261,0.078-0.573,0.139-0.909,0.168    c-0.29,0.026-0.6,0.045-0.913,0.004c-0.3-0.037-0.602-0.104-0.885-0.213c-0.296-0.113-0.55-0.293-0.791-0.45    c-0.28-0.183-0.518-0.387-0.71-0.573c-0.167-0.162-0.302-0.307-0.411-0.42c0.144,0.04,0.334,0.076,0.566,0.09    c0.261,0.018,0.591,0.041,0.917-0.043c0.28-0.069,0.554-0.177,0.828-0.244c0.262-0.065,0.515-0.157,0.779-0.126    c0.272,0.032,0.529,0.13,0.763,0.24c0.272,0.127,0.509,0.285,0.712,0.427c0.115,0.082,0.214,0.156,0.304,0.223    c-0.107-0.056-0.225-0.107-0.359-0.139c-0.163-0.039-0.34-0.04-0.515-0.046c-0.17-0.007-0.34,0.01-0.502,0.024    c-0.169,0.014-0.334-0.008-0.483,0.01c-0.155,0.018-0.302,0.035-0.462,0.054c-0.275,0.034-0.468,0.072-0.488,0.168    c-0.009,0.045,0.178,0.122,0.48,0.163c0.146,0.021,0.32,0.082,0.504,0.08c0.158-0.002,0.322-0.024,0.486-0.032    c0.158-0.008,0.311-0.075,0.465-0.074c0.159,0.001,0.312,0.021,0.453,0.039c0.164,0.019,0.309,0.054,0.432,0.092    c0.254,0.077,0.387,0.197,0.438,0.144c0.002-0.002,0-0.008,0.002-0.01c0.033,0.053,0.065,0.106,0.099,0.159    C16.33,52.455,16.059,52.582,15.677,52.697z M16.765,55.93c-0.019-0.037,0.025-0.102,0.038-0.105c0.009-0.004,0,0.001,0.009-0.004    c0.002-0.001,0.001-0.066,0.015-0.068c0.017-0.003,0.027,0.012,0.04,0.015c0.016,0.008,0.031,0.014,0.047,0.044    c0.031,0.056,0.015,0.091,0.054,0.15c0.001,0.003,0.007,0.004,0.009,0.006c-0.052,0.011-0.102,0.026-0.152,0.044    C16.804,55.991,16.781,55.967,16.765,55.93z M17.927,57.853c-0.022,0.02-0.013,0.061,0.01,0.118    c-0.133,0.012-0.437,0.076-0.823-0.012c-0.249-0.061-0.466-0.261-0.598-0.499c-0.118-0.204-0.136-0.442,0.001-0.662    c0.123-0.204,0.321-0.412,0.593-0.464c0.277-0.054,0.566,0.007,0.781,0.138c0.252,0.148,0.403,0.403,0.464,0.639    c0.112,0.438-0.042,0.731-0.042,0.825c-0.021-0.016-0.043-0.039-0.063-0.052C18.127,57.803,17.999,57.79,17.927,57.853z     M14.36,54.72c0.01-0.005-0.003,0.004,0.014-0.015c0.009-0.008,0.016-0.08,0.063-0.088c0.045-0.006,0.075,0.013,0.098,0.024    c0.031,0.015,0.063,0.053,0.082,0.093c0.016,0.032,0.022,0.059,0.027,0.085c-0.076,0.004-0.15,0.017-0.224,0.038    c-0.02-0.009-0.039-0.019-0.058-0.031C14.313,54.79,14.342,54.717,14.36,54.72z M14.748,56.495    c-0.01,0.005-0.015,0.017-0.017,0.032c-0.089-0.025-0.303-0.052-0.493-0.26c-0.121-0.133-0.133-0.329-0.1-0.505    c0.025-0.155,0.108-0.326,0.246-0.41c0.126-0.083,0.312-0.172,0.486-0.12c0.179,0.054,0.324,0.198,0.406,0.348    c0.099,0.175,0.096,0.369,0.043,0.53c-0.093,0.273-0.275,0.384-0.332,0.452C14.898,56.489,14.811,56.461,14.748,56.495z     M10.772,54.53c-0.03-0.002-0.065,0.006-0.096-0.009c-0.041-0.016-0.044-0.041-0.09-0.093c-0.049-0.054-0.106-0.133-0.123-0.18    c0.002-0.013-0.006-0.018-0.003-0.03c0,0,0.002-0.005,0.005-0.006c-0.002,0.004,0.045-0.041,0.093-0.053    c0.055-0.015,0.104,0.026,0.138,0.031c0.043,0.005,0.09,0.026,0.133,0.055c0.041,0.024,0.08,0.055,0.119,0.083    C10.884,54.392,10.825,54.458,10.772,54.53z M11.57,56.216c-0.259-0.06-0.493-0.296-0.601-0.562    c-0.1-0.223-0.074-0.51,0.087-0.761c0.148-0.236,0.358-0.485,0.641-0.584c0.293-0.103,0.586-0.049,0.764,0.132    c0.218,0.212,0.294,0.537,0.278,0.8c-0.03,0.362-0.134,0.641-0.184,0.803c-0.002-0.001-0.004-0.003-0.005-0.004    c-0.199-0.172-0.299-0.292-0.341-0.261c-0.016,0.011,0.03,0.153,0.175,0.354C12.236,56.19,11.952,56.297,11.57,56.216z     M13.148,59.579c-0.217,0.057-0.487,0.045-0.737-0.054c-0.214-0.083-0.436-0.225-0.472-0.419    c-0.044-0.194,0.028-0.441,0.182-0.608c0.165-0.18,0.413-0.25,0.617-0.263c0.241-0.024,0.462,0.085,0.619,0.223    c0.281,0.249,0.348,0.537,0.424,0.62c-0.085,0.031-0.137,0.07-0.14,0.118c-0.001,0.021,0.042,0.043,0.114,0.066    C13.638,59.348,13.445,59.499,13.148,59.579z M16.009,61.103l-0.018-0.007c-0.027-0.017-0.03-0.041-0.045-0.061    c-0.023-0.026-0.059-0.044-0.07-0.076c-0.009-0.031-0.018-0.047-0.014-0.074c0.006-0.031,0.052-0.025,0.046-0.028    c-0.001-0.013,0.024-0.036,0.069-0.055c0.076-0.031,0.166-0.076,0.207-0.144c-0.022,0.098-0.029,0.197-0.012,0.291    c0.012,0.054,0.032,0.1,0.053,0.144C16.166,61.07,16.066,61.126,16.009,61.103z M20.459,62.394    c-0.039-0.028-0.086-0.054-0.098-0.092c-0.01-0.035-0.014-0.051,0-0.09c0.024-0.04,0.057-0.009,0.051-0.014    c0.012-0.014,0.082-0.007,0.148,0.013c0.072,0.019,0.142,0.033,0.204,0.034c-0.039,0.069-0.067,0.143-0.084,0.222    c-0.016-0.001-0.032-0.001-0.048-0.002C20.565,62.458,20.501,62.428,20.459,62.394z M21.696,63.13    c-0.154,0.03-0.329-0.062-0.442-0.164c-0.099-0.081-0.171-0.221-0.153-0.364c0.009-0.117,0.058-0.28,0.22-0.38    c0.161-0.099,0.347-0.134,0.504-0.12c0.183,0.013,0.342,0.111,0.425,0.223c0.139,0.2,0.087,0.379,0.086,0.463    c-0.074,0.014-0.131,0.035-0.164,0.063C22.121,62.859,21.997,63.067,21.696,63.13z M20.322,65.285    c-0.247,0.077-0.555,0.042-0.815-0.069c-0.231-0.093-0.426-0.272-0.433-0.499c-0.015-0.217,0.059-0.501,0.284-0.661    c0.228-0.167,0.532-0.234,0.805-0.252c0.317-0.021,0.604,0.064,0.776,0.215c0.181,0.158,0.245,0.371,0.252,0.506    c0.003,0.056-0.001,0.096-0.004,0.133c-0.175,0.022-0.277,0.051-0.278,0.1c0,0.014,0.044,0.033,0.119,0.053    C20.947,64.877,20.752,65.147,20.322,65.285z M23.4,67.029c-0.119,0.088-0.312,0.118-0.493,0.083    c-0.154-0.029-0.321-0.105-0.402-0.241c-0.08-0.129-0.11-0.309-0.062-0.457c0.049-0.155,0.2-0.237,0.332-0.29    c0.16-0.065,0.315-0.051,0.444,0.016c0.217,0.107,0.321,0.283,0.402,0.35c-0.059,0.05-0.097,0.095-0.086,0.133    c0.004,0.013,0.041,0.017,0.091,0.016C23.597,66.75,23.555,66.914,23.4,67.029z M32.531,66.517    c0.001-0.011-0.004-0.02,0.003-0.031c0.008-0.012,0.063-0.004,0.101-0.017c0.042-0.017,0.089-0.024,0.136-0.031    c-0.02,0.082-0.033,0.166-0.032,0.251c-0.035-0.021-0.069-0.049-0.105-0.083C32.599,66.577,32.514,66.514,32.531,66.517z     M33.906,67.103c-0.172,0.052-0.379,0.001-0.522-0.075c-0.122-0.062-0.2-0.17-0.202-0.339c-0.002-0.146,0.019-0.341,0.154-0.469    c0.137-0.13,0.315-0.179,0.485-0.171c0.2,0.007,0.372,0.095,0.483,0.212c0.107,0.115,0.155,0.229,0.185,0.324    c-0.144,0.015-0.237,0.087-0.242,0.172c-0.003,0.044,0.068,0.073,0.168,0.123C34.312,66.927,34.14,67.027,33.906,67.103z     M30.937,69.54c-0.063,0.011-0.129,0-0.187-0.018c-0.042-0.009-0.127-0.03-0.135-0.045c-0.004-0.009-0.019-0.015-0.015-0.028    c0.001-0.004,0.007-0.006,0.013-0.006c0.006,0.001,0.016,0,0.014,0.009c0.016-0.008,0.032-0.015,0.046-0.026    c0.046-0.037,0.101-0.066,0.153-0.088c0.07-0.034,0.138-0.065,0.195-0.104c0,0.005-0.001,0.009-0.001,0.014    c0.007,0.086,0.035,0.171,0.076,0.249C31.049,69.511,30.996,69.53,30.937,69.54z M32.7,69.535    c-0.156,0.094-0.381,0.075-0.601,0.04c-0.189-0.03-0.433-0.095-0.547-0.205c-0.053-0.053-0.091-0.093-0.113-0.165    c-0.021-0.071-0.014-0.169,0.029-0.253c0.088-0.176,0.273-0.295,0.453-0.358c0.213-0.075,0.428-0.058,0.598,0.007    c0.256,0.1,0.384,0.266,0.461,0.343c-0.1,0.054-0.153,0.099-0.143,0.138c0.004,0.016,0.073,0.021,0.189,0.012    C32.995,69.195,32.937,69.389,32.7,69.535z M23.87,58.107c-0.068-0.27-0.113-0.539-0.144-0.793    c-0.044-0.294-0.054-0.569-0.06-0.805c-0.005-0.313,0.016-0.554,0.012-0.692c0.102,0.094,0.319,0.26,0.571,0.522    c0.176,0.184,0.327,0.442,0.501,0.699c0.151,0.223,0.304,0.466,0.422,0.733c0.113,0.254,0.26,0.509,0.322,0.787    c0.065,0.288,0.09,0.578,0.102,0.849c0.015,0.315-0.005,0.608-0.034,0.858c-0.02,0.172-0.048,0.321-0.073,0.446    c-0.003-0.002-0.006-0.003-0.009-0.005c-0.006-0.055-0.013-0.117-0.022-0.189c-0.015-0.114,0.014-0.26-0.014-0.402    c-0.024-0.122-0.066-0.248-0.097-0.38c-0.03-0.126-0.12-0.239-0.154-0.364c-0.036-0.13-0.062-0.26-0.1-0.379    c-0.044-0.137-0.089-0.263-0.133-0.37c-0.091-0.219-0.151-0.361-0.218-0.343c-0.067,0.018-0.085,0.182-0.066,0.421    c0.009,0.116,0.017,0.252,0.041,0.395c0.021,0.123,0.068,0.248,0.097,0.38c0.029,0.127,0.069,0.253,0.104,0.378    c0.036,0.13,0.035,0.268,0.075,0.386c0.022,0.065,0.045,0.128,0.069,0.187c-0.041-0.052-0.081-0.1-0.126-0.16    c-0.14-0.193-0.256-0.449-0.396-0.706c-0.128-0.219-0.255-0.458-0.362-0.712C24.081,58.605,23.939,58.367,23.87,58.107z     M31.687,64.552c-0.148,0.13-0.35,0.243-0.579,0.363c-0.2,0.104-0.404,0.23-0.628,0.331c-0.215,0.096-0.433,0.194-0.654,0.276    c-0.23,0.086-0.47,0.121-0.684,0.185c-0.249,0.075-0.482,0.139-0.684,0.192c-0.292,0.079-0.513,0.151-0.615,0.222    c0.064-0.08,0.167-0.261,0.335-0.487c0.114-0.153,0.294-0.293,0.455-0.462c0.139-0.146,0.287-0.302,0.458-0.439    c0.162-0.131,0.306-0.302,0.49-0.41c0.191-0.113,0.391-0.199,0.578-0.278c0.217-0.093,0.426-0.162,0.607-0.217    c0.133-0.04,0.243-0.067,0.34-0.091c0.08,0.026,0.16,0.054,0.24,0.079c-0.03,0.006-0.059,0.01-0.09,0.019    c-0.117,0.031-0.23,0.091-0.352,0.137c-0.117,0.045-0.231,0.103-0.343,0.159c-0.116,0.058-0.247,0.083-0.349,0.149    c-0.118,0.075-0.222,0.153-0.305,0.227c-0.173,0.156-0.242,0.313-0.185,0.389c0.029,0.04,0.159-0.022,0.36-0.108    c0.098-0.042,0.237-0.047,0.357-0.1c0.113-0.056,0.207-0.103,0.32-0.159c0.108-0.048,0.193-0.15,0.303-0.198    c0.115-0.045,0.223-0.088,0.334-0.132c0.111-0.05,0.216-0.098,0.329-0.149c0.059-0.029,0.109-0.053,0.154-0.076    c0.077,0.022,0.154,0.045,0.231,0.066C32.043,64.106,31.944,64.334,31.687,64.552z">
	</path>
</svg>
