<svg height="300px" width="300px" fill="#000000" xmlns="http://www.w3.org/2000/svg" xmlns:xlink="http://www.w3.org/1999/xlink" version="1.1" x="0px" y="0px" viewBox="0 0 100 100" enable-background="new 0 0 100 100" xml:space="preserve">
	<g>
		<path fill="none" d="M27.556,47.374c-0.82-2.112-2.331-4.009-4.243-5.216C24.27,44.222,25.732,46.016,27.556,47.374z">
		</path>
		<path fill="none" d="M88.036,46.679c0.264-0.333,0.49-0.705,0.668-1.091c0.047-0.103,0.083-0.229,0.123-0.351   c-0.196,0.177-0.428,0.338-0.591,0.544c-0.273,0.344-0.497,0.732-0.697,1.121c-0.093,0.181-0.18,0.366-0.26,0.553   C87.556,47.222,87.811,46.963,88.036,46.679z">
		</path>
		<path fill="none" d="M39.727,42.988c0.649,1.866,1.861,3.476,3.476,4.614C42.649,45.735,41.369,44.035,39.727,42.988z">
		</path>
		<path fill="none" d="M56.797,52.398c0.554,1.867,1.834,3.567,3.475,4.614C59.624,55.146,58.412,53.536,56.797,52.398z">
		</path>
		<path fill="none" d="M39.727,57.012c1.642-1.047,2.922-2.747,3.476-4.614C41.588,53.536,40.376,55.146,39.727,57.012z">
		</path>
		<path fill="none" d="M7.365,49.974c0.273,0.035,0.552,0.03,0.783,0.013c0.224-0.017,0.441-0.058,0.651-0.116   C8.328,49.82,7.844,49.871,7.365,49.974z">
		</path>
		<path fill="none" d="M18.496,45.894c-0.268-0.472-0.577-0.92-0.937-1.328c-0.148-0.168-0.304-0.338-0.468-0.491c0,0,0,0,0,0   c0.037,0.147,0.07,0.3,0.09,0.349c0.084,0.211,0.179,0.417,0.281,0.619c0.228,0.448,0.493,0.883,0.797,1.285   c0.259,0.342,0.551,0.655,0.859,0.949C18.954,46.798,18.746,46.334,18.496,45.894z">
		</path>
		<path fill="none" d="M12.415,46.81c-0.189-0.357-0.398-0.712-0.65-1.03c-0.15-0.189-0.382-0.347-0.572-0.516   c0.034,0.114,0.063,0.233,0.104,0.323c0.191,0.418,0.442,0.819,0.735,1.171c0.208,0.25,0.438,0.481,0.686,0.69   C12.625,47.233,12.525,47.019,12.415,46.81z">
		</path>
		<path fill="none" d="M63.413,52.084c1.049,2.527,3.233,4.695,5.742,5.789C68.162,55.228,66.051,53.098,63.413,52.084z">
		</path>
		<path fill="none" d="M11.964,53.321c-0.264,0.333-0.49,0.705-0.668,1.091c-0.047,0.103-0.083,0.229-0.123,0.351   c0.196-0.177,0.428-0.338,0.591-0.544c0.273-0.344,0.497-0.732,0.697-1.121c0.093-0.181,0.18-0.366,0.26-0.553   C12.444,52.778,12.189,53.037,11.964,53.321z">
		</path>
		<path fill="none" d="M30.844,57.873c2.509-1.093,4.694-3.262,5.742-5.789C33.949,53.098,31.838,55.228,30.844,57.873z">
		</path>
		<path fill="none" d="M23.313,57.841c1.913-1.207,3.423-3.103,4.243-5.216C25.732,53.985,24.27,55.778,23.313,57.841z">
		</path>
		<path fill="none" d="M69.156,42.127c-2.509,1.093-4.694,3.262-5.742,5.789C66.051,46.902,68.162,44.772,69.156,42.127z">
		</path>
		<path fill="none" d="M91.202,49.871c0.21,0.058,0.426,0.1,0.651,0.116c0.231,0.017,0.51,0.022,0.784-0.013   C92.156,49.871,91.672,49.82,91.202,49.871z">
		</path>
		<path fill="none" d="M88.703,54.412c-0.191-0.418-0.442-0.819-0.735-1.171c-0.208-0.25-0.438-0.481-0.686-0.69   c0.093,0.216,0.192,0.43,0.303,0.639c0.189,0.357,0.398,0.712,0.65,1.03c0.15,0.189,0.382,0.347,0.572,0.516   C88.774,54.621,88.744,54.502,88.703,54.412z">
		</path>
		<path fill="none" d="M81.741,46.329c0.304-0.401,0.57-0.836,0.797-1.285c0.103-0.203,0.197-0.408,0.281-0.619   c0.02-0.05,0.053-0.202,0.09-0.349c0,0,0,0,0,0c-0.166,0.153-0.319,0.322-0.468,0.491c-0.359,0.408-0.668,0.855-0.937,1.328   c-0.25,0.44-0.458,0.905-0.623,1.384C81.19,46.983,81.482,46.671,81.741,46.329z">
		</path>
		<path fill="none" d="M72.444,47.374c1.824-1.359,3.286-3.152,4.243-5.216C74.775,43.366,73.264,45.262,72.444,47.374z">
		</path>
		<path fill="none" d="M72.444,52.626c0.82,2.112,2.331,4.009,4.243,5.216C75.73,55.778,74.268,53.984,72.444,52.626z">
		</path>
		<path fill="none" d="M36.587,47.916c-1.049-2.527-3.233-4.695-5.742-5.789C31.838,44.772,33.949,46.902,36.587,47.916z">
		</path>
		<path fill="none" d="M18.259,53.671c-0.304,0.401-0.57,0.836-0.797,1.285c-0.103,0.203-0.197,0.408-0.281,0.619   c-0.02,0.05-0.053,0.202-0.09,0.349c0,0,0,0,0,0c0.166-0.153,0.319-0.322,0.468-0.491c0.359-0.408,0.668-0.855,0.937-1.328   c0.25-0.44,0.458-0.905,0.623-1.384C18.81,53.017,18.518,53.329,18.259,53.671z">
		</path>
		<path fill="none" d="M60.273,42.988c-1.642,1.047-2.922,2.747-3.476,4.614C58.412,46.464,59.624,44.854,60.273,42.988z">
		</path>
		<path fill="none" d="M82.819,55.576c-0.084-0.211-0.178-0.417-0.281-0.619c-0.228-0.448-0.493-0.883-0.797-1.285   c-0.259-0.342-0.551-0.655-0.859-0.949c0.165,0.479,0.373,0.943,0.623,1.384c0.268,0.472,0.577,0.92,0.937,1.328   c0.148,0.168,0.304,0.338,0.468,0.491c0,0,0,0,0,0C82.872,55.778,82.838,55.625,82.819,55.576z">
		</path>
		<path d="M55.546,49.644c0.026,0.011,0.049,0.024,0.078,0.033c0.654,0.206,1.676-0.662,2.167-1.024   c0.747-0.551,1.424-1.184,2.005-1.909c1.144-1.427,1.932-3.096,2.242-4.902c0.081-0.474-0.317-1.089-0.874-0.874   c-3.316,1.28-5.737,4.483-6.063,8.024C55.068,49.358,55.278,49.573,55.546,49.644z M60.273,42.988   c-0.649,1.866-1.86,3.476-3.476,4.614C57.351,45.735,58.631,44.035,60.273,42.988z">
		</path>
		<path d="M61.627,48.793c-0.001,0.006-0.004,0.012-0.005,0.017c-0.077,0.31,0.042,0.556,0.237,0.71   c0.154,0.145,0.372,0.225,0.637,0.164c4.138-0.954,7.511-4.355,8.423-8.504c0.114-0.52-0.331-1.024-0.874-0.874   c-3.879,1.074-7.379,4.489-8.396,8.41C61.64,48.741,61.632,48.767,61.627,48.793z M69.156,42.127   c-0.993,2.645-3.104,4.775-5.742,5.789C64.462,45.389,66.647,43.22,69.156,42.127z">
		</path>
		<path d="M77.825,40.012c-3.638,1.435-6.501,4.871-7.254,8.716c-0.171,0.454,0.238,1.042,0.765,0.97   c0.163-0.003,0.316-0.062,0.428-0.184c3.311-1.887,5.796-4.99,6.934-8.628C78.849,40.405,78.333,39.811,77.825,40.012z    M72.444,47.374c0.82-2.112,2.331-4.009,4.243-5.216C75.73,44.222,74.268,46.015,72.444,47.374z">
		</path>
		<path d="M79.371,49.554c0.224,0.172,0.549,0.212,0.797,0.058c1.275-0.786,2.362-1.835,3.167-3.101   c0.588-0.925,1.778-2.909,0.68-3.864c-1.234-1.073-2.712,0.988-3.316,1.86c-0.886,1.279-1.395,2.744-1.601,4.276   c-0.016,0.053-0.023,0.109-0.024,0.166c0,0.001,0,0.003-0.001,0.004C79.038,49.256,79.173,49.454,79.371,49.554z M82.441,44.566   c0.149-0.169,0.302-0.339,0.468-0.491c0,0,0,0,0,0c-0.037,0.147-0.07,0.3-0.09,0.349c-0.084,0.211-0.179,0.417-0.281,0.619   c-0.227,0.449-0.493,0.884-0.797,1.285c-0.259,0.342-0.551,0.655-0.859,0.949c0.165-0.479,0.373-0.943,0.623-1.384   C81.773,45.422,82.082,44.974,82.441,44.566z">
		</path>
		<path d="M86.215,49.684c0.005-0.002,0.009-0.004,0.014-0.006c0.081-0.017,0.157-0.05,0.225-0.097   c1.19-0.515,2.195-1.302,2.95-2.374c0.57-0.81,1.688-2.778,0.534-3.553c-1.103-0.741-2.417,0.702-2.996,1.498   c-0.781,1.075-1.292,2.372-1.6,3.658c-0.053,0.22-0.008,0.408,0.091,0.554C85.558,49.646,85.839,49.832,86.215,49.684z    M88.235,45.781c0.163-0.206,0.395-0.367,0.591-0.544c-0.04,0.122-0.076,0.248-0.123,0.351c-0.177,0.386-0.403,0.759-0.668,1.091   c-0.225,0.283-0.48,0.543-0.758,0.775c0.08-0.187,0.167-0.371,0.26-0.553C87.738,46.513,87.963,46.124,88.235,45.781z">
		</path>
		<path d="M59.796,53.256c-0.56-0.698-1.208-1.309-1.922-1.846c-0.502-0.377-1.577-1.299-2.25-1.087   c-0.028,0.009-0.051,0.022-0.076,0.033c-0.268,0.071-0.479,0.286-0.445,0.652c0.325,3.54,2.747,6.743,6.063,8.024   c0.557,0.215,0.955-0.4,0.874-0.874C61.728,56.352,60.939,54.683,59.796,53.256z M56.797,52.398   c1.615,1.138,2.827,2.748,3.475,4.614C58.631,55.965,57.351,54.265,56.797,52.398z">
		</path>
		<path d="M62.496,50.316c-0.253-0.058-0.463,0.013-0.616,0.147c-0.207,0.152-0.337,0.405-0.257,0.727   c0.001,0.005,0.003,0.01,0.004,0.015c0.006,0.028,0.014,0.056,0.024,0.083c1.019,3.92,4.517,7.332,8.395,8.406   c0.543,0.15,0.988-0.354,0.874-0.874C70.006,54.671,66.634,51.271,62.496,50.316z M63.413,52.084   c2.638,1.014,4.749,3.144,5.742,5.789C66.647,56.78,64.462,54.611,63.413,52.084z">
		</path>
		<path d="M71.764,50.486c-0.112-0.122-0.265-0.18-0.427-0.184c-0.528-0.072-0.94,0.518-0.766,0.972   c0.754,3.844,3.616,7.279,7.253,8.714c0.508,0.2,1.024-0.393,0.874-0.874C77.561,55.476,75.076,52.373,71.764,50.486z    M72.444,52.626c1.824,1.359,3.286,3.152,4.243,5.216C74.775,56.634,73.264,54.738,72.444,52.626z">
		</path>
		<path d="M80.168,50.388c-0.248-0.153-0.572-0.114-0.796,0.058c-0.199,0.1-0.334,0.298-0.298,0.6c0,0.002,0.001,0.004,0.001,0.005   c0.001,0.056,0.008,0.11,0.024,0.162c0.2,1.495,0.688,2.929,1.537,4.186c0.607,0.899,2.111,3.035,3.38,1.953   c1.083-0.924-0.059-2.863-0.623-3.772C82.582,52.274,81.474,51.193,80.168,50.388z M82.441,55.434   c-0.359-0.407-0.668-0.856-0.937-1.328c-0.25-0.44-0.458-0.905-0.623-1.384c0.309,0.294,0.6,0.606,0.859,0.949   c0.304,0.401,0.569,0.836,0.797,1.285c0.103,0.202,0.198,0.408,0.281,0.619c0.02,0.05,0.053,0.202,0.09,0.349c0,0,0,0,0,0   C82.744,55.772,82.589,55.602,82.441,55.434z">
		</path>
		<path d="M86.454,50.42c-0.068-0.047-0.144-0.08-0.224-0.097c-0.005-0.002-0.01-0.005-0.015-0.007   c-0.375-0.148-0.656,0.037-0.781,0.317c-0.1,0.146-0.145,0.335-0.092,0.556c0.301,1.254,0.794,2.522,1.542,3.578   c0.579,0.817,1.923,2.336,3.054,1.578c1.129-0.756,0.073-2.66-0.475-3.466C88.705,51.767,87.677,50.949,86.454,50.42z    M88.235,54.219c-0.252-0.317-0.461-0.672-0.65-1.03c-0.11-0.209-0.21-0.422-0.303-0.639c0.248,0.209,0.478,0.439,0.686,0.69   c0.293,0.353,0.544,0.754,0.735,1.171c0.041,0.09,0.071,0.209,0.104,0.323C88.617,54.566,88.385,54.408,88.235,54.219z">
		</path>
		<path d="M94.491,49.042c-1.66-0.576-3.671-1.027-5.239,0.037c-0.121,0.051-0.225,0.144-0.302,0.263   c-0.093,0.129-0.136,0.274-0.137,0.419c0,0,0,0.001,0,0.001c0,0.028,0.001,0.057,0.003,0.085c0.007,0.118,0.04,0.235,0.107,0.343   c0.074,0.129,0.18,0.232,0.304,0.292c1.499,1.042,4.741,1.645,5.688-0.397C95.116,49.652,94.953,49.202,94.491,49.042z    M91.852,49.987c-0.224-0.017-0.441-0.058-0.651-0.116c0.47-0.051,0.955,0,1.434,0.104C92.363,50.009,92.084,50.004,91.852,49.987z   ">
		</path>
		<path d="M38.836,40.969c-0.557-0.215-0.955,0.4-0.874,0.874c0.31,1.806,1.099,3.475,2.242,4.902   c0.56,0.698,1.208,1.309,1.922,1.846c0.502,0.377,1.577,1.299,2.25,1.087c0.028-0.009,0.051-0.022,0.076-0.033   c0.268-0.071,0.479-0.286,0.445-0.652C44.573,45.452,42.151,42.249,38.836,40.969z M39.727,42.988   c1.642,1.047,2.922,2.747,3.476,4.614C41.588,46.464,40.376,44.854,39.727,42.988z">
		</path>
		<path d="M37.505,49.684c0.254,0.058,0.464-0.013,0.617-0.147c0.207-0.152,0.337-0.405,0.257-0.726   c-0.001-0.005-0.003-0.01-0.004-0.015c-0.006-0.028-0.014-0.056-0.024-0.083c-1.019-3.92-4.517-7.332-8.395-8.406   c-0.543-0.15-0.988,0.354-0.874,0.874C29.994,45.329,33.366,48.729,37.505,49.684z M36.587,47.916   c-2.638-1.014-4.749-3.144-5.742-5.789C33.353,43.22,35.538,45.389,36.587,47.916z">
		</path>
		<path d="M28.236,49.514c0.112,0.122,0.265,0.181,0.427,0.184c0.528,0.072,0.939-0.518,0.766-0.972   c-0.754-3.844-3.616-7.279-7.254-8.714c-0.508-0.2-1.024,0.393-0.874,0.874C22.439,44.524,24.924,47.627,28.236,49.514z    M27.556,47.374c-1.824-1.359-3.286-3.152-4.243-5.216C25.225,43.366,26.736,45.262,27.556,47.374z">
		</path>
		<path d="M20.925,48.949c-0.001-0.056-0.008-0.11-0.024-0.162c-0.2-1.495-0.688-2.929-1.537-4.186   c-0.607-0.899-2.111-3.035-3.38-1.953c-1.083,0.924,0.059,2.863,0.623,3.772c0.81,1.306,1.918,2.387,3.224,3.192   c0.247,0.153,0.572,0.114,0.796-0.058c0.199-0.1,0.334-0.298,0.298-0.6C20.926,48.952,20.926,48.951,20.925,48.949z M18.259,46.329   c-0.304-0.401-0.569-0.836-0.797-1.285c-0.103-0.202-0.198-0.408-0.281-0.619c-0.02-0.05-0.053-0.202-0.09-0.349c0,0,0,0,0,0   c0.164,0.153,0.319,0.323,0.468,0.491c0.359,0.407,0.668,0.856,0.937,1.328c0.25,0.44,0.458,0.905,0.623,1.383   C18.81,46.983,18.518,46.671,18.259,46.329z">
		</path>
		<path d="M13.116,45.232c-0.579-0.817-1.923-2.336-3.054-1.578c-1.129,0.756-0.073,2.66,0.475,3.466   c0.757,1.113,1.786,1.931,3.009,2.46c0.068,0.047,0.144,0.08,0.224,0.097c0.005,0.002,0.01,0.005,0.015,0.007   c0.375,0.148,0.656-0.037,0.781-0.317c0.1-0.146,0.145-0.335,0.092-0.556C14.358,47.557,13.865,46.288,13.116,45.232z    M12.032,46.759c-0.293-0.353-0.544-0.754-0.735-1.171c-0.041-0.09-0.071-0.209-0.104-0.323c0.19,0.169,0.423,0.327,0.572,0.516   c0.252,0.317,0.461,0.672,0.65,1.03c0.11,0.209,0.21,0.422,0.303,0.639C12.47,47.24,12.24,47.009,12.032,46.759z">
		</path>
		<path d="M44.454,50.356c-0.026-0.011-0.049-0.024-0.078-0.033c-0.654-0.206-1.676,0.662-2.167,1.024   c-0.747,0.551-1.424,1.184-2.005,1.909c-1.144,1.427-1.932,3.096-2.242,4.902c-0.081,0.474,0.317,1.089,0.874,0.874   c3.316-1.28,5.738-4.483,6.063-8.024C44.932,50.642,44.722,50.427,44.454,50.356z M39.727,57.012   c0.649-1.866,1.861-3.476,3.476-4.614C42.649,54.265,41.369,55.965,39.727,57.012z">
		</path>
		<path d="M38.373,51.207c0.001-0.006,0.004-0.012,0.005-0.017c0.077-0.31-0.042-0.556-0.236-0.709   c-0.154-0.146-0.372-0.226-0.637-0.164c-4.138,0.954-7.511,4.355-8.423,8.504c-0.114,0.52,0.331,1.024,0.874,0.874   c3.879-1.074,7.379-4.489,8.396-8.41C38.36,51.259,38.368,51.233,38.373,51.207z M30.844,57.873   c0.993-2.645,3.104-4.775,5.742-5.789C35.538,54.611,33.353,56.78,30.844,57.873z">
		</path>
		<path d="M28.664,50.302c-0.163,0.003-0.316,0.062-0.428,0.184c-3.311,1.887-5.796,4.99-6.934,8.628   c-0.15,0.481,0.366,1.074,0.874,0.874c3.638-1.435,6.501-4.871,7.254-8.716C29.6,50.818,29.191,50.23,28.664,50.302z    M23.313,57.841c0.957-2.064,2.419-3.857,4.243-5.216C26.736,54.738,25.225,56.634,23.313,57.841z">
		</path>
		<path d="M20.629,50.446c-0.224-0.172-0.549-0.212-0.797-0.058c-1.275,0.786-2.362,1.835-3.167,3.101   c-0.588,0.925-1.778,2.909-0.68,3.864c1.234,1.073,2.712-0.988,3.316-1.86c0.886-1.279,1.395-2.744,1.601-4.276   c0.016-0.053,0.023-0.109,0.024-0.167c0-0.001,0-0.003,0.001-0.004C20.962,50.744,20.827,50.546,20.629,50.446z M17.559,55.434   c-0.149,0.169-0.302,0.339-0.468,0.491c0,0,0,0,0,0c0.037-0.147,0.07-0.3,0.09-0.349c0.084-0.211,0.179-0.417,0.281-0.619   c0.227-0.449,0.493-0.884,0.797-1.285c0.259-0.342,0.551-0.655,0.859-0.949c-0.165,0.479-0.373,0.943-0.623,1.384   C18.227,54.578,17.918,55.026,17.559,55.434z">
		</path>
		<path d="M13.785,50.316c-0.005,0.002-0.009,0.004-0.014,0.006c-0.081,0.017-0.157,0.05-0.225,0.097   c-1.19,0.515-2.195,1.302-2.949,2.374c-0.57,0.81-1.688,2.778-0.534,3.553c1.103,0.741,2.417-0.702,2.996-1.498   c0.781-1.075,1.292-2.372,1.6-3.658c0.053-0.22,0.008-0.408-0.091-0.554C14.443,50.354,14.161,50.168,13.785,50.316z    M11.765,54.219c-0.163,0.206-0.395,0.367-0.591,0.544c0.04-0.122,0.076-0.248,0.123-0.351c0.177-0.386,0.403-0.759,0.668-1.091   c0.225-0.283,0.48-0.543,0.758-0.775c-0.08,0.187-0.167,0.371-0.26,0.553C12.262,53.487,12.037,53.876,11.765,54.219z">
		</path>
		<path d="M11.077,50.19c0.065-0.106,0.099-0.221,0.106-0.338c0.018-0.175-0.022-0.356-0.135-0.512   c-0.077-0.118-0.181-0.211-0.301-0.262c-1.568-1.063-3.579-0.612-5.238-0.036c-0.462,0.16-0.626,0.61-0.424,1.043   c0.947,2.042,4.19,1.439,5.689,0.396C10.898,50.421,11.004,50.318,11.077,50.19z M7.365,49.974c0.48-0.103,0.964-0.154,1.434-0.103   c-0.21,0.058-0.426,0.1-0.651,0.116C7.917,50.004,7.638,50.009,7.365,49.974z">
		</path>
	</g>
</svg>
