<?xml version="1.0" encoding="utf-8"?>
<svg version="1.1" xmlns="http://www.w3.org/2000/svg" xmlns:xlink="http://www.w3.org/1999/xlink" x="0px" y="0px" width="215px" height="178px" viewBox="-0.299 -0.366 215 178" enable-background="new -0.299 -0.366 215 178" xml:space="preserve">
	<path class="eg-ill-fillable" d="M36.191,73.134c0.7,0.62,3.21,1.61,2.13,3.13c-1.18-0.63-2.45-1.16-2.83-2.6
			c-0.6-2.27-1.03-1.35-2.67-2.57C34.491,69.204,35.141,72.204,36.191,73.134z" />
	<path class="eg-ill-fillable" d="M121.401,135.594c0.54-1.1,1.52-1.4,2.51-1.94c-1.35,1.711-2.35,3.711-3.9,5.271
			c0.091-0.21-0.06-1.56-0.189-2c-0.101-0.09-0.16-0.16-0.08-0.14C120.731,137.614,121.061,136.284,121.401,135.594z" />
	<path class="eg-ill-fillable" d="M135.13,134.193c0.82-1.79,1.84-3.18,3.71-2.779C138.061,132.924,136.981,134.273,135.13,134.193z" />
	<path class="eg-ill-fillable" d="M129.651,121.704c0.359-1.5,0.93-5.07,2.56-4.38C131.17,118.894,131.351,121.004,129.651,121.704z" />
	<path class="eg-ill-fillable" d="M116.831,125.704c-1.12-2.601,2.4-4.54,3.91-5.78C119.951,122.924,118.371,124.273,116.831,125.704z" />
	<path class="eg-ill-fillable" d="M121.84,126.964c-0.989,1.8-1.779,3.77-3.09,5.38C118.281,130.604,119.541,127.034,121.84,126.964z" />
	<path class="eg-ill-fillable" d="M127.561,140.214c-1.851,1.82-4.351,4.36-6.4,6.88l-0.37-0.3c0.021-0.03,0.04-0.061,0.061-0.08
			c0.33-0.5,0.399-1.521,1-2.37c0.85-1.2,1.89-2.24,2.909-3.92c0.54-0.88,1.311-1.43,1.771-2.1c0.17-0.261,0.17-0.7,0.32-0.91
			c0.14-0.2,1.069-0.971,1.409-1.69l0.74-0.02c-0.24,0.699-0.39,1.37-0.069,1.59c1.75,1.17,1.47-4.13,1.6-4.55
			c0.24-0.73,1.04-1.15,1.56-2.011c0.46-0.739,0.601-1.76,0.9-2.06c0.979-0.99,3.51-0.54,4.85-1.19
			c-0.05,0.44-0.479,1.08-0.939,1.71c-0.311,0.421-0.76,1.2-1.25,1.61c-0.82,0.67-3.04,0.74-3.48,1.16
			c-1.529,1.49,1.94,0.91,2.49,0.189c-0.8,1.74-2.4,4.11-3.6,5.891C130.521,136.943,128.3,139.494,127.561,140.214z" />
	<path class="eg-ill-fillable" d="M177.621,97.704c-0.03,1.31,1.78,0.5,2.34-0.37c0.29,0.12-0.43,0.479-0.109,0.81
			c1.47-0.02,3.109-0.8,4.479-1.51c-0.81,0.49-1.229,1.36-1.89,1.91c-0.58,0.479-0.58,0.149-1.03,0.49
			c-0.56,0.42-2.22,2.56-3.37,3.76c-0.16,0.17-1.359,1.1-0.84,1.45l-0.03,0.819c-1.46-0.14-3.06,0.221-4.56,0.58
			c-1.34,0.34-2.75,0.851-4.19,1.26c-0.239,0.061-0.3-0.109-0.51-0.01c-0.4,0.2-0.68-0.26-1.32-0.13
			c-0.239,0.061-0.149,0.43-0.359,0.561c-0.05,0.029-3.59,0.85-3.67,0.75c-0.221-0.25,1.67-1.91,1.97-2.2
			c0.89-0.891,1.38-1.5,2.01-1.851c0.79-0.439,2.32-0.43,3.62-0.6c2.14-0.271,3.79-0.17,5.8-0.51c0.641-0.11,1.431-0.011,1.641-0.79
			c-3.511,0.149-6.66,0.819-9.881,0.95c-0.119-0.431,0.421-0.46,0.62-0.801c0.17-0.279,0.101-0.819,0.38-1.06
			c0.9-0.8,4.82-0.97,6.421-1.32c0.649-0.14,1.68-0.06,1.85-0.88c-0.521-0.61-1.17,0.101-1.78,0.23c-0.6,0.12-1.34,0-1.939,0.17
			c-0.771,0.21-2.03,0.79-3.061,0.96c-0.68,0.109-1.62-0.15-2.39,0.01c-0.29,0.06-0.95,0.48-1.63,0.28
			c0.819-0.721,1.62-1.59,2.47-2.2c0.87-0.61,1.59-0.771,2.92-1.01c1.08-0.21,2.34-0.04,3.66-0.25c0.3-0.04,0.54-0.37,0.82-0.391
			c0.77-0.069,1.54,0.37,2.239-0.069C178.5,97.254,177.63,97.264,177.621,97.704z" />
	<path class="eg-ill-fillable" d="M137.72,86.214c-1.319-0.23-3.069,0.15-4.489,0.63c-0.391,0.14-0.87,0.18-1.12,0.29
			c-0.15,0.07-0.22,0.5-0.37,0.55c-0.15,0.06-0.94-0.01-1.42,0.18c-1.18,0.47-2.73,1.37-4,2.17c-0.33,0.21-1.17,0.43-1.49,0.84
			c-0.82,1.08-0.66,1.859,0.68,1.939c0.051-2.319,2.681-2.939,4.74-3.78c0.48-0.2,0.95-0.47,1.431-0.69
			c0.899-0.4,1.47-0.59,2.51-0.82c0.27-0.06,0.56-0.34,0.819-0.39C136.231,86.894,137.621,87.474,137.72,86.214z M157.75,95.134
			c0.94-0.14,3.16,0.72,3.51-0.8c-0.689-0.42-1.93,0.26-2.8,0.2c-1.08-0.08-1.93-1.12-2.33-0.141c-0.22,0.53,0.33,1.141,0.73,1.28
			C156.861,95.604,157.75,95.174,157.75,95.134z M159.561,92.874c0.08,0,0.409-0.58,0.569-0.65c0.48-0.189,2.051-0.06,1.54-0.99
			c-0.58,0.141-1.01-0.1-1.52-0.02c-0.08,0.01-0.09,0.42-0.16,0.45c-0.88,0.34-2.12-1.19-2.35,0.37
			C158.151,92.244,158.97,92.903,159.561,92.874z M160.151,97.004c-1.681-0.101-4.07-0.08-5.2,1.229c0.88,0.73,1.09,0,1.78-0.22
			c0.84-0.27,2.319,0,2.8-0.21C159.831,97.674,160.031,97.254,160.151,97.004z M142.771,90.714c-0.271,0-0.561-0.11-0.84-0.23
			l-0.101-1.689c0.65-0.04,1.46-0.67,0.54-1.29c-0.46-0.31-1.26,0.23-1.26,0.74l-1.96-0.25c0.06-0.35,0.14-0.75,0.229-1.19
			c0.32-1.5,0.63-1.88,0.66-2.84c0.021-0.7-0.41-1.4-0.8-1.13c-0.3,0.21-0.78,2.4-1.07,3.54c-0.2,0.78-0.14,1.6-0.489,1.87
			c-0.211,0.16-1.03-0.1-1.521-0.03c-0.15,0.03-0.58,0.23-0.97,0.34c-0.851,0.24-1.221,0.53-2.21,0.93
			c-1.011,0.419-1.99,0.52-3.11,1.12c-0.59,0.311-1.17,0.84-1.96,1.19c-1.15,0.51-1.75,0.729-2.97,1.68
			c-0.38,0.29-1.33,0.99-1.45,1.51l-0.76-0.119c0.52-3.381,1.5-6.971,3.17-6.331c0.939,0.36,0.859-1.04,1.43-1.5
			c0.99-0.8,2.19-1.33,3.36-1.8c1.22-0.49,2.45-1.01,3.71-1.39c0.78-0.23,3.14-0.16,3.47-0.73c0.92-1.57-4.55,0.17-4.58,0.18
			c-2.3,0.87-4.979,1.84-6.97,3.34c0.979-2.22,1.52-5.1,4.149-5.95c0.851-0.28,1.681,0.21,2.421-0.3c0.869-0.6,1.92-0.91,2.829-1.47
			c1.86-1.15,2.23-2.59,3.48-4.23c1.24-1.62,2.55,3.28,3.12,4.1c1.38,2.01,2.39,4.42,3.87,6.29c1.66,2.1,1.95,6.38,5.43,6.38
			c1.12,0.01,2.74-0.75,3.38-1.69c0.4-0.59,0.61-1.3,1-1.93c0.45-0.73,0.811-1.51,1.04-2.34c0.69-2.4,1.57-2.66,3.8-3.41
			c2.12-0.71,3.141-4.54,4.04-6.33c1.141-2.27,1.61-2.33,1.69,0.06c0.06,1.98,0.75,4.1,1.13,6.04c0.21,1.11,2.86,5.29,2.46,5.62
			c-1.33,1.08-2.74,2.24-3.94,3.521c-0.6,0.64-0.77,1.17-0.649,1.479l-1.73,0.05c-0.029-0.1-0.08-0.18-0.159-0.239
			c-0.011,0-1.03-0.181-1.16-0.07c-0.69,0.56-0.34,5.32-0.41,5.99c-0.09,0.91-0.93,3.489,0.47,2.55c0.43-0.29-0.01-2.32,0.71-2.99
			c0.061-0.05,0.891-0.06,0.891-0.04c0.81-0.1,1.579-0.56,2.329-1.38c1.021-1.08,1.25,0.11,2.5-0.31
			c-0.319,0.609-0.71,1.13-1.399,1.55c-0.46,0.29-1.25,0.22-1.53,0.49c-0.33,0.3-0.399,1.229-0.74,1.609
			c-0.27,0.3-0.71,0.26-1.029,0.49c-0.271,0.2-0.48,0.67-0.82,0.9c-0.771,0.51-1.35,0.34-1.66,1.8c1.3,0.729,1.71-0.431,2.561-0.971
			c0.88-0.55,1.81-0.21,2.75-0.56c-0.631,0.38-1.23,1.9-2.53,2.34c-0.95,0.33-1.68-0.439-1.99,0.33c-0.31,0.78,1,0.66,1.42,0.32
			c-1.05,0.95-2.47,2.56-3.92,3.899c-0.7,0.641-1.81,1.37-1.71,1.95c0.11,0.7,1.53,1.07,1.63-0.27c0.25,0.09,0.5,0.18,0.76,0.26
			c-0.489-1.38,2.92-1.69,4.091-1.96c-0.32,0.77-1.11,1.229-1.86,1.9c-0.57,0.52-1.21,1.439-1.811,1.75
			c-0.51,0.26-1.159-0.141-1.43,0.689c-0.07,0.22,0.19,0.55,0.09,0.71c-0.239,0.39-0.83,0.43-0.93,0.69
			c-0.01,0.02,0.31,0.77,0.25,0.77c0.05,0.03,0.1,0.04,0.17,0.04l0.97,0.53c-0.06,0.08-0.1,0.18-0.1,0.31
			c0.07,1.761,2.04-0.34,2.91-0.51c0.149,0.521-0.55,0.94-0.99,1.36c-0.47,0.449-0.89,0.96-1.34,1.399
			c-0.28,0.271-1.41,1.29-1.8,1.24c-0.42-0.06-1.09-0.38-1.87-0.49c-1.65-0.239-3.72,0.48-4.53,0.28c-0.33-0.08-0.67-0.53-1.01-0.52
			c-0.62,0.01-1.08,0.64-1.641,0.779c-1.079,0.29-2.52,0.19-3.659,0.24c1.22-0.56,1.239-1.65,2.43-2.54
			c0.74-0.56,2.68-0.79,3.88-0.86c1.37-0.069,4.41,0.57,4.67-0.22c0.15-0.439-1.47-0.96-2.78-0.81
			c-0.319,0.029-0.779,0.47-1.02,0.489c-0.35,0.03-0.93-0.319-1.271-0.279c-0.51,0.069-1.029,0.62-1.68,0.43
			c-0.18-0.33-0.09-0.79,0.12-1.32c-1.17-0.359-1.46,1.07-2.36,1.391c-0.479,0.17-1.43-0.07-2.029-0.04
			c-0.66,0.04-1.261,0.47-1.88,0.02c0.409-0.939,1.59-1.25,2.01-1.84c0.39-0.56,0.109-1.01,1.09-1.15
			c0.85-0.13,2.06,0.131,3.2,0.101c2.25-0.061,4.29,0.38,6.01-0.61c-0.07-0.3-1.41-0.55-1.73-0.439c-0.1,0.04-0.18,0.399-0.31,0.399
			c-0.3,0.011-0.61-0.319-1.06-0.37c-0.36-0.04-0.95,0.181-1.42,0.181c-0.561,0.01-4.171,0.18-4.271,0.029
			c-0.51-0.729,1.65-1.409,0.9-2.579l0.01-0.551c0.28,0.011,0.56,0.021,0.87,0.011c0.359-0.011,1,0.02,1.37-0.03
			c0.279-0.04,1-0.34,1.63-0.28c0.27,0.03,3.6,1.05,3.859,0.17c0.271-0.93-4.119-1.06-4.909-1.05c-0.131,0.01-0.46,0.3-0.62,0.3
			c-0.7-0.01-1.46-0.24-2.33-0.14c-0.09,0.01-0.66,0.28-0.971,0.34c-0.939,0.15-2.1,0.28-3.31,0.2c0.94-0.55,1.26-1.5,2.07-2
			c0.62-0.391,1.1-0.23,1.979-0.33c2.26-0.23,5.16-0.21,7.38-0.63c-0.3-1.11-1.409-0.28-2.13-0.24c-1.939,0.09-4.069-0.42-5.79,0
			c-0.1-0.62,0.46-0.41,0.83-0.9c0.311-0.42,0.431-1.369,0.74-1.609c1.09-0.88,4.83,0.41,6-0.61c-3.37-1.17-6.67,0.101-10.11-0.32
			c0.9-2,3.91-1.46,5.931-1.84c0.699-0.13,1.979-0.27,1.85-0.88c-0.19-0.87-1.84,0.21-2.14,0.271c-0.141,0.02-3.141,0.069-3.11,0.1
			c-0.42-0.43-0.02-0.81,0.08-1.68c-1.33-0.65-1.53,1.239-2.26,1.59c-0.98,0.47-1.28-0.33-2.58-0.4c0.2-0.8,0.979-0.989,1.39-1.55
			c0.26-0.36,0.09-0.91,0.58-1.16c1.51-0.77,3.66,0.99,5.29-0.01c-0.82-1.04-3.09-0.93-4.25-0.99c0.57-0.37,0.12-1.81,0.18-1.979
			c0.04-0.12,1.341-0.91,0.221-1.11c-0.601-0.11-1.601,0.48-2.65,0.771c-0.32,0.09-0.69,0.14-1.03,0.22l-0.08-1.4
			c0.061,0,0.11-0.01,0.16-0.01c0.3-0.04,0.57-0.53,0.931-0.7c0.42-0.189,1.21,0.181,1.02-0.49
			C144.291,89.834,143.3,90.714,142.771,90.714z M162.05,86.774c0.24,0.49,3.78,0.46,3.311-0.71
			C164.831,86.044,161.47,85.564,162.05,86.774z" />
	<path class="eg-ill-fillable" d="M124.931,131.254c-2.03,0.74-4.03,3.52-5.23,5.17c-0.11-0.771-1.18-1.78-0.26-2.34
			c0.58-0.351,1.59-1.61,2.01-2.15c1.54-1.979,4.03-3.38,5.43-5.76c-1.8,0.22-2.6,2.19-4.21,2.78c0.58-1.57,1.41-2.91,2.15-4.4
			c0.399-0.82,1.61-0.96,1.92-1.8l0.81,0.08c2.11-0.4,0.881,2.149,0.96,3.58c0.021,0.37,0.391,0.6,0.48,1.02
			c0.11,0.47,0.04,1.28,0.18,1.931c0.12,0.6,0.53,1.26,0.58,1.739c0,0.05-0.34,0.33-0.37,0.561c-0.029,0.34,0.311,1.63,0.221,2.29
			c-0.04,0.34-0.37,1.06-0.601,1.75l-0.74,0.02c0.15-0.32,0.19-0.63,0-0.88c-0.569-0.75-1.239,0.91-1.75,1.6
			c-0.79,1.061-1.93,2.61-2.859,3.761c-0.771,0.96-1.86,2.09-2.75,3.46c-0.311,0.479-0.351,1.21-0.48,1.359
			c-0.12,0.15-0.6-0.06-0.72,0.091l-0.54-0.341c1-1.96,1.62-4.1,2.89-5.939c0.61-0.9,4.57-3.17,2.29-3.5
			C124.47,134.983,126.531,130.664,124.931,131.254z" />
	<path class="eg-ill-fillable" d="M149.55,131.943c-0.739,0.181-1.79-0.31-2.14,0.78c0.59,0.59,2.34-0.17,3.36-0.35
			c1.04-0.19,1.39-0.061,1.33-0.891c-0.69-0.06-1.21-0.189-1.881,0.021C150,131.563,149.701,131.914,149.55,131.943z M190.25,96.184
			c-0.84-0.54-1.04,0.32-1.49,0.84c-0.85,1-2,2.351-3.149,3.15c-0.29,0.2-0.72,0.16-0.97,0.34c-0.381,0.26-0.591,0.75-0.83,0.9
			c-0.351,0.229-3.54,1.35-1.71,1.96c0.6,0.189,1.979-1.28,2.21-1.44c0.699-0.53,1.71-1.229,2.779-2.09
			c0.92-0.75,1.351-1.03,2.271-2.1C189.611,97.464,190.151,97.023,190.25,96.184z M190.96,81.104c-0.7-0.18-1.09,0.49-1.64,0.79
			c-0.97,0.52-1.89,1.16-3.08,1.98c-0.72,0.49-1.62,0.75-1.9,1.03c-0.159,0.17,0.11,0.42-0.01,0.51c-0.81,0.55-1.89,0.51-2.46,1.18
			c-0.16,0.19,0.021,0.89-0.32,0.91c0.36-0.05,0.73,0.3,1.12,0.22c0.08-0.02,0.07-0.42,0.16-0.45c0.5-0.23,1.16-0.16,1.68-0.43
			c0.57-0.3,1.23-1.06,1.9-1.55c0.25-0.17,0.48-0.06,0.771-0.24c0.109-0.06,0.06-0.38,0.159-0.45c0.261-0.17,0.65-0.13,0.971-0.34
			c0.27-0.18,0.5-0.67,0.83-0.9C189.861,82.854,190.571,82.374,190.96,81.104z M197.05,87.504c-0.29,0.36-0.239,0.95-0.479,1.37
			c-0.18,0.32-1.05,1.01-1.25,1.6c-0.05,0.18,0.1,0.76,0.04,0.87c-0.37,0.68-1.45,0.92-1.2,1.96c0.86-0.01,1.58-1.11,2.01-1.85
			c0.851-1.431,2.44-2.95,2.86-3.76c0.16-0.3-0.03-0.48,0.06-0.66c0.19-0.34,0.561-0.38,0.57-0.65c0.03-0.73-0.88-1.77-1.76-0.79
			c-0.07,0.07-0.021,1.07-0.13,1.31C197.71,87.044,197.281,87.214,197.05,87.504z M163.411,121.144c1.41-0.8,3.35-0.81,4.2-2.26
			c-0.75-0.41-3.311,1.15-4.55,1.8c-0.341,0.181-0.65,0.07-0.92,0.19c-0.101,0.04-0.061,0.39-0.16,0.45
			c-0.19,0.119-1.96,0.46-1.29,1.25c0.12,0.14,1.04-0.021,1.04,0.01C162.38,122.324,163.01,121.374,163.411,121.144z
			 M137.771,146.534c-0.061,0.05-0.08,0.439-0.16,0.46c-0.51,0.1-1.11,0.09-1.78,0.22c-0.52,0.11-1.2,0.37-1.68,0.43
			c-0.78,0.101-2.061-0.529-2.3,0.73c0.77,0.229,1.149,0.04,1.88-0.021c0.689-0.06,0.859-0.12,1.479-0.34
			c1.15-0.38,2.91,0.05,3.83-1.2C138.951,146.574,138.081,146.304,137.771,146.534z M156.59,139.534c1.28-0.62,2.78-0.66,3.351-2.23
			c-1.48,0.17-3.971,1.91-5.59,2.8c-2.79,1.54-4.881,2.95-7.54,3.99c-0.46,0.18-1.36-0.45-1.431,0.69
			c0.03-0.011,0.16,0.359,0.5,0.52c0.301,0.14,0.84-0.61,1.69-0.939c0.32-0.12,0.8-0.15,1.12-0.29c1.39-0.561,2.75-1.73,3.7-2.271
			C153.72,141.044,155.361,140.134,156.59,139.534z M172.92,129.434c0.86-0.58,1.82-1.26,1.771-2.1c-0.71-0.16-1.46,0.89-2.42,1.53
			c-0.65,0.439-1.34,0.869-2,1.34c-0.681,0.489-1.67,0.739-2.311,1.229c-0.18,0.15-0.22,0.59-0.42,0.71
			c-0.27,0.17-0.76,0.101-1.12,0.29c-0.85,0.44-1.66,1.29-2.47,1.681c-0.59,0.289-0.75,0.09-1.12,0.289
			c-0.12,0.061-0.92,0.521-0.83,0.9c0.12,0.51,1.22,0.17,1.32,0.12c0.57-0.25,0.04-0.28,0.979-0.84
			c2.011-1.21,2.631-1.42,4.521-2.67C170.371,130.884,171.411,130.483,172.92,129.434z M174.321,130.784
			c0.46-0.381,1.21-0.32,1.04-1c-0.46-0.48-0.71,0.05-1.13,0.29c-0.811,0.449-2.4,1.46-3.19,2.279c-0.2,0.221-0.18,0.54-0.41,0.71
			c-0.27,0.181-0.609,0.051-0.92,0.181c-0.729,0.33-1.279,1.17-1.96,1.699c-1.08,0.841-2.29,1.44-3.189,2.28
			c-0.65,0.021,0.21-0.68-0.45-0.67c-0.25,0.12-1.4,1.07-0.94,1.72c0.141,0.2,1.32-0.149,1.63-0.199
			c-0.01,0.029-0.029,0.06-0.05,0.069c0.17-0.08,0.16-0.1,0.05-0.069c0.04-0.12,0.04-0.33,0.11-0.381
			c0.48-0.43,1.47-0.579,2.05-0.979c0.36-0.26,0.66-0.82,1.08-1.16c0.87-0.67,2.51-1.689,3.601-2.479
			c0.21-0.141,0.109-0.301,0.31-0.4c0.28-0.13,0.17-0.24,0.52-0.5C173.161,131.684,173.55,131.424,174.321,130.784z M179.8,107.804
			c-1.06,1.43-2.199,2.771-3.3,4.17c-0.77,0.98-1.54,1.92-2.33,2.86c-0.34,0.41-0.689,0.819-1.05,1.24
			c-0.479,0.56-1,1.119-1.479,1.68c-1.24,1.43-2.801,2.53-4.07,3.899c-1.521,1.66-3,3.36-4.561,4.98
			c-1.729,1.79-3.619,3.45-5.67,4.88c-0.46,0.33-0.84,0.54-1.35,0.74c-0.56,0.22-0.9,0.55-1.4,0.89
			c-0.569,0.391-1.199,0.7-1.779,1.061c-1.061,0.649-2.16,1.22-3.24,1.84c-4.351,2.49-8.47,5.22-13.061,7.29
			c-1.72,0.77-3.5,1.92-5.3,2.38c-1.46,0.38-3.97,0.17-4.52,2c-0.431,1.4,2.09,0.21,2.68-0.04c1.14-0.49,2.7-1.03,3.89-1.36
			c1.19-0.34,2.41-0.71,3.71-1.199c2.391-0.9,4.41-2.561,6.74-3.58c2.811-1.21,5.181-2.891,7.641-4.53
			c2.689-1.79,5.229-3.08,7.779-4.93c3.62-2.631,6.46-6.15,9.34-9.54c1.48-1.73,2.971-3.45,4.62-5.03
			c1.58-1.521,3.37-2.98,4.761-4.69c0.689-0.85,1.29-1.75,1.96-2.609c0.71-0.92,1.77-1.931,1.909-3.141
			C181.931,105.264,180.181,107.304,179.8,107.804z M159.931,143.604c-1.36,0.811-3.171,1.48-4.711,2.261
			c-0.529,0.27-1.1,0.71-1.489,0.84c-0.36,0.12-0.761,0.01-1.07,0.13c-0.91,0.38-1.32,1.02-2.05,0.99
			c-0.16-0.011-0.79-0.4-0.91-0.33c-0.39,0.279-0.29,1.25-0.27,1.27c0.199,0.26,1.729-0.36,2.449-0.67
			c0.83-0.36,1.86-0.63,2.351-0.88c0.27-0.13,0.63-0.73,0.979-0.84c0.21-0.07,0.771,0.13,0.811,0.109c0.22-0.09,0.16-0.42,0.37-0.55
			c0.439-0.29,1.81-0.85,2.449-1.18c1.5-0.76,3.17-1.29,4.46-2.01c0.141-0.08,0.21-0.48,0.36-0.551c0.25-0.119,0.62,0.051,0.87-0.04
			c0.87-0.3,1.8-0.84,1.96-1.689c-1.4-0.26-2.26,0.96-3.43,1.52c-0.41,0.19-0.86,0.051-1.28,0.23
			C161.181,142.474,160.641,143.184,159.931,143.604z M160.851,146.313c-0.631,0.301-1.4,0.28-1.891,0.53
			c-0.09,0.04-0.06,0.42-0.16,0.45c-0.869,0.3-1.68-0.23-2.3,0.729c2.91,0.25,5.95-1.979,8.75-3.06c0.37-0.15,1-0.34,1.53-0.48
			c0.52-0.14,2.41-0.439,1.8-1.239c-0.03-0.04-0.26-0.11-0.31-0.11C166.25,143.034,162.97,145.294,160.851,146.313z M179.981,93.424
			c0.859,0.31,1.479-0.65,2.2-0.93c0.239-0.091,0.63,0.08,0.859-0.04c0.101-0.04,0.08-0.38,0.16-0.45c0.27-0.23,1-0.2,1.33-0.39
			c0.18-0.091,0.189-0.461,0.37-0.551c0.47-0.25,1.05-0.25,1.53-0.479c1.22-0.58,2.359-1.47,3.489-2.18
			c0.851-0.53,2.66-0.81,2.48-2.19c-2.19,1.03-4.101,2.65-6.36,3.55c0.851-2.01,4.41-1.99,5.101-4.34
			c-1.21,0.01-1.771,1.38-2.921,1.53c-0.199-0.24,0.141-0.74-0.189-0.92c-1.89,1.06-3.91,3.49-6.021,4.52
			c-0.579,0.29-1.22,0.16-1.689,0.94C179.951,92.104,180.25,92.844,179.981,93.424z M178.47,119.974
			c-0.18,0.23-0.22,0.76-0.319,0.91c-0.561,0.84-2.431,2.59-3.36,3.25c-0.53,0.38-1.609,0.5-2.05,0.98
			c-0.46,0.52,0.29,0.14,0.09,0.72c-0.17,0.51-3,2.189-4.06,2.819c-0.46,0.28-0.73,0.73-0.78,0.75c-0.8,0.36-0.49-0.21-1.22,0.08
			c-0.23,0.101-1.71,1.561,0.34,0.98c0.39-0.11,0.939-0.67,0.939-0.7c0.73-0.36,1.08-0.09,1.931-0.68
			c0.189-0.13,0.06-0.47,0.22-0.61c0.22-0.2,0.91-0.39,1.22-0.59c1.04-0.66,1.65-1.6,2.79-2.59c0.431-0.37,1.83-1,2.42-1.54
			c1.181-1.09,1.99-2.64,3.011-3.71c0.21-0.22,0.489-0.03,0.76-0.24c0.09-0.07,0.319-0.67,0.729-1.1c0.471-0.49,1.69-1.36,1.67-2.32
			c-0.97,0-1.189,0.44-2.01,1.34C180.21,118.364,179.081,119.224,178.47,119.974z M177.581,118.134c0.51-0.42,1.11-1.33,1.66-1.8
			c0.62-0.53,0.979-0.66,1.3-1.76c-2.05,1.54-3.72,3.25-5.87,4.579c-0.64,0.391-1.72,0.48-1.75,1.601
			c0.271,0.03,0.65,0.08,1.011,0.01c1.159-0.22,0.979-0.76,2.17-1.79C176.531,118.594,177.181,118.464,177.581,118.134z
			 M142.981,111.914c-1.261,1.029,0.609,1.439,1.81,1.149c0.21,0.78-1.25,0.9-1.6,1.65c-0.29,0.6-0.33,1.56,0.16,1.93
			c1.1,0.82,2.43-0.79,3.92,0.021c-0.65,0.859-1.73,1.85-2.641,2.64c-0.279,0.26-1.71,0.96-0.89,1.57c0.55,0.399,1.51-0.49,2.1-0.63
			c1.17-0.28,2.03,0.04,2.95-0.15c-0.75,0.56-1.939,2.36-3,3.2c-0.08,0.06-0.99,0.399-1.03,0.49c-0.279,0.609-0.04,1.34,0.48,1.529
			c0.59,0.21,0.479-0.54,1.13-0.79c-0.01,0,1.01-0.06,1.58-0.13c1-0.109,2.14-0.149,3.01-0.3c-0.12,0.8-0.939,0.771-1.45,1.19
			c-1.489,1.25-2.77,2.85-4.14,4.51c1.74,0.84,2.05-0.79,3.48-1.16c0.319-0.09,0.71,0.13,1.159,0.07
			c1.36-0.19,2.471-0.551,4.131-0.601c0.079,0,0.85,0.11,1.02,0.021c0.91-0.51,1.72,0.02,2.95-0.15c0.13-1.24-1.3-0.84-1.92-0.85
			c-2.25-0.03-5.04,0.359-7.08,0.75c0.51-0.73,1.39-1.601,2.33-2.25c0.439-0.311,1.08-0.79,1.54-0.99
			c0.29-0.13,0.79,0.01,1.069-0.14c0.36-0.181,0.511-0.75,0.98-0.841c1.14-0.229,2.81,0.61,4.01,0.221c0.2-1.351-1.3-0.67-1.97-0.7
			c-0.5-0.021-1.061-0.32-1.42-0.33c-2.561-0.02-5.74,0.97-8.141,0.88c0.29-1.229,1.33-1.81,2.48-2.7c0.67-0.52,1.33-1.22,1.85-1.39
			c0.67-0.23,1.99,0.16,2.9,0c0.1-0.02,0.26-0.4,0.31-0.41c1.21-0.05,2.561,0.51,3.75,0.48c-0.569,0.72-1.199,1.33-1.76,2.1
			c1.311,1.4,2.601-1.46,3.7-2.28c0.62-0.449,1.51-0.399,2.3-0.72c0.24-0.1,0.42-0.49,0.72-0.6c0.21-0.07,0.58-0.021,0.71-0.09
			c0.15-0.07,0.221-0.49,0.37-0.551c0.36-0.149,0.9,0.03,1.221-0.08c0.1-0.029,0.06-0.42,0.159-0.46
			c0.171-0.069,0.351,0.091,0.511,0.011c0.489-0.24,2.029-0.28,2.399-1.021c-2.1-0.49-4.08,1.44-6.319,1.521
			c0.26-0.65,0.77-0.551,1.18-0.95c0.52-0.51,0.79-1.46,1.35-1.91c0.86-0.68,2.9-0.48,4.091-0.95c0.3-0.12,0.329-0.45,0.51-0.5
			c0.77-0.22,2.25,0.29,2.46-1.17c-1.351,0.48-3.44,0.87-5.26,1.38c-0.28,0.08-0.671,0.38-0.82,0.391
			c-0.32,0.04-0.76-0.311-1.11-0.221c-0.149,0.04-0.55,0.431-0.87,0.55c-0.31,0.101-0.899,0.051-1.069,0.131
			c-0.24,0.119-0.32,0.58-0.57,0.649c-0.37,0.11-1.06-0.03-1.38,0.03c-0.36,0.07-0.79,0.11-0.98,0.33l-0.97-0.53
			c0.84,0,2.89-2.14,3.37-2.37c0.53-0.25,1.25-0.29,1.89-0.52c1.051-0.391,0.98-0.471,2.09-0.63c0.341-0.051,0.54-0.45,0.87-0.551
			c1.49-0.43,3.11-0.399,4.341-0.689c0.899-0.21,1.46-0.53,2.6-0.61c0.64-0.05,1.56,0.41,1.34-0.899
			c-4.03,0.46-7.729,1.59-11.479,2.609c0.22-0.979,1.42-1.569,2.02-2.359c0.14-0.181,0.09-0.61,0.26-0.75
			c0.33-0.29,0.75-0.341,1.391-0.54c0.739-0.24,1.06-0.271,1.979-0.32c0.57-0.04,1.24-0.64,1.79-0.74
			c0.19-0.029,0.43,0.26,0.61,0.221c0.16-0.04,0.18-0.36,0.31-0.4c0.8-0.25,1.99-0.03,2.8-0.21c0.65-0.15,1.341-0.42,1.69-0.94
			c-0.021,0-0.05,0-0.07,0l0.03-0.819c0.1,0.06,0.24,0.109,0.46,0.12c0.8,0.06,0.96-0.82,1.7-1.45c0.42-0.351,1.149-0.45,1.7-0.94
			c0.75-0.66,1.13-1.689,1.859-2.399c0.92-0.881,2.42-1.36,3.44-2.03c0.26-0.17,0.37-0.53,0.58-0.65c0.47-0.27,2.109-0.63,2.96-1.17
			c0.35-0.229,0.46-0.59,0.569-0.649c-0.01,0.01,2.08-0.471,1.44-1.2c-0.52-0.601-2.35,0.99-3.01,1.319
			c-0.65,0.33-1.351,0.381-1.74,0.58c-0.479,0.261-1.02,1.011-1.39,1.051c-0.62,0.06,0.3-0.9-1.061-0.37
			c-0.13,0.05-0.26,0.109-0.37,0.18c0.061-0.04,0.11-0.06,0.16-0.09c0.391-0.2,0.62-0.66,0.98-0.84c0.279-0.15,0.729-0.07,0.92-0.19
			c0.38-0.24,0.859-0.95,1.49-1.35c0.89-0.561,2.1-0.82,2.67-1.28c0.949-0.75,1.21-2.09-0.03-1.37c-0.28,0.16-0.69,0.79-0.83,0.9
			c-0.74,0.58-1.95,1.08-2.97,1.68c-0.48,0.28-0.8,0.73-1.19,0.95c-0.859,0.49-2,0.7-2.609,1.12c-0.311,0.22-1.41,0.989-1.641,0.79
			c-0.08-0.08,1.72-1.84,2.38-2.4c1.04-0.89,2.391-1.84,3.65-2.64c1.52-0.94,2.92-1.44,4.88-2.71c0.24-0.16,0.5-0.57,0.77-0.75
			c0.511-0.33,2.311-1.09,2.41-1.53c0.141-0.54-0.93-0.89-1.47-0.18c-0.12,0.17,0.11,0.43-0.01,0.51
			c-0.65,0.47-1.74,0.97-2.561,1.48c-1.01,0.62-2.14,1.18-3.239,1.93c-0.36,0.25-0.83,0.79-0.971,0.85
			c-0.33,0.12-0.85-0.21-1.17-0.07c-0.189,0.07-1.069,0.801-1.39,1.04c-0.43,0.311-0.811,0.851-1.24,1.101
			c-0.62,0.359-1.399,0.229-1.939,0.68c-0.171,0.13-0.15,0.57-0.271,0.75c-0.52,0.771-1.47,0.78-2.06,1.49
			c-0.33-0.91-0.96-0.37-1.771-0.28c-1.06,0.12-2.35-0.2-3.399-0.01c-0.44,0.08-2.681,1.17-3.11,0.61
			c-0.84-1.08,1.88-1.011,2.61-1.12c0.93-0.15,2.04-0.37,3.01-0.82c0.01-1.04-1.15-0.21-1.47-0.17
			c-0.351,0.04-0.841-0.18-1.171-0.07c-0.199,0.061-0.3,0.471-0.52,0.5c-0.69,0.08-1.59-0.319-2.28-0.3
			c-0.859,0.04-1.529,0.63-2.29,0.22c0.221-0.27,0.36-0.59,0.62-0.8c0.24-0.2,1.04-0.71,1.49-0.84c0.79-0.24,1.62,0.01,2.29-0.22
			c0.39-0.13,0.59-0.561,0.93-0.69c0.48-0.189,1.72,0.28,1.49-0.84c-1.5-0.13-2.49,0.76-3.98,0.64
			c-0.46-0.35,0.261-0.569-0.04-0.859c-0.8-0.57-1.329,0.56-1.89,1.029c-0.91,0.75-2.91,2.28-3.97,3.04
			c-0.311,0.221-1.44,0.891-1.891,0.53c0.051,0.03-0.22-1.5-0.229-1.28c0.02-0.43,0.56-1.649,0.35-2.25l1.73-0.05
			c0.17,0.42,0.92,0.42,1.85-0.31c0.66-0.521,1.4-1.13,1.69-1.95c0.41-1.18,1.7-1.25,1.87-2.68c1.92,0.76,3.489,0.8,5.3,0.59
			c0.58-0.07,1.189-0.16,1.85-0.27c0.891-0.14,7.41-3.44,6.79-4.11c2.19-0.31,3.08-2.5,4.761-3.62c0.97-0.64,2.14-0.72,3.26-0.62
			c1.149,0.11,1.479,1.09,2.66,0.51c2.06-1.02,4.8-4.1,5.67-6.2c0.449-1.08,1.819-1.78,2.56-2.66c1.061-1.26,1.57-3.01,2.811-4.12
			c1.02,1.03-1.25,2.86-0.41,4.15c1.16,1.81,2.029,0.84,2.819-0.45c1.33-2.19,2.33-4.6,3.94-6.24c0.67,1.77-0.75,3.89-1.05,5.64
			c-0.38,2.18-1.78,4.14-2.45,6.25c-0.45,1.4-1.06,2.88-1.771,4.35c-1.18,2.45-2.619,4.87-4.05,6.89c-1.17,1.67-1.72,3.72-3.09,5.2
			c-1.55,1.67-2.57,3.899-3.71,5.859c-1.78,3.05-3.42,5.96-5.31,8.97c-1.25,2-2.69,3.87-3.96,5.851
			c-0.591,0.899-1.311,1.88-1.62,2.92c-0.29,0.95-0.74,1.53-1.37,2.33c-0.69,0.88-1.351,1.77-1.99,2.68
			c-0.86,1.21-2.3,3.9-5.33,6.48c-2.6,2.21-3.67,5.93-5.79,8.46c-0.64,0.76-3.17,3.359-2.93,4.479c0.33,1.58,3.49,1.42,4.649,1.29
			c-0.869,0.09-0.989,0.86-0.47,0.48c-1.21,1.09-2.89,1.42-4.08,2.529c-0.87,0.811-3.39,2.021-4.56,2.211
			c-3.061,0.52-6.37,1.939-9.28,1.819c-3.149-0.13-6.04,1.26-8.939,1.41c-4.25,0.23-8.45,1.63-12.69,2.17
			c-4.31,0.55-8.68,0.68-12.97,1.42c-1.91,0.33-3.79,0.851-5.67,1.29c-0.721,0.17-1.04,0.57-1.511,1.09
			c-0.689,0.75-1.71,0.91-2.6,1.311c-6.32,2.79-13.28,4.92-19.97,7.58c-1.78,0.71-3.57,1.43-5.37,2.1l-0.65-1.76
			c2.68-0.99,5.3-2.29,7.79-3.4c1.7-0.75,3.08-1.25,4.78-1.75c1.15-0.33,3.66-0.88,4.41-1.85c0.5-0.65,2.52-1.391,3.36-1.73
			c1.45-0.6,2.56-1.33,3.87-1.92c0.12-0.17,0.24-0.33,0.36-0.5c0.96,2.66,4.12-0.569,4.72-1.47c1.66-2.49,3.41-5,4.95-7.57
			c0.16-0.27,0.31-0.55,0.46-0.83l0.54,0.341c-0.15,0.22,0.07,0.409-0.05,0.659c-0.101,0.19-1.79,1.71-1.16,2.32
			c0.46,0.44,1.89-0.79,2.3-1.3l0.37,0.3c-1,1.23-1.9,2.46-2.56,3.6c1.14,0.761,1.64-0.689,2.149-1.29
			c2.36-2.76,5.351-6.34,8.23-8.859c0.149-0.12,0.479-0.07,0.56-0.141c0.34-0.31,0.37-0.93,0.88-1.05c0.25-0.06,0.69,0.41,0.91,0.32
			c1.2-0.5,1.28-2.34,2.4-3.42c0.75-0.72,1.47-0.75,2.149-1.29c-0.42,1.86-1.85,2.74-2.66,4.18c-0.189,0.33,0.021,0.29-0.319,0.91
			c-0.17,0.311-1.07,1.17-0.58,1.67c0.79,0.811,0.17,0.021,0.71-0.09c1.03-0.21,1.14-1.97,2.14-3.17c0.3-0.37,1.58-1.18,2.71-1.43
			c0.23-0.051,0.551,0.189,0.811,0.119c0.26-0.069,0.3-0.42,0.52-0.5c0.351-0.14,0.92,0.061,1.37-0.029
			c0.71-0.13,1.08-0.61,1.69-0.431c0.699,0.21,2.05,0.44,1.89-0.529c-0.12-0.681-1.62-0.44-2.08-0.391
			c-0.39,0.04-0.92-0.18-0.96-0.17c-0.35,0.09-0.66,0.65-1.13,0.8c-0.17,0.051-0.44-0.25-0.61-0.21
			c-1.01,0.181-1.97,1.021-2.76,1.07c0.2-0.8,0.54-1.79,1.36-2.42c0.819-0.64,4.149-1.11,5-1.14c0.729-0.021,2.319,0.649,2.04-0.471
			c-0.13-0.479-2.101-0.64-2.69-0.6c-0.82,0.04-2.42,0.75-3.36,0.85c-0.109-0.34,0.211-0.359,0.41-0.699
			c0.07-0.11,0.23-0.851,0.32-0.91c0.95-0.55,3.01,0.91,3.62-0.601c-2.04-1.1-4.17-0.14-6.09-0.1c0.76-0.9,0.779-1.37,1-2.37
			c0.069-0.33,0.42-0.24,0.46-0.35c0.069-0.15-0.26-0.44-0.141-0.561c0.29-0.29,1.57-0.479,2.551-0.47
			c0.83,0.02,2.6,0.63,2.649-0.26c0.05-0.87-3.42-0.62-4.26-0.48c-0.68,0.11-1.17,0.101-1.43,0.181
			c-0.44,0.149-0.44,0.479-0.521,0.5c-0.72,0.159-0.68-0.171-1.72,0.069c-0.04,0.01-1.21,0.8-1.54,0.49
			c-0.61-0.59,0.84-1.93,1.16-2.32c0.24-0.29,0.27-0.84,0.52-1.01c0.45-0.29,3.08-0.479,4.23-0.39c0.58,0.05,2.05,0.93,2.24-0.061
			c0.289-1.62-4.98-0.52-5.53-0.75c-0.76-0.319-0.13-0.66-0.75-0.779c-0.51,0.079-0.38,0.6-0.83,0.899
			c-1.351,0.9-4.3,0.561-4.9,1.34c-0.27,0.36-0.22,0.91-0.17,0.971c0.71,0.92,2.34-1.471,3.37-0.86
			c-0.36,0.67-0.43,2.15-1.479,3.229c-0.58,0.601-3.101,0.841-0.94,1.71c-0.19,0.65-0.52,1.021-0.84,1.41
			c0.04-0.96-0.46-1.72-0.46-2.55c0-0.3,0.33-0.729,0.37-1.06c0.14-1.13-0.75-2.49-0.351-3.36c0.21-0.46,0.66-0.19,1.03-0.49
			c0.25-0.21,0.42-0.97,0.78-1.26c0.26-0.21,0.62-0.14,1.33-0.39c0.52-0.17,0.979-0.641,1.279-0.74c0.17-0.05,0.431,0.25,0.61,0.22
			c0.61-0.109,1.29-0.55,1.94-0.68c1.26-0.26,1.96-0.01,3.399,0c1.32,0.02,1.51-1.12-0.89-1.33c-2.271-0.21-4.601,1.46-6.891,1.66
			c0.07-0.98,0.811-2.41,1.181-3.33c0.729-1.86,5.72-0.16,6.89-1.67c-1.91-0.891-4.08-0.101-5.85,0.16
			c-0.271-0.54,0.47-1.57-0.38-1.841c-0.021,0.801-2.561,3.07-3.19,2.29c0.01,0.011,0.31-2.72,0.25-2.64
			c0.271-0.34,0.91-0.09,1.78-0.229c1.13-0.171,3.51-0.681,4.689-0.73c0.87-0.04,2.44,0.7,2.4-0.52
			c-1.41-0.28-2.98-0.511-4.521-0.23c-0.31,0.06-0.689,0.44-1.029,0.5c-2.42,0.36-5.21-0.1-7.13,1.4
			c0.58,0.93,1.229,0.09,1.869-0.021c0.15-0.02,1.15,0.04,1.171,0.07c0.06,0.07-0.74,3.81-1.931,3.07
			c-0.069,1.55-0.37,3.869-1.16,5.72l-0.81-0.08c0.02-0.061,0.04-0.12,0.05-0.18c-0.63-0.511-1.41,0.13-1.76-0.801
			c-1.88,2.98-4.88,4.88-7.09,7.561c-0.21-0.84-0.74-1.54-0.67-2.45c0.58-0.06,0.97,0.32,1.52-0.08c1.23-0.9,1.271-2.49,2.3-3.52
			c1.62-1.631,4.65-2.42,5.561-4.681c-2.141-0.149-2.9,2.431-4.771,2.92c0.7-1.3,0.59-2.989,1.69-4.069c1-0.98,2.68-1.301,3.25-2.71
			c-1.13-0.721-4.601,2.489-5.38,3.38c-0.53,0.6-1.271,0.72-1.86,1.229c-0.38,0.32-0.49,0.9-0.89,1.24
			c-0.33,0.28-1.99,2.1-2.32,2.06c-2.37-0.289,3.69-5.649,4.16-6c1.52-1.13,3.11-2.109,4.56-3.34c0.641-0.529,1.29-1.17,2.04-1.54
			c0.7-0.35,0.48,0.95,1.101,0.91c0.33-1.92,2.069-1.58,3.62-2.05c1.239-0.38,2.479-0.82,3.8-0.73c0.88,0.07,1.39-0.51,2.22-0.479
			c1.4,0.07,2.78-0.8,0.71-0.83c-1.42-0.03-3.25,0.79-4.439,0.59c-2.54-0.41-5.881,3-5.44-1.6c0.3-3.11,8.21-0.38,8.96-2.82
			c-0.43-0.07-0.86-0.12-1.28-0.14l0.08-1.49c0.33,0,0.91-0.49,0.931-0.51c0.26-0.42,0.229-1.971,0.3-2.79
			c0.13-1.521,0.609-3.141,0.689-4.87c0.04-0.84-0.3-1.65-0.37-2.34c-0.069-0.851,0.311-1.78-0.42-2.2
			c1.11-0.21,1.271-0.91,1.561-2.43l1.96,0.25c0,0.17,0.09,0.34,0.32,0.47c0.109,0.06,0.25,0.09,0.399,0.08l0.101,1.689
			c-0.351-0.149-0.671-0.3-0.881-0.199c-0.1,0.05-0.1,0.96-0.159,0.96c0.29,0.3,1.319,0.439,1.909,0.399l0.08,1.4
			c-0.56,0.12-1.029,0.3-1.02,0.76c1.7,0.75,2.27-0.86,3.77-0.55c-0.75,2.04-2.439,2.09-3.56,3.35c0.5,0.36,0.56-0.229,1.01,0.011
			c-0.6,0.859-0.72,1.239-1.41,2.069c0.45,0.24,0.641-0.09,1.12,0.22c0,0.37-0.359,0.91,0.021,1.37c0.75,0.32,1.05-0.279,1.83,0.13
			c-0.12,1.16-1.23,0.521-1.9,1.04c-0.26,0.21-0.14,0.62-0.31,0.91c-0.421,0.71-1.07,0.71-0.79,1.25
			c0.079,0.16,1.229,0.521,1.369,0.49c0.341-0.1,0.08-0.37,0.41-0.71c1.04-1.05,3.38-0.83,4.75-0.89
			c-0.66,0.489-0.899,1.56-1.609,2.159c-1.2,1.021-2.79,0.051-3.931,1c0.311,0.91,1.16,0.311,1.86,0.49
			c0.09,0.53-0.26,0.58-0.82,0.9c-0.39,0.229-1.26,0.31-1.33,0.39c-0.64,0.74-0.43,1.87,1.04,1.891c0.311,0.01,0.78-0.21,1.271-0.23
			c1.1-0.04,2.09-0.13,3.16-0.25c0.359-0.04,0.689-0.04,1.01-0.03l-0.01,0.551c-0.66,0.239-1.021,0.289-1.69,0.939
			c-0.86,0.84-0.99,2.021-2.52,1.84C143.891,112.063,143.481,111.504,142.981,111.914z M160.481,141.074
			c-1.16,0.84-2.771,1.43-4.2,2.27c-1.35,0.79-2.93,1.69-4.21,2.26c-0.36,0.16-0.92,0.07-1.271,0.24
			c-0.18,0.08-0.199,0.46-0.369,0.55c-1.78,0.891-4.301,1.76-6.44,2.33c0.57-0.84,1.66-1.08,2.57-1.479
			c1.89-0.841,3.63-1.57,5.63-2.45c1.02-0.45,2.18-0.68,2.96-1.17c0.31-0.19,0.5-0.59,0.78-0.75c0.189-0.101,0.449,0.149,0.659,0.06
			c0.12-0.05,0.29-0.5,0.57-0.649c0.2-0.101,0.51,0.029,0.71-0.091c0.18-0.1,0.311-0.5,0.57-0.649c0.47-0.26,1.689-0.42,1.25-1.601
			c-1.21,0.551-2.13,1.681-3.4,2.381c-0.54,0.3-1.34,0.39-1.939,0.68c-1.42,0.68-2.74,1.39-4.301,2.06
			c-0.859,0.37-1.77,0.49-2.51,0.82c-0.41,0.19-0.67,0.74-1.13,0.8c-0.22,0.021-0.68-0.38-0.91-0.319
			c-0.72,0.189-2,1.479-2.819,1.729c-0.28,0.08-0.671-0.2-0.961-0.17c-0.51,0.06-1.17,0.43-1.739,0.58
			c-2.78,0.72-6.09,0.95-8.98,1.78c-1,0.29-2.59,0.359-2.92,1.529c0.83,0.28,1.33-0.55,2.101-0.63
			c1.51-0.149,3.069-0.729,4.59-0.939c-0.101,1.88,1.5,0.47,2.479,0.199c0.37-0.109,0.88-0.05,1.431-0.18
			c0.77-0.189,3.18-1.229,3.829-1.21c0.301,0.01,0.631,0.64,0.95,0.68c0.38,0.051,2.51-0.729,3.07-0.97
			c0.57-0.229,1.07-0.67,1.49-0.84c0.29-0.11,0.569,0.06,0.859-0.03c0.61-0.189,1.11-0.8,1.75-1.09c1.931-0.9,3.65-1.57,5.38-2.71
			c2.98-1.95,6.551-2.61,8.561-4.479C163.361,138.983,161.541,140.304,160.481,141.074z M185.25,109.414
			c0.641,0.479,4.95-3.45,4.45-4.9c-1.24,0.75-2.07,2.05-3.35,3.24C186.321,107.784,184.531,108.874,185.25,109.414z" />
	<path class="eg-ill-fillable" d="M126.331,95.324c-0.31,0.18-3.13,1.52-3.04,2.34c0.101,0.79,1.45,0.58,1.63,0.229
			c0.221-0.45-0.21-0.17,0.061-0.66c0.26-0.479,1.7-1.619,2.83-2.239c0.739-0.41,1.779-0.41,2.449-0.67
			c0.83-0.32,2.19-1.19,3.53-1.32c-0.05,0.01,3.9,0.55,2.3-0.72c-0.09-0.07-1.21-0.33-1.779-0.28c-1.521,0.11-3.15,1.04-4.91,1.84
			c-0.61,0.29-1.33,0.26-1.891,0.53C126.851,94.714,126.88,94.994,126.331,95.324z M124.121,99.653
			c-1.01,0.961-1.16,1.16-0.89,1.561c0.64,0.95,1.149-0.58,1.29-0.74c0.319-0.39,2.16-1.62,2.87-1.88
			c0.34-0.13,0.819,0.04,1.229-0.08c1.25-0.36,2.64-1.26,3.99-1.66c0.91-0.279,1.939-0.21,2.7-0.42c0.43-0.109,0.92-0.55,1.02-0.49
			c0.39,0.23,0.48,1.381,0.23,1.79c-0.101,0.15-1.75,0.71-2.2,0.92c-1.351,0.62-2.811,1.341-4.311,2.07
			c-0.819,0.391-1.659,1.11-1.949,1.18c-1.08,0.28-1.49-0.289-1.881,0.021c0.061-0.04-0.789,0.95-0.479,1.37
			c0.5,0.68,4.56-1.82,5.17-2.101c0.43-0.199,1.03-0.239,1.12-0.29c1.08-0.569,1.24-0.949,2.57-1.479c0.46-0.18,1.51-0.5,1.529-0.48
			c0.54,0.44-0.33,1.73-0.34,1.921c0,0.119,0.561,2.239,0.58,2.25c0.03,0.01,0.061,0.02,0.09,0.02l-0.08,1.49
			c-2.63-0.17-5.18,0.479-7.59,1.609c-0.08-1.27-1.06-2.27-1.229-0.399c-0.13,1.47,0.8,4.34,0.08,5.62
			c-1.44-1.03-4.25,2.26-5.341,3.08c-2.3,1.72-4.689,3.39-6.699,5.46c-1.28-2.011,0.439-3.11,1.899-4.62
			c2.26-2.36,4.99-4.26,7.78-5.94c-2.16-1.79-8.561,5.33-10.021,6.69c-1.13-2.88,5.15-6.971,7.2-8.36c0.141-0.1,3.73-2.53,1.62-2.14
			c-1.12,0.21-2.74,1.97-3.649,2.569c-1.24,0.811-2.311,1.971-3.381,2.99c-0.26,0.25-2.529,1.79-2.529,1.101
			c0-0.12,0.069-0.301,0.229-0.57c1.69-2.89,6.351-3.91,7.21-7.37c-2.59,1.021-4.04,4.17-6.609,5.39
			c-1.32,0.62-0.65-1.859-0.4-2.399c0.77-1.72,2.96-1.99,3.82-3.601c-1.28-0.55-2.471,1.21-3.48,1.67
			c-0.33-1.069,2.5-5.329,3.141-4.93c0.659,0.41,0.979,1.38,1.869,1.26c1.08-0.149,1.95-0.569,1.95-1.71
			c0-0.72,0.13-2.89,0.48-5.159l0.76,0.119c-0.021,0.07-0.021,0.131,0,0.19c0.2,0.74,1.44,0.31,1.42,0.33
			c0.14-0.09,0.41-1.3,0.94-1.72c1.689-1.311,5.68-3.04,8.399-4.021c0.79-0.28,2.62-0.74,3-0.31c0.4,0.45-0.149,0.7-0.229,1.621
			c-0.03,0.439,0.3,0.81,0.29,1.13c-0.011,0.51-0.19,2.18-0.351,2.43c-0.3,0.47-1,0.42-1.38,0.54c-1.78,0.57-3.79,1.2-5.77,1.88
			C127.661,97.804,125.59,98.273,124.121,99.653z" />
	<path class="eg-ill-fillable" d="M62.971,37.804c3.58,2.93,7.24,8.13,8.18,12.73c0.35,1.72,0.39,3.7,0.29,5.46
			c-0.1,1.69-0.43,3.45-0.92,5.06c-1.02,3.4-3.11,6.69-5.99,8.8c-2.54,1.85-7.79,3.57-10.73,1.96c-2.73-1.5-6.12-3.46-7.35-6.41
			c-0.8-1.91-1.03-4.46-0.53-6.47c0.65-2.6,1.97-4.67,4.3-5.91c2.85-1.51,7.96-3.84,11.2-2.35c1.15,0.53,2.05,0.25,3.26,0.93
			c1.17,0.67,1.29,2.2,1.65,3.18c-4.5-3.45-12.58-2.36-16.45,1.7c-3.8,4.01-1.56,10.49,2.98,12.63c3.5,1.64,6.35,0.78,9.55-0.95
			c3.27-1.76,4.13-6.12,4.81-9.52c0.44-2.19,0.52-4.62,0.32-6.86c-0.65-6.93-4.81-12.39-10.85-15.78c-5.9-3.31-13.7-4.84-20.37-5.67
			c-7.01-0.88-13.73-2.04-20.48-4.07c-3.11-0.93-5.58-2.53-7.94-4.73c-1.02-0.94-4.13-3.17-3.95-4.89c1.38,1.14,2.66,2.4,3.99,3.61
			l0.01,0.01c3.02,2.76,7.34,4.55,11.22,5.72c3.18,0.97,6.52,1.26,9.81,1.88c2.96,0.56,5.92,1.18,8.97,1.56
			c2.9,0.36,5.65,0.72,8.47,1.23c1.61,0.29,3.18,0.7,4.76,1.17c1.86,0.55,3.39,1.48,5.17,2.17
			C58.73,34.934,60.991,36.184,62.971,37.804z" />
	<path class="eg-ill-fillable" d="M29.881,73.634c1.12-0.04,2.29,0.74,3.39,0.52c0.01,0,0.01,0,0.02,0c1.36-0.29,1.04-0.66,1.76,0.9
			c0.75,1.63,2.82,2.51,4.16,3.56c0.85,0.68,1.98,1.76,1.92,2.95c-0.05,0.99-0.84,3.62-2.25,3.23c-1.67-0.45-2.03,0.17-3.54,0.6
			c-1.37,0.38-3.32-0.01-4.58-0.58c-1.35-0.62-0.51-1.53,0.36-2.12c1.68-1.11,1.89-1.65,0.39-3.03c1.08-0.85,1.72-2.29,1.05-3.6
			C31.98,74.914,30.411,74.744,29.881,73.634z" />
	<path class="eg-ill-fillable" d="M43.781,84.494c-0.63,0.88,1.84,2.6,2.21,1.46c0.06-0.21-1.05-1.38-1.2-1.45
			C44.161,84.244,44.181,83.914,43.781,84.494z M45.121,83.094C45.601,85.984,48.601,83.444,45.121,83.094L45.121,83.094z
			 M48.73,85.894c0.41,0.33,1.79,0.39,2.78,0.81c1.39,0.59,2.5,1.59,2.94,0.86c0.25-0.42-3.97-2.28-4.74-2.52
			c-0.39-0.12-0.75-0.75-1.26-0.27C48.281,84.924,48.531,85.734,48.73,85.894z M46.991,92.773c0.03,1.79,2.09,2.271,3.95,3.78
			c0.58,0.46,2.41,2.57,3.03,1.58c0.48-0.79-0.93-1.17-1.5-1.56c-0.57-0.37-1.99-1.25-3.17-2.131
			C48.181,93.594,48.031,92.813,46.991,92.773z M47.741,87.754c-0.08-0.07-0.13-0.22-0.25-0.25c-0.19-0.06-0.84-0.41-0.97,0.33
			c-0.1,0.5,3.47,2.77,4.01,3.12c2.2,1.42,4.02,2.41,5.48,3.3c1.08,0.649,3.04,1.59,3.39,1.02c0.49-0.8-1.38-1.29-1.7-1.449
			c-2.57-1.311-4.66-2.471-7.5-4.351C49.261,88.864,48.361,88.444,47.741,87.754z M54.581,88.634c-1.29-0.66-3.32-1.19-4.55-1.6
			c-0.01,1.13,1.9,1.33,3.22,1.99c1.11,0.55,1.66,1.459,2.68,1.11C56.23,89.384,55.161,88.924,54.581,88.634z M63.511,89.394
			c0.56-0.65-1.65-2.42-2.66-1.62C60.631,88.184,62.991,90.004,63.511,89.394z M70.851,103.394c0.84-1.069-0.77-1.12-1.7-1.45
			c-1.01-0.359-0.76-0.56-1.62-0.739c-0.22-0.051-0.45,0.18-0.71,0.09c-1.1-0.41-2.05-1.24-3.12-1.78
			c-2.47-1.25-5.86-2.27-8.12-3.54c-0.83-0.47-1.61-1.2-2.46-1.72c-1.47-0.9-3.1-1.58-4.44-2.41c-1.41-0.89-2.74-2.3-3.5-3.11
			c-0.07-0.07-0.79-0.6-1.12-0.22c-0.67,0.79,2.85,3.34,3.6,3.82c0.28,0.18,0.66,0.149,1.06,0.37c2.12,1.14,4.28,3.12,6.84,4.279
			c0.39,0.4-0.68,0.5-0.32,0.91c2.59,1.49,5.51,3.431,7.86,4.3c-0.1-2.09-5.03-3.1-7.04-4.689c1.32,0.51,2.02,0.32,3.54,1.07
			c0.29,0.149,0.43,0.569,0.75,0.779c0.55,0.37,1.65,0.59,2.52,1.061c0.75,0.399,1.31,1.06,1.91,1.35
			C66.171,102.443,70.411,103.954,70.851,103.394z M73.521,102.114c0.02-1.36-2.21-1.591-3.68-2.15c-2.1-0.78-3.8-1.73-6.05-2.64
			c0.09,1.609,2.1,1.76,3.42,2.399C68.651,100.424,71.411,101.924,73.521,102.114z M82.851,106.384c-1.35-0.22-2.69,0.23-4.04,0.34
			c-0.47,0.04-0.84-0.12-1.3-0.149c-0.56-0.04-1.11,0.109-1.67,0.05c-0.94-0.09-1.86-0.15-2.78-0.37c-1.6-0.38-3.27-0.48-4.86-0.96
			c-2.46-0.74-4.91-1.51-7.26-2.55c-1.39-0.62-2.89-1.061-4.26-1.71c-0.97-0.471-1.98-0.82-2.87-1.42c-2.94-2-6.25-3.351-8.77-6.021
			c-0.61-0.64-1.14-1.36-1.73-2.01c-0.54-0.59-0.75-1.11-1.12-1.83c-0.21-0.4-0.45-0.88-0.58-1.29c-0.26-0.87-0.09-1.54,0.17-2.42
			c0.52-1.76,1.44-3.63,3.56-3.34c1.27,0.18,2.54,0.21,3.84,0.39c1.73,0.24,3.49,0.47,5.23,0.81c0.84,0.17,1.66,0.39,2.51,0.49
			c1.32,0.16,2.47,0.62,3.75,1.03c1.24,0.39,2.44,0.84,3.66,1.29c1.42,0.52,2.57,1,3.85,1.76c1.51,0.89,3,1.811,4.5,2.7
			c1.17,0.7,2.31,1.42,3.4,2.22c1.1,0.8,2.19,1.71,3.21,2.62c2.09,1.86,4.05,3.53,5.7,5.84c0.13,0.181,0.24,0.37,0.34,0.55
			C86.451,104.523,85.571,106.834,82.851,106.384z M81.181,106.004c0.8,0.08,1.42-0.19,1.84-0.88c-1.54-0.74-4.22-0.521-6.84-1.391
			c-0.65-0.21-0.99-0.89-1.87-0.489C75.491,104.894,78.941,105.773,81.181,106.004z" />
	<path class="eg-ill-fillable" d="M85.111,167.554c-2.6,0.97-5.23,1.87-7.92,2.561c-4.09,1.05-7.99,1.96-12.07,2.81
			c-7.34,1.52-14.71,3.91-22.25,2.75c-0.42-0.07-0.97-0.1-1.4,0.01c-0.02,0-0.04,0.01-0.05,0.01c-0.35-1.439-1.02-3.939-0.92-3.92
			c0.64,0.16,1.35,0.2,1.61,0.2c3.22,0.08,7.83-0.979,10.81-2.149c2.33-0.921,5.06-1.351,7.6-2.311c3.98-1.5,7.67-3.42,11.35-5.55
			c7.46-4.32,13.33-10.14,18.58-16.92c4-5.17,6.88-11.391,6.79-18.04c-0.1-7.73-4.19-14.44-9.32-19.95
			c-0.4-0.439-0.42-0.37-0.31-0.92c0.35-1.61,1.3-1.6,2.38-0.77c1.18,0.89,2.24,1.96,3.17,3.109c0.97,1.18,1.74,2.38,2.54,3.67
			c1.38,2.23,2.09,4.55,2.71,7.11c0.43,1.72,2.09,2.79,3.27,0.61c0.45-0.82,0.64-3.83,0.42-4.771c-0.49-2.01,0.24-4.37,0.23-6.52
			c-0.03-7.12-1.26-14.2-3.95-20.811c-1.85-4.54-4.56-8.67-7.5-12.59c-2.52-3.36-5.56-5.79-8.52-8.8c-1.48-1.52-3.07-2.63-4.89-3.73
			c-1.2-0.73-3.57-2.69-4.4-3.79c-0.24-0.31-0.3-1.48,0.06-1.74c0.65-0.46,1.96,0.82,2.43,1.16c0.97,0.71,2.06,1.21,3.04,1.91
			c1.19,0.86,2.29,1.92,3.45,2.87c6.42,5.31,12.37,11.18,16.41,18.54c3.52,6.42,6.36,13.76,7.68,20.76
			c1.43,7.59-0.71,17.04-2.84,24.33c-1.32,4.49-3.63,8.681-5.52,12.95c-1.86,4.2-3.98,7.67-7.37,10.83
			c-2.57,2.39-4.65,4.939-7.2,7.36c-2.54,2.409-5.42,4.449-8.03,6.77c-2.91,2.58,2.92,2.75,4.42,2.521
			c1.63-0.25,3.26-0.73,4.86-1.32L85.111,167.554z" />
	<path d="M197.05,87.504c0.23-0.29,0.66-0.46,0.721-0.6c0.109-0.24,0.06-1.24,0.13-1.31c0.88-0.98,1.79,0.06,1.76,0.79
			c-0.01,0.27-0.38,0.31-0.57,0.65c-0.09,0.18,0.101,0.36-0.06,0.66c-0.42,0.81-2.01,2.33-2.86,3.76
			c-0.43,0.739-1.149,1.84-2.01,1.85c-0.25-1.04,0.83-1.28,1.2-1.96c0.06-0.11-0.09-0.69-0.04-0.87c0.2-0.59,1.07-1.28,1.25-1.6
			C196.811,88.454,196.76,87.864,197.05,87.504z" />
	<path d="M189.701,104.514c0.5,1.45-3.81,5.38-4.45,4.9c-0.72-0.54,1.07-1.63,1.101-1.66
			C187.63,106.563,188.46,105.264,189.701,104.514z" />
	<path d="M190.25,96.184c-0.1,0.84-0.64,1.28-0.89,1.561c-0.92,1.069-1.351,1.35-2.271,2.1c-1.069,0.86-2.08,1.56-2.779,2.09
			c-0.23,0.16-1.61,1.63-2.21,1.44c-1.83-0.61,1.359-1.73,1.71-1.96c0.239-0.15,0.449-0.641,0.83-0.9c0.25-0.18,0.68-0.14,0.97-0.34
			c1.149-0.8,2.3-2.15,3.149-3.15C189.21,96.504,189.411,95.644,190.25,96.184z" />
	<path d="M189.321,81.894c0.55-0.3,0.939-0.97,1.64-0.79c-0.39,1.27-1.1,1.75-1.819,2.26c-0.33,0.23-0.561,0.72-0.83,0.9
			c-0.32,0.21-0.71,0.17-0.971,0.34c-0.1,0.07-0.05,0.39-0.159,0.45c-0.29,0.18-0.521,0.07-0.771,0.24
			c-0.67,0.49-1.33,1.25-1.9,1.55c-0.52,0.27-1.18,0.2-1.68,0.43c-0.09,0.03-0.08,0.43-0.16,0.45c-0.39,0.08-0.76-0.27-1.12-0.22
			c0.341-0.02,0.16-0.72,0.32-0.91c0.57-0.67,1.65-0.63,2.46-1.18c0.12-0.09-0.149-0.34,0.01-0.51c0.28-0.28,1.181-0.54,1.9-1.03
			C187.431,83.054,188.351,82.414,189.321,81.894z" />
	<path d="M184.531,91.614c-0.33,0.189-1.061,0.159-1.33,0.39c-0.08,0.07-0.06,0.41-0.16,0.45c-0.229,0.12-0.62-0.051-0.859,0.04
			c-0.721,0.279-1.341,1.239-2.2,0.93c0.27-0.58-0.03-1.32,0.34-1.93c0.47-0.78,1.11-0.65,1.689-0.94
			c2.11-1.03,4.131-3.46,6.021-4.52c0.33,0.18-0.01,0.68,0.189,0.92c1.15-0.15,1.711-1.52,2.921-1.53
			c-0.69,2.35-4.25,2.33-5.101,4.34c2.26-0.9,4.17-2.52,6.36-3.55c0.18,1.38-1.63,1.66-2.48,2.19c-1.13,0.71-2.27,1.6-3.489,2.18
			c-0.48,0.229-1.061,0.229-1.53,0.479C184.72,91.153,184.71,91.523,184.531,91.614z" />
	<path d="M189.901,95.724c-0.851,0.54-2.49,0.9-2.96,1.17c-0.21,0.12-0.32,0.48-0.58,0.65c-1.021,0.67-2.521,1.149-3.44,2.03
			c-0.729,0.71-1.109,1.739-1.859,2.399c-0.551,0.49-1.28,0.59-1.7,0.94c-0.74,0.63-0.9,1.51-1.7,1.45
			c-0.22-0.011-0.36-0.061-0.46-0.12c-0.52-0.351,0.68-1.28,0.84-1.45c1.15-1.2,2.811-3.34,3.37-3.76
			c0.45-0.341,0.45-0.011,1.03-0.49c0.66-0.55,1.08-1.42,1.89-1.91c0,0,0,0,0.01,0c0.11-0.07,0.24-0.13,0.37-0.18
			c1.36-0.53,0.44,0.43,1.061,0.37c0.37-0.04,0.91-0.79,1.39-1.051c0.39-0.199,1.09-0.25,1.74-0.58c0.66-0.329,2.49-1.92,3.01-1.319
			c0.64,0.729-1.45,1.21-1.44,1.2C190.361,95.134,190.25,95.494,189.901,95.724z" />
	<path d="M178.13,87.854c-0.66,0.11-1.27,0.2-1.85,0.27l-0.021-0.38c0.04,0,0.08-0.01,0.11-0.02c0.17-0.45-0.17-0.87-0.63-0.87
			l-0.03-0.19c2.681-0.28,4.95-2.26,7.4-3.3c2.42-1.03,3.76-3.14,5.689-4.75c1.74-1.46,2.75-1.23,4.65-0.72
			c0.62,0.16,0.57-0.57,1.35,0.07c0.521,0.43,0.87-0.06,1.29-0.4c2.57-2.04,3.931-5.59,6.551-7.6c1.71-1.31,2.069-3.79,3.89-5.01
			c0.8-0.54,2.15-0.83,2.17,0.59c0.02,1.1-0.84,2.07-0.8,3.18c0.06,1.59,1.47-1.67,1.439-1.59c0.391-0.75,4.71-7.36,5.62-6.02
			c0.63,0.93,0.04,1.37-0.08,2.35c-0.17,1.51-0.54,3.02-0.91,4.5c-0.96,3.89-2.63,7.84-4.68,11.29c-0.34,0.58-0.64,1.18-0.93,1.79
			l-0.641-0.31c0.711-1.47,1.32-2.95,1.771-4.35c0.67-2.11,2.07-4.07,2.45-6.25c0.3-1.75,1.72-3.87,1.05-5.64
			c-1.61,1.64-2.61,4.05-3.94,6.24c-0.79,1.29-1.659,2.26-2.819,0.45c-0.84-1.29,1.43-3.12,0.41-4.15
			c-1.24,1.11-1.75,2.86-2.811,4.12c-0.74,0.88-2.11,1.58-2.56,2.66c-0.87,2.1-3.61,5.18-5.67,6.2c-1.181,0.58-1.511-0.4-2.66-0.51
			c-1.12-0.1-2.29-0.02-3.26,0.62c-1.681,1.12-2.57,3.31-4.761,3.62C185.541,84.414,179.021,87.714,178.13,87.854z" />
	<path d="M174.67,119.153c2.15-1.329,3.82-3.039,5.87-4.579c-0.32,1.1-0.68,1.229-1.3,1.76c-0.55,0.47-1.15,1.38-1.66,1.8
			c-0.399,0.33-1.05,0.46-1.479,0.84c-1.19,1.03-1.011,1.57-2.17,1.79c-0.36,0.07-0.74,0.021-1.011-0.01
			C172.951,119.634,174.031,119.544,174.67,119.153z" />
	<path d="M178.151,120.884c0.1-0.15,0.14-0.68,0.319-0.91c0.61-0.75,1.74-1.609,2.32-2.25c0.82-0.899,1.04-1.34,2.01-1.34
			c0.021,0.96-1.199,1.83-1.67,2.32c-0.41,0.43-0.64,1.029-0.729,1.1c-0.271,0.21-0.55,0.021-0.76,0.24
			c-1.021,1.07-1.83,2.62-3.011,3.71c-0.59,0.54-1.989,1.17-2.42,1.54c-1.14,0.99-1.75,1.93-2.79,2.59c-0.31,0.2-1,0.39-1.22,0.59
			c-0.16,0.141-0.03,0.48-0.22,0.61c-0.851,0.59-1.2,0.319-1.931,0.68c0,0.03-0.55,0.59-0.939,0.7c-2.05,0.58-0.57-0.88-0.34-0.98
			c0.729-0.29,0.42,0.28,1.22-0.08c0.05-0.02,0.32-0.47,0.78-0.75c1.06-0.63,3.89-2.31,4.06-2.819c0.2-0.58-0.55-0.2-0.09-0.72
			c0.44-0.48,1.52-0.601,2.05-0.98C175.72,123.474,177.59,121.724,178.151,120.884z" />
	<path d="M165.361,86.064c0.47,1.17-3.07,1.2-3.311,0.71C161.47,85.564,164.831,86.044,165.361,86.064z" />
	<path d="M164.75,138.144c0.021-0.01,0.04-0.04,0.05-0.069C164.911,138.044,164.92,138.063,164.75,138.144z" />
	<path d="M174.231,130.074c0.42-0.24,0.67-0.771,1.13-0.29c0.17,0.68-0.58,0.619-1.04,1c-0.771,0.64-1.16,0.899-1.851,1.39
			c-0.35,0.26-0.239,0.37-0.52,0.5c-0.2,0.1-0.1,0.26-0.31,0.4c-1.091,0.79-2.73,1.81-3.601,2.479c-0.42,0.34-0.72,0.9-1.08,1.16
			c-0.58,0.4-1.569,0.55-2.05,0.979c-0.07,0.051-0.07,0.261-0.11,0.381c-0.31,0.05-1.489,0.399-1.63,0.199
			c-0.46-0.649,0.69-1.6,0.94-1.72c0.66-0.01-0.2,0.69,0.45,0.67c0.899-0.84,2.109-1.439,3.189-2.28
			c0.681-0.529,1.23-1.369,1.96-1.699c0.311-0.13,0.65,0,0.92-0.181c0.23-0.17,0.21-0.489,0.41-0.71
			C171.831,131.534,173.42,130.523,174.231,130.074z" />
	<path d="M163.951,134.114c0.81-0.391,1.62-1.24,2.47-1.681c0.36-0.189,0.851-0.12,1.12-0.29c0.2-0.12,0.24-0.56,0.42-0.71
			c0.641-0.49,1.63-0.74,2.311-1.229c0.66-0.471,1.35-0.9,2-1.34c0.96-0.641,1.71-1.69,2.42-1.53c0.05,0.84-0.91,1.52-1.771,2.1
			c-1.51,1.05-2.55,1.45-4.1,2.48c-1.89,1.25-2.51,1.46-4.521,2.67c-0.939,0.56-0.409,0.59-0.979,0.84
			c-0.101,0.05-1.2,0.39-1.32-0.12c-0.09-0.38,0.71-0.84,0.83-0.9C163.201,134.204,163.361,134.403,163.951,134.114z" />
	<path d="M163.411,121.144c-0.4,0.23-1.03,1.181-1.68,1.44c0-0.03-0.92,0.13-1.04-0.01c-0.67-0.79,1.1-1.131,1.29-1.25
			c0.1-0.061,0.06-0.41,0.16-0.45c0.27-0.12,0.579-0.01,0.92-0.19c1.239-0.649,3.8-2.21,4.55-1.8
			C166.76,120.334,164.821,120.344,163.411,121.144z" />
	<path d="M179.96,97.334c-0.56,0.87-2.37,1.68-2.34,0.37c0.01-0.44,0.88-0.45,0.68-0.96c-0.699,0.439-1.47,0-2.239,0.069
			c-0.28,0.021-0.521,0.351-0.82,0.391c-1.32,0.21-2.58,0.04-3.66,0.25c-1.33,0.239-2.05,0.399-2.92,1.01
			c-0.85,0.61-1.65,1.479-2.47,2.2c0.68,0.2,1.34-0.221,1.63-0.28c0.77-0.16,1.71,0.1,2.39-0.01c1.03-0.17,2.29-0.75,3.061-0.96
			c0.6-0.17,1.34-0.05,1.939-0.17c0.61-0.13,1.26-0.841,1.78-0.23c-0.17,0.82-1.2,0.74-1.85,0.88
			c-1.601,0.351-5.521,0.521-6.421,1.32c-0.279,0.24-0.21,0.78-0.38,1.06c-0.199,0.341-0.739,0.37-0.62,0.801
			c3.221-0.131,6.37-0.801,9.881-0.95c-0.21,0.779-1,0.68-1.641,0.79c-2.01,0.34-3.66,0.239-5.8,0.51c-1.3,0.17-2.83,0.16-3.62,0.6
			c-0.63,0.351-1.12,0.96-2.01,1.851c-0.3,0.29-2.19,1.95-1.97,2.2c0.08,0.1,3.62-0.721,3.67-0.75c0.21-0.131,0.12-0.5,0.359-0.561
			c0.641-0.13,0.92,0.33,1.32,0.13c0.21-0.1,0.271,0.07,0.51,0.01c1.44-0.409,2.851-0.92,4.19-1.26c1.5-0.359,3.1-0.72,4.56-0.58
			c0.021,0,0.05,0,0.07,0c-0.35,0.521-1.04,0.79-1.69,0.94c-0.81,0.18-2-0.04-2.8,0.21c-0.13,0.04-0.149,0.36-0.31,0.4
			c-0.181,0.039-0.42-0.25-0.61-0.221c-0.55,0.101-1.22,0.7-1.79,0.74c-0.92,0.05-1.24,0.08-1.979,0.32
			c-0.641,0.199-1.061,0.25-1.391,0.54c-0.17,0.14-0.12,0.569-0.26,0.75c-0.6,0.79-1.8,1.38-2.02,2.359
			c3.75-1.02,7.449-2.149,11.479-2.609c0.22,1.31-0.7,0.85-1.34,0.899c-1.14,0.08-1.7,0.4-2.6,0.61
			c-1.23,0.29-2.851,0.26-4.341,0.689c-0.33,0.101-0.529,0.5-0.87,0.551c-1.109,0.159-1.039,0.239-2.09,0.63
			c-0.64,0.229-1.359,0.27-1.89,0.52c-0.48,0.23-2.53,2.37-3.37,2.37c-0.07,0-0.12-0.01-0.17-0.04c0.06,0-0.26-0.75-0.25-0.77
			c0.1-0.261,0.69-0.301,0.93-0.69c0.101-0.16-0.16-0.49-0.09-0.71c0.271-0.83,0.92-0.43,1.43-0.689
			c0.601-0.311,1.24-1.23,1.811-1.75c0.75-0.671,1.54-1.131,1.86-1.9c-1.171,0.27-4.58,0.58-4.091,1.96
			c-0.26-0.08-0.51-0.17-0.76-0.26c-0.1,1.34-1.52,0.97-1.63,0.27c-0.1-0.58,1.01-1.31,1.71-1.95c1.45-1.34,2.87-2.949,3.92-3.899
			c-0.42,0.34-1.729,0.46-1.42-0.32c0.311-0.77,1.04,0,1.99-0.33c1.3-0.439,1.899-1.96,2.53-2.34c-0.94,0.35-1.87,0.01-2.75,0.56
			c-0.851,0.54-1.261,1.7-2.561,0.971c0.311-1.46,0.89-1.29,1.66-1.8c0.34-0.23,0.55-0.7,0.82-0.9c0.319-0.23,0.76-0.19,1.029-0.49
			c0.341-0.38,0.41-1.31,0.74-1.609c0.28-0.271,1.07-0.2,1.53-0.49c0.689-0.42,1.08-0.94,1.399-1.55
			c-1.25,0.42-1.479-0.771-2.5,0.31c-0.75,0.82-1.52,1.28-2.329,1.38c0-0.02-0.83-0.01-0.891,0.04c-0.72,0.67-0.28,2.7-0.71,2.99
			c-1.399,0.939-0.56-1.64-0.47-2.55c0.07-0.67-0.28-5.431,0.41-5.99c0.13-0.11,1.149,0.07,1.16,0.07
			c0.079,0.06,0.13,0.14,0.159,0.239c0.21,0.601-0.33,1.82-0.35,2.25c0.01-0.22,0.28,1.311,0.229,1.28
			c0.45,0.36,1.58-0.31,1.891-0.53c1.06-0.76,3.06-2.29,3.97-3.04c0.561-0.47,1.09-1.6,1.89-1.029c0.301,0.29-0.42,0.51,0.04,0.859
			c1.49,0.12,2.48-0.77,3.98-0.64c0.229,1.12-1.01,0.65-1.49,0.84c-0.34,0.13-0.54,0.561-0.93,0.69c-0.67,0.229-1.5-0.021-2.29,0.22
			c-0.45,0.13-1.25,0.64-1.49,0.84c-0.26,0.21-0.399,0.53-0.62,0.8c0.761,0.41,1.431-0.18,2.29-0.22c0.69-0.02,1.59,0.38,2.28,0.3
			c0.22-0.029,0.32-0.439,0.52-0.5c0.33-0.109,0.82,0.11,1.171,0.07c0.319-0.04,1.479-0.87,1.47,0.17
			c-0.97,0.45-2.08,0.67-3.01,0.82c-0.73,0.109-3.45,0.04-2.61,1.12c0.43,0.56,2.67-0.53,3.11-0.61c1.05-0.19,2.34,0.13,3.399,0.01
			c0.811-0.09,1.44-0.63,1.771,0.28c0.59-0.71,1.54-0.72,2.06-1.49c0.12-0.18,0.1-0.62,0.271-0.75c0.54-0.45,1.319-0.32,1.939-0.68
			c0.43-0.25,0.811-0.79,1.24-1.101c0.32-0.239,1.2-0.97,1.39-1.04c0.32-0.14,0.84,0.19,1.17,0.07c0.141-0.06,0.61-0.6,0.971-0.85
			c1.1-0.75,2.229-1.31,3.239-1.93c0.82-0.51,1.91-1.01,2.561-1.48c0.12-0.08-0.11-0.34,0.01-0.51c0.54-0.71,1.61-0.36,1.47,0.18
			c-0.1,0.44-1.899,1.2-2.41,1.53c-0.27,0.18-0.529,0.59-0.77,0.75c-1.96,1.27-3.36,1.77-4.88,2.71c-1.26,0.8-2.61,1.75-3.65,2.64
			c-0.66,0.561-2.46,2.32-2.38,2.4c0.23,0.199,1.33-0.57,1.641-0.79c0.609-0.42,1.75-0.63,2.609-1.12
			c0.391-0.22,0.71-0.67,1.19-0.95c1.02-0.6,2.229-1.1,2.97-1.68c0.14-0.11,0.55-0.74,0.83-0.9c1.24-0.72,0.979,0.62,0.03,1.37
			c-0.57,0.46-1.78,0.72-2.67,1.28c-0.631,0.399-1.11,1.109-1.49,1.35c-0.19,0.12-0.641,0.04-0.92,0.19
			c-0.36,0.18-0.59,0.64-0.98,0.84c-0.05,0.03-0.1,0.05-0.16,0.09c-0.01,0-0.01,0-0.01,0c-1.37,0.71-3.01,1.49-4.479,1.51
			C179.531,97.813,180.25,97.454,179.96,97.334z" />
	<path d="M159.561,92.874c-0.591,0.029-1.41-0.63-1.92-0.84c0.229-1.561,1.47-0.03,2.35-0.37c0.07-0.03,0.08-0.44,0.16-0.45
			c0.51-0.08,0.939,0.16,1.52,0.02c0.511,0.931-1.06,0.801-1.54,0.99C159.97,92.294,159.641,92.874,159.561,92.874z" />
	<path d="M165.25,144.964c-2.8,1.08-5.84,3.31-8.75,3.06c0.62-0.96,1.431-0.43,2.3-0.729c0.101-0.03,0.07-0.41,0.16-0.45
			c0.49-0.25,1.26-0.229,1.891-0.53c2.119-1.02,5.399-3.279,7.42-3.18c0.05,0,0.279,0.07,0.31,0.11c0.61,0.8-1.28,1.1-1.8,1.239
			C166.25,144.624,165.621,144.813,165.25,144.964z" />
	<path d="M154.951,98.233c1.13-1.31,3.52-1.33,5.2-1.229c-0.12,0.25-0.32,0.67-0.62,0.8c-0.48,0.21-1.96-0.06-2.8,0.21
			C156.041,98.233,155.831,98.964,154.951,98.233z" />
	<path d="M161.26,94.334c-0.35,1.52-2.569,0.66-3.51,0.8c0,0.04-0.89,0.47-0.89,0.54c-0.4-0.14-0.95-0.75-0.73-1.28
			c0.4-0.979,1.25,0.061,2.33,0.141C159.331,94.594,160.571,93.914,161.26,94.334z" />
	<path d="M163.3,142.744c-1.29,0.72-2.96,1.25-4.46,2.01c-0.64,0.33-2.01,0.89-2.449,1.18c-0.21,0.13-0.15,0.46-0.37,0.55
			c-0.04,0.021-0.601-0.18-0.811-0.109c-0.35,0.109-0.71,0.71-0.979,0.84c-0.49,0.25-1.521,0.52-2.351,0.88
			c-0.72,0.31-2.25,0.93-2.449,0.67c-0.021-0.02-0.12-0.99,0.27-1.27c0.12-0.07,0.75,0.319,0.91,0.33
			c0.729,0.029,1.14-0.61,2.05-0.99c0.31-0.12,0.71-0.01,1.07-0.13c0.39-0.13,0.96-0.57,1.489-0.84
			c1.54-0.78,3.351-1.45,4.711-2.261c0.71-0.42,1.25-1.13,1.85-1.39c0.42-0.18,0.87-0.04,1.28-0.23c1.17-0.56,2.029-1.779,3.43-1.52
			c-0.16,0.85-1.09,1.39-1.96,1.689c-0.25,0.091-0.62-0.079-0.87,0.04C163.51,142.264,163.441,142.664,163.3,142.744z" />
	<path d="M149.55,131.943c0.15-0.029,0.45-0.38,0.67-0.439c0.671-0.21,1.19-0.08,1.881-0.021c0.06,0.83-0.29,0.7-1.33,0.891
			c-1.021,0.18-2.771,0.939-3.36,0.35C147.76,131.634,148.811,132.124,149.55,131.943z" />
	<path d="M146.811,144.094c2.659-1.04,4.75-2.45,7.54-3.99c1.619-0.89,4.109-2.63,5.59-2.8c-0.57,1.57-2.07,1.61-3.351,2.23
			c-1.229,0.6-2.87,1.51-4.199,2.27c-0.95,0.54-2.311,1.71-3.7,2.271c-0.32,0.14-0.8,0.17-1.12,0.29
			c-0.851,0.329-1.39,1.079-1.69,0.939c-0.34-0.16-0.47-0.53-0.5-0.52C145.451,143.644,146.351,144.273,146.811,144.094z" />
	<path d="M159.021,119.094c0.39,0.05,1.52-0.97,1.8-1.24c0.45-0.439,0.87-0.95,1.34-1.399c0.44-0.42,1.14-0.84,0.99-1.36
			c-0.87,0.17-2.84,2.271-2.91,0.51c0-0.13,0.04-0.229,0.1-0.31c0.19-0.22,0.62-0.26,0.98-0.33c0.32-0.061,1.01,0.08,1.38-0.03
			c0.25-0.069,0.33-0.53,0.57-0.649c0.17-0.08,0.76-0.03,1.069-0.131c0.32-0.119,0.721-0.51,0.87-0.55
			c0.351-0.09,0.79,0.261,1.11,0.221c0.149-0.011,0.54-0.311,0.82-0.391c1.819-0.51,3.909-0.899,5.26-1.38
			c-0.21,1.46-1.69,0.95-2.46,1.17c-0.181,0.05-0.21,0.38-0.51,0.5c-1.19,0.47-3.23,0.271-4.091,0.95c-0.56,0.45-0.83,1.4-1.35,1.91
			c-0.41,0.399-0.92,0.3-1.18,0.95c2.239-0.08,4.22-2.011,6.319-1.521c-0.37,0.74-1.91,0.78-2.399,1.021
			c-0.16,0.08-0.34-0.08-0.511-0.011c-0.1,0.04-0.06,0.431-0.159,0.46c-0.32,0.11-0.86-0.069-1.221,0.08
			c-0.149,0.061-0.22,0.48-0.37,0.551c-0.13,0.069-0.5,0.02-0.71,0.09c-0.3,0.109-0.479,0.5-0.72,0.6
			c-0.79,0.32-1.68,0.271-2.3,0.72c-1.1,0.82-2.39,3.681-3.7,2.28c0.561-0.77,1.19-1.38,1.76-2.1c-1.189,0.029-2.54-0.53-3.75-0.48
			c-0.05,0.01-0.21,0.391-0.31,0.41c-0.91,0.16-2.23-0.23-2.9,0c-0.52,0.17-1.18,0.87-1.85,1.39c-1.15,0.891-2.19,1.471-2.48,2.7
			c2.4,0.09,5.58-0.899,8.141-0.88c0.359,0.01,0.92,0.31,1.42,0.33c0.67,0.03,2.17-0.65,1.97,0.7c-1.2,0.39-2.87-0.45-4.01-0.221
			c-0.47,0.091-0.62,0.66-0.98,0.841c-0.279,0.149-0.779,0.01-1.069,0.14c-0.46,0.2-1.101,0.68-1.54,0.99
			c-0.94,0.649-1.82,1.52-2.33,2.25c2.04-0.391,4.83-0.78,7.08-0.75c0.62,0.01,2.05-0.391,1.92,0.85
			c-1.23,0.17-2.04-0.359-2.95,0.15c-0.17,0.09-0.94-0.021-1.02-0.021c-1.66,0.05-2.771,0.41-4.131,0.601
			c-0.449,0.06-0.84-0.16-1.159-0.07c-1.431,0.37-1.74,2-3.48,1.16c1.37-1.66,2.65-3.26,4.14-4.51c0.511-0.42,1.33-0.391,1.45-1.19
			c-0.87,0.15-2.01,0.19-3.01,0.3c-0.57,0.07-1.59,0.13-1.58,0.13c-0.65,0.25-0.54,1-1.13,0.79c-0.521-0.189-0.76-0.92-0.48-1.529
			c0.04-0.091,0.95-0.431,1.03-0.49c1.061-0.84,2.25-2.641,3-3.2c-0.92,0.19-1.78-0.13-2.95,0.15c-0.59,0.14-1.55,1.029-2.1,0.63
			c-0.82-0.61,0.61-1.311,0.89-1.57c0.91-0.79,1.99-1.78,2.641-2.64c-1.49-0.811-2.82,0.8-3.92-0.021
			c-0.49-0.37-0.45-1.33-0.16-1.93c0.35-0.75,1.81-0.87,1.6-1.65c-1.2,0.29-3.07-0.12-1.81-1.149c0.5-0.41,0.91,0.149,1.62,0.229
			c1.529,0.181,1.659-1,2.52-1.84c0.67-0.65,1.03-0.7,1.69-0.939c0.75,1.17-1.41,1.85-0.9,2.579c0.1,0.15,3.71-0.02,4.271-0.029
			c0.47,0,1.06-0.221,1.42-0.181c0.449,0.051,0.76,0.381,1.06,0.37c0.13,0,0.21-0.359,0.31-0.399c0.32-0.11,1.66,0.14,1.73,0.439
			c-1.72,0.99-3.76,0.55-6.01,0.61c-1.141,0.03-2.351-0.23-3.2-0.101c-0.98,0.141-0.7,0.591-1.09,1.15
			c-0.42,0.59-1.601,0.9-2.01,1.84c0.619,0.45,1.22,0.021,1.88-0.02c0.6-0.03,1.55,0.21,2.029,0.04c0.9-0.32,1.19-1.75,2.36-1.391
			c-0.21,0.53-0.3,0.99-0.12,1.32c0.65,0.19,1.17-0.36,1.68-0.43c0.341-0.04,0.921,0.31,1.271,0.279c0.24-0.02,0.7-0.46,1.02-0.489
			c1.311-0.15,2.931,0.37,2.78,0.81c-0.26,0.79-3.3,0.15-4.67,0.22c-1.2,0.07-3.14,0.301-3.88,0.86c-1.19,0.89-1.21,1.98-2.43,2.54
			c1.14-0.05,2.58,0.05,3.659-0.24c0.561-0.14,1.021-0.77,1.641-0.779c0.34-0.011,0.68,0.439,1.01,0.52
			c0.811,0.2,2.88-0.52,4.53-0.28C157.931,118.714,158.601,119.034,159.021,119.094z" />
	<path d="M142.071,96.604c1.12-1.26,2.81-1.31,3.56-3.35c-1.5-0.311-2.069,1.3-3.77,0.55c-0.01-0.46,0.46-0.64,1.02-0.76
			c0.34-0.08,0.71-0.13,1.03-0.22c1.05-0.29,2.05-0.881,2.65-0.771c1.12,0.2-0.181,0.99-0.221,1.11
			c-0.06,0.17,0.391,1.609-0.18,1.979c1.16,0.061,3.43-0.05,4.25,0.99c-1.63,1-3.78-0.76-5.29,0.01c-0.49,0.25-0.32,0.8-0.58,1.16
			c-0.41,0.561-1.189,0.75-1.39,1.55c1.3,0.07,1.6,0.87,2.58,0.4c0.729-0.351,0.93-2.24,2.26-1.59c-0.1,0.87-0.5,1.25-0.08,1.68
			c-0.03-0.03,2.97-0.08,3.11-0.1c0.3-0.061,1.949-1.141,2.14-0.271c0.13,0.61-1.15,0.75-1.85,0.88
			c-2.021,0.38-5.03-0.16-5.931,1.84c3.44,0.421,6.74-0.85,10.11,0.32c-1.17,1.021-4.91-0.27-6,0.61
			c-0.31,0.24-0.43,1.189-0.74,1.609c-0.37,0.49-0.93,0.28-0.83,0.9c1.721-0.42,3.851,0.09,5.79,0c0.721-0.04,1.83-0.87,2.13,0.24
			c-2.22,0.42-5.12,0.399-7.38,0.63c-0.88,0.1-1.359-0.061-1.979,0.33c-0.811,0.5-1.13,1.45-2.07,2c1.21,0.08,2.37-0.05,3.31-0.2
			c0.311-0.06,0.881-0.33,0.971-0.34c0.87-0.101,1.63,0.13,2.33,0.14c0.16,0,0.489-0.29,0.62-0.3c0.79-0.01,5.18,0.12,4.909,1.05
			c-0.26,0.88-3.59-0.14-3.859-0.17c-0.63-0.06-1.351,0.24-1.63,0.28c-0.37,0.05-1.011,0.02-1.37,0.03
			c-0.311,0.01-0.59,0-0.87-0.011c-0.32-0.01-0.65-0.01-1.01,0.03c-1.07,0.12-2.061,0.21-3.16,0.25
			c-0.49,0.021-0.96,0.24-1.271,0.23c-1.47-0.021-1.68-1.15-1.04-1.891c0.07-0.08,0.94-0.16,1.33-0.39
			c0.561-0.32,0.91-0.37,0.82-0.9c-0.7-0.18-1.55,0.42-1.86-0.49c1.141-0.949,2.73,0.021,3.931-1c0.71-0.6,0.949-1.67,1.609-2.159
			c-1.37,0.06-3.71-0.16-4.75,0.89c-0.33,0.34-0.069,0.61-0.41,0.71c-0.14,0.03-1.29-0.33-1.369-0.49
			c-0.28-0.54,0.369-0.54,0.79-1.25c0.17-0.29,0.05-0.7,0.31-0.91c0.67-0.52,1.78,0.12,1.9-1.04c-0.78-0.409-1.08,0.19-1.83-0.13
			c-0.38-0.46-0.021-1-0.021-1.37c-0.479-0.31-0.67,0.021-1.12-0.22c0.69-0.83,0.811-1.21,1.41-2.069
			C142.63,96.374,142.571,96.964,142.071,96.604z" />
	<path d="M142.371,87.504c0.92,0.62,0.11,1.25-0.54,1.29c-0.149,0.01-0.29-0.02-0.399-0.08c-0.23-0.13-0.32-0.3-0.32-0.47
			C141.111,87.734,141.911,87.194,142.371,87.504z" />
	<path d="M141.931,90.483c0.279,0.12,0.569,0.23,0.84,0.23c0.529,0,1.52-0.88,2.14-0.271c0.19,0.671-0.6,0.301-1.02,0.49
			c-0.36,0.17-0.631,0.66-0.931,0.7c-0.05,0-0.1,0.01-0.16,0.01c-0.59,0.04-1.619-0.1-1.909-0.399c0.06,0,0.06-0.91,0.159-0.96
			C141.26,90.184,141.581,90.334,141.931,90.483z" />
	<path d="M134.151,147.644c0.479-0.06,1.16-0.319,1.68-0.43c0.67-0.13,1.271-0.12,1.78-0.22c0.08-0.021,0.1-0.41,0.16-0.46
			c0.31-0.23,1.18,0.04,1.27,0.279c-0.92,1.25-2.68,0.82-3.83,1.2c-0.62,0.22-0.79,0.28-1.479,0.34
			c-0.73,0.061-1.11,0.25-1.88,0.021C132.09,147.114,133.371,147.744,134.151,147.644z" />
	<path d="M156.281,143.344c1.43-0.84,3.04-1.43,4.2-2.27c1.06-0.771,2.88-2.091,4.09-1.46c-2.01,1.869-5.58,2.529-8.561,4.479
			c-1.729,1.14-3.449,1.81-5.38,2.71c-0.64,0.29-1.14,0.9-1.75,1.09c-0.29,0.09-0.569-0.08-0.859,0.03
			c-0.42,0.17-0.92,0.61-1.49,0.84c-0.561,0.24-2.69,1.021-3.07,0.97c-0.319-0.04-0.649-0.67-0.95-0.68
			c-0.649-0.02-3.06,1.021-3.829,1.21c-0.551,0.13-1.061,0.07-1.431,0.18c-0.979,0.271-2.58,1.681-2.479-0.199
			c-1.521,0.21-3.08,0.79-4.59,0.939c-0.771,0.08-1.271,0.91-2.101,0.63c0.33-1.17,1.92-1.239,2.92-1.529
			c2.891-0.83,6.2-1.061,8.98-1.78c0.569-0.15,1.229-0.521,1.739-0.58c0.29-0.03,0.681,0.25,0.961,0.17
			c0.819-0.25,2.1-1.54,2.819-1.729c0.23-0.061,0.69,0.34,0.91,0.319c0.46-0.06,0.72-0.609,1.13-0.8c0.74-0.33,1.65-0.45,2.51-0.82
			c1.561-0.67,2.881-1.38,4.301-2.06c0.6-0.29,1.399-0.38,1.939-0.68c1.271-0.7,2.19-1.83,3.4-2.381
			c0.439,1.181-0.78,1.341-1.25,1.601c-0.26,0.149-0.391,0.55-0.57,0.649c-0.2,0.12-0.51-0.01-0.71,0.091
			c-0.28,0.149-0.45,0.6-0.57,0.649c-0.21,0.09-0.47-0.16-0.659-0.06c-0.28,0.16-0.471,0.56-0.78,0.75
			c-0.78,0.49-1.94,0.72-2.96,1.17c-2,0.88-3.74,1.609-5.63,2.45c-0.91,0.399-2,0.64-2.57,1.479c2.14-0.57,4.66-1.439,6.44-2.33
			c0.17-0.09,0.189-0.47,0.369-0.55c0.351-0.17,0.91-0.08,1.271-0.24C153.351,145.034,154.931,144.134,156.281,143.344z" />
	<path d="M177.851,112.813c-1.391,1.71-3.181,3.17-4.761,4.69c-1.649,1.58-3.14,3.3-4.62,5.03c-2.88,3.39-5.72,6.909-9.34,9.54
			c-2.55,1.85-5.09,3.14-7.779,4.93c-2.46,1.64-4.83,3.32-7.641,4.53c-2.33,1.02-4.35,2.68-6.74,3.58
			c-1.3,0.489-2.52,0.859-3.71,1.199c-1.189,0.33-2.75,0.87-3.89,1.36c-0.59,0.25-3.11,1.44-2.68,0.04c0.55-1.83,3.06-1.62,4.52-2
			c1.8-0.46,3.58-1.61,5.3-2.38c4.591-2.07,8.71-4.8,13.061-7.29c1.08-0.62,2.18-1.19,3.24-1.84c0.58-0.36,1.21-0.67,1.779-1.061
			c0.5-0.34,0.841-0.67,1.4-0.89c0.51-0.2,0.89-0.41,1.35-0.74c2.051-1.43,3.94-3.09,5.67-4.88c1.561-1.62,3.04-3.32,4.561-4.98
			c1.27-1.369,2.83-2.47,4.07-3.899c0.479-0.561,1-1.12,1.479-1.68c0.36-0.421,0.71-0.83,1.05-1.24c0.79-0.94,1.561-1.88,2.33-2.86
			c1.101-1.399,2.24-2.74,3.3-4.17c0.381-0.5,2.131-2.54,1.92-0.74c-0.14,1.21-1.199,2.221-1.909,3.141
			C179.141,111.063,178.541,111.964,177.851,112.813z" />
	<path d="M133.231,86.844c1.42-0.48,3.17-0.86,4.489-0.63c-0.1,1.26-1.489,0.68-2.71,0.92c-0.26,0.05-0.55,0.33-0.819,0.39
			c-1.04,0.23-1.61,0.42-2.51,0.82c-0.48,0.22-0.95,0.49-1.431,0.69c-2.06,0.84-4.689,1.46-4.74,3.78
			c-1.34-0.08-1.5-0.859-0.68-1.939c0.32-0.41,1.16-0.63,1.49-0.84c1.27-0.8,2.82-1.7,4-2.17c0.479-0.19,1.27-0.12,1.42-0.18
			c0.15-0.05,0.22-0.48,0.37-0.55C132.361,87.024,132.84,86.984,133.231,86.844z" />
	<path d="M123.291,97.664c-0.09-0.82,2.73-2.16,3.04-2.34c0.55-0.33,0.521-0.61,1.18-0.95c0.561-0.271,1.28-0.24,1.891-0.53
			c1.76-0.8,3.39-1.729,4.91-1.84c0.569-0.05,1.689,0.21,1.779,0.28c1.601,1.27-2.35,0.729-2.3,0.72c-1.34,0.13-2.7,1-3.53,1.32
			c-0.67,0.26-1.71,0.26-2.449,0.67c-1.13,0.62-2.57,1.76-2.83,2.239c-0.271,0.49,0.16,0.21-0.061,0.66
			C124.741,98.244,123.391,98.454,123.291,97.664z" />
	<path d="M138.01,92.624c0.07,0.689,0.41,1.5,0.37,2.34c-0.08,1.729-0.56,3.35-0.689,4.87c-0.07,0.819-0.04,2.37-0.3,2.79
			c-0.021,0.02-0.601,0.51-0.931,0.51c-0.029,0-0.06-0.01-0.09-0.02c-0.02-0.011-0.58-2.131-0.58-2.25
			c0.01-0.19,0.88-1.48,0.34-1.921c-0.02-0.02-1.069,0.301-1.529,0.48c-1.33,0.53-1.49,0.91-2.57,1.479
			c-0.09,0.051-0.69,0.091-1.12,0.29c-0.61,0.28-4.67,2.78-5.17,2.101c-0.31-0.42,0.54-1.41,0.479-1.37
			c0.391-0.31,0.801,0.26,1.881-0.021c0.29-0.069,1.13-0.789,1.949-1.18c1.5-0.729,2.96-1.45,4.311-2.07
			c0.45-0.21,2.1-0.77,2.2-0.92c0.25-0.409,0.159-1.56-0.23-1.79c-0.1-0.06-0.59,0.381-1.02,0.49c-0.761,0.21-1.79,0.141-2.7,0.42
			c-1.351,0.4-2.74,1.3-3.99,1.66c-0.41,0.12-0.89-0.05-1.229,0.08c-0.71,0.26-2.551,1.49-2.87,1.88
			c-0.141,0.16-0.65,1.69-1.29,0.74c-0.271-0.4-0.12-0.6,0.89-1.561c1.47-1.38,3.54-1.85,5.69-2.6c1.979-0.68,3.989-1.31,5.77-1.88
			c0.38-0.12,1.08-0.07,1.38-0.54c0.16-0.25,0.34-1.92,0.351-2.43c0.01-0.32-0.32-0.69-0.29-1.13c0.08-0.921,0.63-1.171,0.229-1.621
			c-0.38-0.43-2.21,0.03-3,0.31c-2.72,0.98-6.71,2.71-8.399,4.021c-0.53,0.42-0.801,1.63-0.94,1.72c0.021-0.021-1.22,0.41-1.42-0.33
			c-0.021-0.06-0.021-0.12,0-0.19c0.12-0.52,1.07-1.22,1.45-1.51c1.22-0.95,1.819-1.17,2.97-1.68c0.79-0.351,1.37-0.88,1.96-1.19
			c1.12-0.6,2.1-0.7,3.11-1.12c0.989-0.4,1.359-0.69,2.21-0.93c0.39-0.11,0.819-0.31,0.97-0.34c0.49-0.07,1.31,0.19,1.521,0.03
			c0.35-0.27,0.289-1.09,0.489-1.87c0.29-1.14,0.771-3.33,1.07-3.54c0.39-0.27,0.82,0.43,0.8,1.13c-0.03,0.96-0.34,1.34-0.66,2.84
			c-0.09,0.44-0.17,0.84-0.229,1.19c-0.29,1.52-0.45,2.22-1.561,2.43C138.321,90.844,137.941,91.773,138.01,92.624z" />
	<path d="M132.21,117.324c-1.63-0.69-2.2,2.88-2.56,4.38C131.351,121.004,131.17,118.894,132.21,117.324z M135.13,134.193
			c1.851,0.08,2.931-1.27,3.71-2.779C136.97,131.014,135.951,132.403,135.13,134.193z M141.121,135.104
			c0.04-0.01,0.57,0.21,0.96,0.17c0.46-0.05,1.96-0.29,2.08,0.391c0.16,0.97-1.19,0.739-1.89,0.529
			c-0.61-0.18-0.98,0.301-1.69,0.431c-0.45,0.09-1.02-0.11-1.37,0.029c-0.22,0.08-0.26,0.431-0.52,0.5
			c-0.26,0.07-0.58-0.17-0.811-0.119c-1.13,0.25-2.41,1.06-2.71,1.43c-1,1.2-1.109,2.96-2.14,3.17c-0.54,0.11,0.08,0.9-0.71,0.09
			c-0.49-0.5,0.41-1.359,0.58-1.67c0.34-0.62,0.13-0.58,0.319-0.91c0.811-1.439,2.24-2.319,2.66-4.18
			c-0.68,0.54-1.399,0.57-2.149,1.29c-1.12,1.08-1.2,2.92-2.4,3.42c-0.22,0.09-0.66-0.38-0.91-0.32c-0.51,0.12-0.54,0.74-0.88,1.05
			c-0.08,0.07-0.41,0.021-0.56,0.141c-2.88,2.52-5.87,6.1-8.23,8.859c-0.51,0.601-1.01,2.051-2.149,1.29
			c0.659-1.14,1.56-2.369,2.56-3.6c2.05-2.52,4.55-5.06,6.4-6.88c0.739-0.72,2.96-3.271,3.5-2.17c1.199-1.78,2.8-4.15,3.6-5.891
			c-0.55,0.721-4.02,1.301-2.49-0.189c0.44-0.42,2.66-0.49,3.48-1.16c0.49-0.41,0.939-1.189,1.25-1.61
			c0.46-0.63,0.89-1.27,0.939-1.71c-1.34,0.65-3.87,0.2-4.85,1.19c-0.3,0.3-0.44,1.32-0.9,2.06c-0.52,0.86-1.319,1.28-1.56,2.011
			c-0.13,0.42,0.15,5.72-1.6,4.55c-0.32-0.22-0.171-0.891,0.069-1.59c0.23-0.69,0.561-1.41,0.601-1.75
			c0.09-0.66-0.25-1.95-0.221-2.29c0.03-0.23,0.37-0.511,0.37-0.561c-0.05-0.479-0.46-1.14-0.58-1.739
			c-0.14-0.65-0.069-1.461-0.18-1.931c-0.09-0.42-0.46-0.649-0.48-1.02c-0.079-1.431,1.15-3.98-0.96-3.58
			c0.79-1.851,1.091-4.17,1.16-5.72c1.19,0.739,1.99-3,1.931-3.07c-0.021-0.03-1.021-0.09-1.171-0.07
			c-0.64,0.11-1.289,0.95-1.869,0.021c1.92-1.5,4.71-1.04,7.13-1.4c0.34-0.06,0.72-0.44,1.029-0.5c1.54-0.28,3.11-0.05,4.521,0.23
			c0.04,1.22-1.53,0.479-2.4,0.52c-1.18,0.05-3.56,0.56-4.689,0.73c-0.87,0.14-1.51-0.11-1.78,0.229c0.06-0.08-0.24,2.65-0.25,2.64
			c0.63,0.78,3.17-1.489,3.19-2.29c0.85,0.271,0.109,1.301,0.38,1.841c1.77-0.261,3.939-1.051,5.85-0.16
			c-1.17,1.51-6.16-0.19-6.89,1.67c-0.37,0.92-1.11,2.35-1.181,3.33c2.29-0.2,4.62-1.87,6.891-1.66c2.399,0.21,2.21,1.35,0.89,1.33
			c-1.439-0.01-2.14-0.26-3.399,0c-0.65,0.13-1.33,0.57-1.94,0.68c-0.18,0.03-0.44-0.27-0.61-0.22c-0.3,0.1-0.76,0.57-1.279,0.74
			c-0.71,0.25-1.07,0.18-1.33,0.39c-0.36,0.29-0.53,1.05-0.78,1.26c-0.37,0.3-0.82,0.03-1.03,0.49c-0.399,0.87,0.49,2.23,0.351,3.36
			c-0.04,0.33-0.37,0.76-0.37,1.06c0,0.83,0.5,1.59,0.46,2.55c0.32-0.39,0.649-0.76,0.84-1.41c-2.16-0.869,0.36-1.109,0.94-1.71
			c1.05-1.079,1.119-2.56,1.479-3.229c-1.03-0.61-2.66,1.78-3.37,0.86c-0.05-0.061-0.1-0.61,0.17-0.971
			c0.601-0.779,3.55-0.439,4.9-1.34c0.45-0.3,0.32-0.82,0.83-0.899c0.62,0.119-0.01,0.46,0.75,0.779c0.55,0.23,5.819-0.87,5.53,0.75
			c-0.19,0.99-1.66,0.11-2.24,0.061c-1.15-0.09-3.78,0.1-4.23,0.39c-0.25,0.17-0.279,0.72-0.52,1.01
			c-0.32,0.391-1.771,1.73-1.16,2.32c0.33,0.31,1.5-0.48,1.54-0.49c1.04-0.24,1,0.09,1.72-0.069c0.08-0.021,0.08-0.351,0.521-0.5
			c0.26-0.08,0.75-0.07,1.43-0.181c0.84-0.14,4.31-0.39,4.26,0.48c-0.05,0.89-1.819,0.279-2.649,0.26
			c-0.98-0.01-2.261,0.18-2.551,0.47c-0.119,0.12,0.21,0.41,0.141,0.561c-0.04,0.109-0.391,0.02-0.46,0.35
			c-0.221,1-0.24,1.47-1,2.37c1.92-0.04,4.05-1,6.09,0.1c-0.61,1.511-2.67,0.051-3.62,0.601c-0.09,0.06-0.25,0.8-0.32,0.91
			c-0.199,0.34-0.52,0.359-0.41,0.699c0.94-0.1,2.54-0.81,3.36-0.85c0.59-0.04,2.561,0.12,2.69,0.6
			c0.279,1.12-1.311,0.45-2.04,0.471c-0.851,0.029-4.181,0.5-5,1.14c-0.82,0.63-1.16,1.62-1.36,2.42c0.79-0.05,1.75-0.89,2.76-1.07
			c0.17-0.04,0.44,0.261,0.61,0.21C140.46,135.754,140.771,135.193,141.121,135.104z" />
	<path d="M121.851,144.344c-0.601,0.85-0.67,1.87-1,2.37c-0.021,0.02-0.04,0.05-0.061,0.08c-0.41,0.51-1.84,1.74-2.3,1.3
			c-0.63-0.61,1.06-2.13,1.16-2.32c0.12-0.25-0.101-0.439,0.05-0.659c0.12-0.15,0.6,0.06,0.72-0.091
			c0.13-0.149,0.17-0.88,0.48-1.359c0.89-1.37,1.979-2.5,2.75-3.46c0.93-1.15,2.069-2.7,2.859-3.761
			c0.511-0.689,1.181-2.35,1.75-1.6c0.19,0.25,0.15,0.56,0,0.88c-0.34,0.72-1.27,1.49-1.409,1.69c-0.15,0.21-0.15,0.649-0.32,0.91
			c-0.46,0.67-1.23,1.22-1.771,2.1C123.741,142.104,122.701,143.144,121.851,144.344z" />
	<path d="M142.331,74.084c1.3,5.02,5.32,9.3,7.65,13.94c1.46,2.91,3.83,0.73,4.7-1.12c1-2.15,0.89-4.74,3.529-5.58
			c3.98-1.27,4.49-5.11,6.3-8.45c0.62-1.14,2.591-3.1,3.5-0.9c0.221,0.54,0.66,4.55,0.391,4.83c-0.38,0.39,0.819,4.01,1.04,4.75
			c0.64,2.04,1.76,4.29,3.99,4.92c0.8,0.22,1.55,0.27,2.279,0.19l0.03,0.19c-0.15,0-0.32,0.04-0.48,0.14
			c0.29,0.24,0.671,0.75,1,0.75l0.021,0.38c-1.811,0.21-3.38,0.17-5.3-0.59c-0.17,1.43-1.46,1.5-1.87,2.68
			c-0.29,0.82-1.03,1.43-1.69,1.95c-0.93,0.729-1.68,0.729-1.85,0.31c-0.12-0.31,0.05-0.84,0.649-1.479
			c1.2-1.28,2.61-2.44,3.94-3.521c0.4-0.33-2.25-4.51-2.46-5.62c-0.38-1.94-1.07-4.06-1.13-6.04c-0.08-2.39-0.55-2.33-1.69-0.06
			c-0.899,1.79-1.92,5.62-4.04,6.33c-2.229,0.75-3.109,1.01-3.8,3.41c-0.229,0.83-0.59,1.61-1.04,2.34c-0.39,0.63-0.6,1.34-1,1.93
			c-0.64,0.94-2.26,1.7-3.38,1.69c-3.479,0-3.77-4.28-5.43-6.38c-1.48-1.87-2.49-4.28-3.87-6.29c-0.57-0.82-1.88-5.72-3.12-4.1
			c-1.25,1.64-1.62,3.08-3.48,4.23c-0.909,0.56-1.96,0.87-2.829,1.47c-0.74,0.51-1.57,0.02-2.421,0.3
			c-2.63,0.85-3.17,3.73-4.149,5.95c1.99-1.5,4.67-2.47,6.97-3.34c0.03-0.01,5.5-1.75,4.58-0.18c-0.33,0.57-2.689,0.5-3.47,0.73
			c-1.26,0.38-2.49,0.9-3.71,1.39c-1.17,0.47-2.37,1-3.36,1.8c-0.57,0.46-0.49,1.86-1.43,1.5c-1.67-0.64-2.65,2.95-3.17,6.331
			c-0.351,2.27-0.48,4.439-0.48,5.159c0,1.141-0.87,1.561-1.95,1.71c-0.89,0.12-1.21-0.85-1.869-1.26
			c-0.641-0.399-3.471,3.86-3.141,4.93c1.01-0.46,2.2-2.22,3.48-1.67c-0.86,1.61-3.051,1.881-3.82,3.601
			c-0.25,0.54-0.92,3.02,0.4,2.399c2.569-1.22,4.02-4.369,6.609-5.39c-0.859,3.46-5.52,4.48-7.21,7.37
			c-0.16,0.27-0.229,0.45-0.229,0.57l-0.851,0.02c-0.02-0.22-0.05-0.439-0.1-0.65c-0.16-0.64-0.76-1.079-0.9-1.689
			c-0.27-1.14,0.36-2.24,0.641-3.311c0.26-0.96-0.221-1.8,0.08-2.789c0.68-2.16,2.899-3.41,3.619-5.551c0.73-2.16,2.57,1,3.41,1.23
			c0.17-1.561,0.67-3.07,0.94-4.61c0.22-1.29-0.5-2.37,0.04-3.66c0.979-2.35,2.569-4.399,3.74-6.62c1-1.88,0.939-3.98,3.069-4.87
			c1.07-0.45,1.46-0.98,2.74-1.06c1.01-0.07,2.16,0.04,3.08-0.45c2.17-1.14,3.38-3.9,4.53-5.9
			C140.01,69.864,141.831,72.114,142.331,74.084z" />
	<path d="M76.181,103.733c2.62,0.87,5.3,0.65,6.84,1.391c-0.42,0.689-1.04,0.96-1.84,0.88c-2.24-0.23-5.69-1.11-6.87-2.76
			C75.191,102.844,75.531,103.523,76.181,103.733z" />
	<path d="M68.121,105.494c0.04,0.01,0.08,0.02,0.11,0.04C68.201,105.523,68.161,105.504,68.121,105.494z" />
	<path d="M69.841,99.964c1.47,0.56,3.7,0.79,3.68,2.15c-2.11-0.19-4.87-1.69-6.31-2.391c-1.32-0.64-3.33-0.79-3.42-2.399
			C66.041,98.233,67.741,99.184,69.841,99.964z" />
	<path d="M60.851,87.774c1.01-0.8,3.22,0.97,2.66,1.62C62.991,90.004,60.631,88.184,60.851,87.774z" />
	<path d="M50.031,87.034c1.23,0.41,3.26,0.94,4.55,1.6c0.58,0.29,1.65,0.75,1.35,1.5c-1.02,0.35-1.57-0.56-2.68-1.11
			C51.931,88.364,50.021,88.164,50.031,87.034z" />
	<path d="M50.941,96.554c-1.86-1.51-3.92-1.99-3.95-3.78c1.04,0.04,1.19,0.82,2.31,1.67c1.18,0.881,2.6,1.761,3.17,2.131
			c0.57,0.39,1.98,0.77,1.5,1.56C53.351,99.124,51.521,97.014,50.941,96.554z" />
	<path d="M48.73,85.894c-0.2-0.16-0.45-0.97-0.28-1.12c0.51-0.48,0.87,0.15,1.26,0.27c0.77,0.24,4.99,2.1,4.74,2.52
			c-0.44,0.73-1.55-0.27-2.94-0.86C50.521,86.284,49.141,86.224,48.73,85.894z" />
	<path d="M50.531,90.954c-0.54-0.351-4.11-2.62-4.01-3.12c0.13-0.74,0.78-0.39,0.97-0.33c0.12,0.03,0.17,0.18,0.25,0.25
			c0.62,0.69,1.52,1.11,2.46,1.72c2.84,1.88,4.93,3.04,7.5,4.351c0.32,0.159,2.19,0.649,1.7,1.449c-0.35,0.57-2.31-0.37-3.39-1.02
			C54.551,93.364,52.73,92.374,50.531,90.954z" />
	<path d="M45.121,83.094C48.601,83.444,45.601,85.984,45.121,83.094L45.121,83.094z" />
	<path d="M69.151,101.943c0.93,0.33,2.54,0.381,1.7,1.45c-0.44,0.561-4.68-0.95-6.07-1.63c-0.6-0.29-1.16-0.95-1.91-1.35
			c-0.87-0.471-1.97-0.69-2.52-1.061c-0.32-0.21-0.46-0.63-0.75-0.779c-1.52-0.75-2.22-0.561-3.54-1.07
			c2.01,1.59,6.94,2.6,7.04,4.689c-2.35-0.869-5.27-2.81-7.86-4.3c-0.36-0.41,0.71-0.51,0.32-0.91c-2.56-1.159-4.72-3.14-6.84-4.279
			c-0.4-0.221-0.78-0.19-1.06-0.37c-0.75-0.48-4.27-3.03-3.6-3.82c0.33-0.38,1.05,0.15,1.12,0.22c0.76,0.81,2.09,2.22,3.5,3.11
			c1.34,0.83,2.97,1.51,4.44,2.41c0.85,0.52,1.63,1.25,2.46,1.72c2.26,1.271,5.65,2.29,8.12,3.54c1.07,0.54,2.02,1.37,3.12,1.78
			c0.26,0.09,0.49-0.141,0.71-0.09C68.391,101.384,68.141,101.584,69.151,101.943z" />
	<path d="M43.781,84.494c0.4-0.58,0.38-0.25,1.01,0.01c0.15,0.07,1.26,1.24,1.2,1.45C45.621,87.094,43.151,85.374,43.781,84.494z" />
	<path d="M188.201,115.563c-3.86,6.66-7.55,10.65-11.92,15.351c-0.91,0.989-2.93,5.64-3.66,6.76c-0.72,1.09-1.439,2.12,0.061,2.88
			c0.71,0.37,1.6,0.3,2.319,0.05c0.59-0.21,1.44-0.93,2.11-0.569c0.58,0.319,0.46,1.06,0.109,1.52
			c-0.819,1.09-2.449,1.28-3.489,2.09c-1.2,0.94-2.7,1.26-3.98,2.05c-0.76,0.48-1.28,1.15-2.26,1.591
			c-2.14,0.979-4.43,2.619-6.89,2.569c-2.891-0.069-5.91,0.761-8.801,1.16c-1.08,0.14-2.39,0.22-3.369,0.75
			c-0.58,0.32-0.86-0.32-1.54,0.101c-1.171,0.699-2.69,0.489-4,0.64c-1.271,0.16-2.21,0.97-3.511,1.12
			c-3.27,0.37-6.54,0.59-9.81,1.069c-1.72,0.25-3.271,0.54-4.99,0.261c-1.09-0.181-2.12,0.64-3.27,0.75
			c-1.33,0.13-2.71,0.06-4.011,0.399c-1.21,0.32-0.75,0.65-1.26,1.351c-0.41,0.58-1.189,0.359-1.729,0.58
			c-1.021,0.42-2.15,0.819-3.181,1.27c-2.17,0.96-4.51,1.771-6.58,2.94c-1.39,0.779-3.19,1.069-4.7,1.529
			c-1.45,0.44-2.75,1.24-4.17,1.681c-1.49,0.449-4.27,0.91-5.57,2.04c-1.06,0.92-2.78,1-4.08,1.42c-1.3,0.42-2.55,1.02-3.84,1.47
			c-2.86,1-5.78,1.79-8.62,2.83c-2.99,1.09-7.02,1.51-10.21,1.92c-0.86,0.11-1.45,0.43-2.22,0.8c-0.87,0.42-0.97-0.08-1.72,0.09
			c-0.72,0.17-0.92,0.681-1.74,0.71c-0.84,0.03-1.62,0.08-2.45,0.19c-3.93,0.5-7.87,0.729-11.83,0.87c-0.94,0.03-2.01,0.26-2.48-0.7
			c-0.2-0.41-0.22-0.7-0.13-0.92c-0.03-0.1-0.07-0.22-0.11-0.33l0.74-0.15c0.01,0,0.03-0.01,0.05-0.01
			c0.43-0.109,0.98-0.08,1.4-0.01c7.54,1.16,14.91-1.23,22.25-2.75c4.08-0.85,7.98-1.76,12.07-2.81c2.69-0.69,5.32-1.591,7.92-2.561
			c1.8-0.67,3.59-1.39,5.37-2.1c6.69-2.66,13.65-4.79,19.97-7.58c0.89-0.4,1.91-0.561,2.6-1.311c0.471-0.52,0.79-0.92,1.511-1.09
			c1.88-0.439,3.76-0.96,5.67-1.29c4.29-0.74,8.66-0.87,12.97-1.42c4.24-0.54,8.44-1.939,12.69-2.17
			c2.899-0.15,5.79-1.54,8.939-1.41c2.91,0.12,6.22-1.3,9.28-1.819c1.17-0.19,3.689-1.4,4.56-2.211
			c1.19-1.109,2.87-1.439,4.08-2.529c-0.52,0.38-0.399-0.391,0.47-0.48c-0.069,0.09-0.149,0.181-0.22,0.26
			c0.07-0.069,0.141-0.149,0.22-0.26c-1.159,0.13-4.319,0.29-4.649-1.29c-0.24-1.12,2.29-3.72,2.93-4.479
			c2.12-2.53,3.19-6.25,5.79-8.46c3.03-2.58,4.47-5.271,5.33-6.48c0.64-0.91,1.3-1.8,1.99-2.68c0.63-0.8,1.08-1.38,1.37-2.33
			c0.31-1.04,1.029-2.021,1.62-2.92c1.27-1.98,2.71-3.851,3.96-5.851c1.89-3.01,3.529-5.92,5.31-8.97
			c1.14-1.96,2.16-4.189,3.71-5.859c1.37-1.48,1.92-3.53,3.09-5.2c1.431-2.02,2.87-4.44,4.05-6.89l0.641,0.31
			c-0.99,2.08-1.771,4.3-3.17,6.19c-1.4,1.89-2.08,3.9-3.2,5.59c-1.4,2.13-2.41,4.489-3.83,6.609c-1.43,2.141-2.82,4.19-3.97,6.51
			c-0.46,0.94-1.03,1.83-1.471,2.78c-0.579,1.22-1.039,2.33-2.029,3.25C189.681,112.924,188.891,114.364,188.201,115.563z" />
	<path d="M36.191,73.134c-1.05-0.93-1.7-3.93-3.37-2.04c1.64,1.22,2.07,0.3,2.67,2.57c0.38,1.44,1.65,1.97,2.83,2.6
			C39.401,74.744,36.891,73.754,36.191,73.134z M41.131,81.564c0.06-1.19-1.07-2.27-1.92-2.95c-1.34-1.05-3.41-1.93-4.16-3.56
			c-0.72-1.56-0.4-1.19-1.76-0.9c-0.01,0-0.01,0-0.02,0c-1.1,0.22-2.27-0.56-3.39-0.52c0.53,1.11,2.1,1.28,2.68,2.43
			c0.67,1.31,0.03,2.75-1.05,3.6c1.5,1.38,1.29,1.92-0.39,3.03c-0.87,0.59-1.71,1.5-0.36,2.12c1.26,0.57,3.21,0.96,4.58,0.58
			c1.51-0.43,1.87-1.05,3.54-0.6C40.291,85.184,41.081,82.554,41.131,81.564z M116.831,125.704c1.54-1.431,3.12-2.78,3.91-5.78
			C119.231,121.164,115.71,123.104,116.831,125.704z M121.401,135.594c-0.34,0.69-0.67,2.021-1.66,1.19
			c-0.08-0.021-0.021,0.05,0.08,0.14c0.13,0.44,0.28,1.79,0.189,2c1.551-1.56,2.551-3.56,3.9-5.271
			C122.92,134.193,121.941,134.494,121.401,135.594z M121.84,126.964c-2.3,0.07-3.56,3.64-3.09,5.38
			C120.061,130.733,120.851,128.764,121.84,126.964z M68.23,105.534c-0.03-0.021-0.07-0.03-0.11-0.04
			C68.161,105.504,68.201,105.523,68.23,105.534z M65.591,58.444c0.34-1.66,0.21-1.19-0.83-1.15c-0.17-0.7-0.49-1-1.15-1.24
			c-2.04-0.72-3.06-1.5-5.35-1.29c-1.73,0.15-3.23,1.03-4.73,1.86c-8.49,4.73,2.31,15.71,8.65,8.96
			C63.991,63.664,65.061,60.984,65.591,58.444z M71.151,50.534c-0.94-4.6-4.6-9.8-8.18-12.73c-1.98-1.62-4.24-2.87-6.62-3.81
			c-1.78-0.69-3.31-1.62-5.17-2.17c-1.58-0.47-3.15-0.88-4.76-1.17c-2.82-0.51-5.57-0.87-8.47-1.23c-3.05-0.38-6.01-1-8.97-1.56
			c-3.29-0.62-6.63-0.91-9.81-1.88c-3.88-1.17-8.2-2.96-11.22-5.72l-0.01-0.01c-1.33-1.21-2.61-2.47-3.99-3.61
			c-0.18,1.72,2.93,3.95,3.95,4.89c2.36,2.2,4.83,3.8,7.94,4.73c6.75,2.03,13.47,3.19,20.48,4.07c6.67,0.83,14.47,2.36,20.37,5.67
			c6.04,3.39,10.2,8.85,10.85,15.78c0.2,2.24,0.12,4.67-0.32,6.86c-0.68,3.4-1.54,7.76-4.81,9.52c-3.2,1.73-6.05,2.59-9.55,0.95
			c-4.54-2.14-6.78-8.62-2.98-12.63c3.87-4.06,11.95-5.15,16.45-1.7c-0.36-0.98-0.48-2.51-1.65-3.18c-1.21-0.68-2.11-0.4-3.26-0.93
			c-3.24-1.49-8.35,0.84-11.2,2.35c-2.33,1.24-3.65,3.31-4.3,5.91c-0.5,2.01-0.27,4.56,0.53,6.47c1.23,2.95,4.62,4.91,7.35,6.41
			c2.94,1.61,8.19-0.11,10.73-1.96c2.88-2.11,4.97-5.4,5.99-8.8c0.49-1.61,0.82-3.37,0.92-5.06
			C71.541,54.234,71.5,52.254,71.151,50.534z M82.851,106.384c2.72,0.45,3.6-1.86,2.48-3.98c-0.1-0.18-0.21-0.369-0.34-0.55
			c-1.65-2.31-3.61-3.979-5.7-5.84c-1.02-0.91-2.11-1.82-3.21-2.62c-1.09-0.8-2.23-1.52-3.4-2.22c-1.5-0.89-2.99-1.81-4.5-2.7
			c-1.28-0.76-2.43-1.24-3.85-1.76c-1.22-0.45-2.42-0.9-3.66-1.29c-1.28-0.41-2.43-0.87-3.75-1.03c-0.85-0.1-1.67-0.32-2.51-0.49
			c-1.74-0.34-3.5-0.57-5.23-0.81c-1.3-0.18-2.57-0.21-3.84-0.39c-2.12-0.29-3.04,1.58-3.56,3.34c-0.26,0.88-0.43,1.55-0.17,2.42
			c0.13,0.41,0.37,0.89,0.58,1.29c0.37,0.72,0.58,1.24,1.12,1.83c0.59,0.649,1.12,1.37,1.73,2.01c2.52,2.67,5.83,4.021,8.77,6.021
			c0.89,0.6,1.9,0.949,2.87,1.42c1.37,0.649,2.87,1.09,4.26,1.71c2.35,1.04,4.8,1.81,7.26,2.55c1.59,0.479,3.26,0.58,4.86,0.96
			c0.92,0.22,1.84,0.28,2.78,0.37c0.56,0.06,1.11-0.09,1.67-0.05c0.46,0.029,0.83,0.189,1.3,0.149
			C80.161,106.614,81.5,106.164,82.851,106.384z M77.96,58.024c3.35,2.65,6.97,4.79,10.2,7.6c6.39,5.56,11.25,12.81,14.72,20.42
			c3.14,6.89,6.14,14.35,5.4,21.83c-0.81,8.2-1.63,16.58-5.04,24.29c-0.96,2.17-2.01,4.29-3.04,6.43c-0.95,1.95-1.22,3.87-2.55,5.65
			c-1.18,1.569-2.04,3.34-3.25,4.899c-0.61,0.78-1.95,1.78-2.31,2.53c-0.78,1.64-3.22,2.9-4.38,4.42c-1.07,1.4-2.49,2.73-3.75,3.95
			c-2.03,1.99-4.39,2.979-6.32,5.359c2.86,0.15,5.37-1.13,7.92-2.21c1.8-0.77,3.9-1.47,5.47-1.939c0.91-0.271,2.05-0.98,3-1.351
			c1.34-0.52,2.68-1.039,4.01-1.569c2.68-1.07,5.35-2.181,7.89-3.55c1.31-0.71,2.49-1.57,3.74-2.391c0.95-0.64,1.96-0.29,2.811-0.79
			c1.689-1,2.47-3.689,3.46-5.3c1.7-2.75,2.58-5.04,1.92-8.29c-0.49-2.41-0.26-5.06-1.49-7.229c-1.09-1.931-1.27-4.67-1.65-6.841
			c-0.3-1.76-1.06-3.449-1.3-5.21c-0.239-1.83,0.21-3.68,0.271-5.51c0.01-0.29,0-0.609-0.021-0.92l0.851-0.02
			c0,0.689,2.27-0.851,2.529-1.101c1.07-1.02,2.141-2.18,3.381-2.99c0.909-0.6,2.529-2.359,3.649-2.569
			c2.11-0.391-1.479,2.04-1.62,2.14c-2.05,1.39-8.33,5.48-7.2,8.36c1.46-1.36,7.86-8.48,10.021-6.69
			c-2.79,1.681-5.521,3.58-7.78,5.94c-1.46,1.51-3.18,2.609-1.899,4.62c2.01-2.07,4.399-3.74,6.699-5.46
			c1.091-0.82,3.9-4.11,5.341-3.08c0.72-1.28-0.21-4.15-0.08-5.62c0.17-1.87,1.149-0.87,1.229,0.399
			c2.41-1.13,4.96-1.779,7.59-1.609c0.42,0.02,0.851,0.069,1.28,0.14c-0.75,2.44-8.66-0.29-8.96,2.82c-0.44,4.6,2.9,1.189,5.44,1.6
			c1.189,0.2,3.02-0.62,4.439-0.59c2.07,0.03,0.69,0.9-0.71,0.83c-0.83-0.03-1.34,0.55-2.22,0.479c-1.32-0.09-2.561,0.351-3.8,0.73
			c-1.551,0.47-3.29,0.13-3.62,2.05c-0.62,0.04-0.4-1.26-1.101-0.91c-0.75,0.37-1.399,1.011-2.04,1.54
			c-1.449,1.23-3.04,2.21-4.56,3.34c-0.47,0.351-6.53,5.711-4.16,6c0.33,0.04,1.99-1.779,2.32-2.06c0.399-0.34,0.51-0.92,0.89-1.24
			c0.59-0.51,1.33-0.63,1.86-1.229c0.779-0.891,4.25-4.101,5.38-3.38c-0.57,1.409-2.25,1.729-3.25,2.71
			c-1.101,1.08-0.99,2.77-1.69,4.069c1.87-0.489,2.63-3.069,4.771-2.92c-0.91,2.261-3.94,3.05-5.561,4.681
			c-1.029,1.029-1.069,2.619-2.3,3.52c-0.55,0.4-0.939,0.021-1.52,0.08c-0.07,0.91,0.46,1.61,0.67,2.45
			c2.21-2.681,5.21-4.58,7.09-7.561c0.35,0.931,1.13,0.29,1.76,0.801c-0.01,0.06-0.03,0.119-0.05,0.18
			c-0.31,0.84-1.521,0.979-1.92,1.8c-0.74,1.49-1.57,2.83-2.15,4.4c1.61-0.59,2.41-2.561,4.21-2.78c-1.399,2.38-3.89,3.78-5.43,5.76
			c-0.42,0.54-1.43,1.8-2.01,2.15c-0.92,0.56,0.149,1.569,0.26,2.34c1.2-1.65,3.2-4.43,5.23-5.17c1.6-0.59-0.461,3.729-0.591,4.08
			c2.28,0.33-1.68,2.6-2.29,3.5c-1.27,1.84-1.89,3.979-2.89,5.939c-0.15,0.28-0.3,0.561-0.46,0.83c-1.54,2.57-3.29,5.08-4.95,7.57
			c-0.6,0.9-3.76,4.13-4.72,1.47c-0.12,0.17-0.24,0.33-0.36,0.5c-1.31,0.59-2.42,1.32-3.87,1.92c-0.84,0.34-2.86,1.08-3.36,1.73
			c-0.75,0.97-3.26,1.52-4.41,1.85c-1.7,0.5-3.08,1-4.78,1.75c-2.49,1.11-5.11,2.41-7.79,3.4c-1.6,0.59-3.23,1.07-4.86,1.32
			c-1.5,0.229-7.33,0.06-4.42-2.521c2.61-2.32,5.49-4.36,8.03-6.77c2.55-2.421,4.63-4.971,7.2-7.36c3.39-3.16,5.51-6.63,7.37-10.83
			c1.89-4.27,4.2-8.46,5.52-12.95c2.13-7.29,4.27-16.74,2.84-24.33c-1.32-7-4.16-14.34-7.68-20.76
			c-4.04-7.36-9.99-13.23-16.41-18.54c-1.16-0.95-2.26-2.01-3.45-2.87c-0.98-0.7-2.07-1.2-3.04-1.91c-0.47-0.34-1.78-1.62-2.43-1.16
			c-0.36,0.26-0.3,1.43-0.06,1.74c0.83,1.1,3.2,3.06,4.4,3.79c1.82,1.1,3.41,2.21,4.89,3.73c2.96,3.01,6,5.44,8.52,8.8
			c2.94,3.92,5.65,8.05,7.5,12.59c2.69,6.61,3.92,13.69,3.95,20.811c0.01,2.149-0.72,4.51-0.23,6.52c0.22,0.94,0.03,3.95-0.42,4.771
			c-1.18,2.18-2.84,1.109-3.27-0.61c-0.62-2.561-1.33-4.88-2.71-7.11c-0.8-1.29-1.57-2.49-2.54-3.67
			c-0.93-1.149-1.99-2.22-3.17-3.109c-1.08-0.83-2.03-0.841-2.38,0.77c-0.11,0.55-0.09,0.48,0.31,0.92
			c5.13,5.51,9.22,12.22,9.32,19.95c0.09,6.649-2.79,12.87-6.79,18.04c-5.25,6.78-11.12,12.6-18.58,16.92
			c-3.68,2.13-7.37,4.05-11.35,5.55c-2.54,0.96-5.27,1.39-7.6,2.311c-2.98,1.17-7.59,2.229-10.81,2.149c-0.26,0-0.97-0.04-1.61-0.2
			c-0.1-0.02,0.57,2.48,0.92,3.92l-0.74,0.15c-0.55-1.77-1.41-4.86-1.4-5.03c0.09-1.46,1.87-0.6,2.4-0.52
			c1.88,0.29,4.41-0.51,6.24-0.9c2.09-0.43,4.25-0.939,6.26-1.66c3.11-1.109,6.07-1.819,9.15-3.22c14.46-6.6,27.89-18.08,31.3-34.11
			c0.75-3.52,0.41-6.92-0.08-10.439c-0.45-3.25-2.92-5.771-4.89-8.22c-0.82-1.021-1.9-1.73-2.74-2.69
			c-0.35-0.41-0.78-1.13-1.29-1.36c-0.47-0.22-0.93-0.01-1.44,0.08c-1.24,0.21-2.48,0.42-3.72,0.591
			c-2.41,0.319-4.84,0.439-7.25,0.09c-8.53-1.221-17.78-4.44-24.96-9.221c-4.16-2.779-6.33-5.68-8.65-10.01
			c-0.63-1.18-0.36-3.39-2.1-3.31c-1.45,0.07-2.64,0.88-4.14,0.7c-2.25-0.28-5.98-1.43-3.79-4.39c1.2-1.62,1.91-1.04,0.15-2.85
			c-0.06-0.06-2.4-2.29-1.06-2.35c0.71-0.02,1.36,0.81,2.07,0.95c1.41,0.27,0.63-1.4,0.13-1.86c-0.45-0.4-5.3-3.93-3.14-4.03
			c1.06-0.05,2.62,1,3.33-0.27c0.63-1.14,0.59-2.45,2.05-2.8c2.29-0.54,2.02,0.18,3.19,1.81c0.85,1.2,2.28,1.81,3.15,3.06
			c0.36,0.53,0.85,1.31,0.71,2.01c-0.14,0.66-0.88,0.79-0.24,1.46c0.72,0.76,1.4,2.19,2.33,2.67c1.37,0.71,0.7,0.03,2.1-0.03
			c2.32-0.1,4.58,0.95,6.84,1.35c7.38,1.32,15.3,3.25,21.74,7.23c1.55,0.95,3.05,1.98,4.53,3.03c1.82,1.311,3.62,2.48,5.36,3.88
			c1.12,0.9,2.09,1.98,2.9,3.16c0.66,0.98,0.93,2.04,1.48,3.04c0.58,1.05,2.14,1.55,3.09,2.25c1.25,0.92,2.42,1.95,3.49,3.08
			c1.38,1.45,2.47,3.13,3.38,4.9c0.45,0.88,0.86,1.779,1.25,2.68c0.26,0.6,0.59,2.12,1.19,2.4c0.49-0.78,0.38-1.83,0.47-2.71
			c0.09-0.841,0.16-1.7,0.22-2.551c0.11-1.869,0.09-3.75-0.04-5.619c-0.27-3.7-0.98-7.37-1.86-10.971c-0.9-3.67-1.34-6.49-3.25-9.82
			c-1.81-3.13-3.44-6.26-5.69-9.12c-2.54-3.23-5.42-6.18-8.52-8.88c-2.87-2.51-5.02-4.7-8.37-6.51c0.49,1.33-1.6,4.58-2.43,6.02
			c-3.1,5.37-9.28,8.83-15.54,6.91c-5.27-1.62-11.59-6.6-11.6-12.61c0-5.27,4.39-9.38,8.88-11.4c2.44-1.1,5.15-1.74,7.83-1.63
			c1.25,0.05,2.5,0.26,3.68,0.7c0.3,0.11,1.43,0.85,1.7,0.75c0.59-0.2,0.09-1.57-0.05-2.13c-0.24-1-0.6-1.69-1.09-2.59
			c-1.08-2.04-2.33-3.61-4.07-5.14c-2.14-1.87-4.2-3.06-6.81-4.12c-1.85-0.76-3.71-1.06-5.6-1.63c-1.7-0.52-3.38-1.03-5.13-1.32
			c-4.06-0.68-8.11-0.94-12.14-1.8c-2.53-0.55-5.06-1.11-7.63-1.52c-3.46-0.56-7.04-2.01-10.2-3.5c-2.66-1.26-5.97-2.98-8.23-4.89
			c-5.11-4.32-5.18-13.03-0.17-17.51c0.55-0.5,6.27-3.71,6.41-3.07c0.32,1.48-3.44,3.33-4.32,4.11c-1.81,1.61-2.53,4.68-1.68,6.96
			c3.84,10.31,16.26,12.95,25.77,14.98c8.82,1.89,18.14,1.66,26.42,5.36c4.97,2.23,7.42,4.15,10.16,7.9
			c1.92,2.62,4.49,5.89,5.21,9.1c0.36,1.6,0.74,4.19,1.41,5.73C74.081,56.194,76.571,56.924,77.96,58.024z" />
</svg>
