<svg xmlns="http://www.w3.org/2000/svg" viewBox="0 0 100 100" x="0px" y="0px">
    <path d="M44.32406,54.52527l-.42244-.12255L24.81055,48.86653a1.42733,1.42733,0,0,0-1.76021.9466L18.5755,64.10341l-.0026.01043a.19772.19772,0,0,0-.01564.05215l-.00261.00521L13.52958,80.22168a1.43221,1.43221,0,0,0,1.05091,1.82018l25.15138,5.63787c.03129.00784.0626.01565.09648.02087.03131.00782.0626.013.0965.01826a1.6092,1.6092,0,0,0,.19558.013c.03911,0,.07562-.00261.11473-.00522a.32456.32456,0,0,0,.07041-.00781.66984.66984,0,0,0,.12257-.02087h.0026l.01825-.00522a1.41552,1.41552,0,0,0,1.08743-1.21l.25294-2.01576,1.20215-9.60941.41725-3.33787,1.82278-14.54322.11213-.90228A1.42616,1.42616,0,0,0,44.32406,54.52527ZM38.89742,84.56874,16.71881,79.59322,20.81814,66.4999l.85793-2.7381,3.68209-11.7634L42.35784,56.927,40.49072,71.83266v.00261L40.123,74.782Z">
    </path>
    <path d="M43.40876,71.51975l-.41725,3.33787.41986-3.33787,1.82017-14.54322Zm0,0-.41725,3.33787.41986-3.33787,1.82017-14.54322Zm0,0-.41725,3.33787.41986-3.33787,1.82017-14.54322ZM66.76343,80.4694l-.12518-.99613L64.85458,65.23515l-.193-1.536v-.00259L63.22476,52.21484l-.27119-2.154a1.42861,1.42861,0,0,0-.64673-1.02744,1.39759,1.39759,0,0,0-.44852-.18514,1.327,1.327,0,0,0-.485-.02608.75815.75815,0,0,0-.08085.01044l-.00782.00259a.94628.94628,0,0,0-.11735.02609,1.04806,1.04806,0,0,0-.11994.03651l-5.10591,1.64024h-.00261l-1.888.605-1.33776.43026h-.00261l-1.38208.44592-7.42676,2.38346-.412.133a1.43337,1.43337,0,0,0-.9805,1.1839L42.35784,56.927,40.49072,71.83266v.00261L40.123,74.782l-1.22561,9.78676-.19558,1.5594a1.42837,1.42837,0,0,0,1.03,1.55159c.03129.00784.0626.01565.09648.02087.03131.00782.0626.013.0965.01826a1.6092,1.6092,0,0,0,.19558.013c.03911,0,.07562-.00261.11473-.00522a.32456.32456,0,0,0,.07041-.00781.66984.66984,0,0,0,.12257-.02087h.0026l.01825-.00522,24.89584-5.5805.31293-.07041A1.43164,1.43164,0,0,0,66.76343,80.4694ZM41.78936,84.467l1.20215-9.60941.41986-3.33787,1.82017-14.54322,6.475-2.08095.39375-.12518,2.37042-.76145.66757-.21645,5.19717-1.66892,3.43176,27.41488Zm1.6194-12.94728-.41725,3.33787.41986-3.33787,1.82017-14.54322Zm0,0-.41725,3.33787.41986-3.33787,1.82017-14.54322Z">
    </path>
    <path d="M91.93567,85.87781,85.904,66.61464a1.06341,1.06341,0,0,0-.03912-.12l-3.45-11.02542a1.429,1.429,0,0,0-.96484-.944L61.93655,48.86653c-.02607-.00781-.05216-.013-.07823-.01824a1.327,1.327,0,0,0-.485-.02608.75815.75815,0,0,0-.08085.01044l-.00782.00259a.94628.94628,0,0,0-.11735.02609,1.04806,1.04806,0,0,0-.11994.03651,1.432,1.432,0,0,0-.92575,1.51767l.21383,1.70807,3.43176,27.41488.16168,1.2856a1.43288,1.43288,0,0,0,1.103,1.2178l.31293.07041L90.25893,87.698a1.41989,1.41989,0,0,0,.31291.0339,1.42674,1.42674,0,0,0,1.36383-1.85408ZM66.63825,79.47327,64.85458,65.23515l-.193-1.536v-.00259L63.22476,52.21484l16.69458,4.83992,2.56859,8.20387v.00261l.94661,3.02233L88.47,84.37055Z">
    </path>
    <path d="M84.324,68.4103a1.42784,1.42784,0,1,0,.40746-2.82647l-3.29784-.47557a1.42784,1.42784,0,1,0-.40746,2.82647Z">
    </path>
    <path d="M51.708,70.68874a1.42308,1.42308,0,0,0,.59769-.1319l7.009-3.23672a1.42792,1.42792,0,1,0-1.19742-2.59269l-7.009,3.23672a1.42811,1.42811,0,0,0,.59972,2.72459Z">
    </path>
    <path d="M73.38514,66.83282a1.42784,1.42784,0,1,0,.40745-2.82647l-7.64106-1.10192a1.42784,1.42784,0,1,0-.40746,2.82647Z">
    </path>
    <path d="M41.11036,75.20629a1.4287,1.4287,0,0,0,1.16176-.01593l3.02484-1.3968a1.42792,1.42792,0,1,0-1.19741-2.59269L41.652,72.33105l-2.47733-1.063a1.428,1.428,0,1,0-1.12608,2.62453Z">
    </path>
    <path d="M32.8413,71.65863a1.428,1.428,0,0,0,1.12612-2.62454L28.76013,66.8A1.428,1.428,0,1,0,27.634,69.42449Z">
    </path>
    <path d="M22.42649,67.19036a1.428,1.428,0,0,0,1.12611-2.62453l-3.06176-1.31366a1.428,1.428,0,0,0-1.12612,2.62453Z">
    </path>
    <path d="M37.1398,15.36c-12.54048-4.7043-27.71215,2.1253-27.71215,2.1253S16.21552,30.94373,26.868,37.22049c6.222,3.66645,13.61485,3.30919,17.66464-.51371a9.298,9.298,0,0,0,1.78107-2.28958c.146-.26338.279-.53458.40158-.81621C49.54992,27.03738,45.42712,18.46844,37.1398,15.36Zm4.6965,14.61364a37.68932,37.68932,0,0,0-13.98778-7.37723,1.42792,1.42792,0,0,0-.65452,2.77983,35.4834,35.4834,0,0,1,12.91077,6.87131,33.35179,33.35179,0,0,1,3.50217,3.377,9.55142,9.55142,0,0,1-3.6482,2.12269A15.46453,15.46453,0,0,1,27.593,35.98966c-8.20126-4.8321-14.12858-14.259-16.14173-17.7794,3.98719-1.49682,15.51067-5.1424,25.18528-1.51247a14.94165,14.94165,0,0,1,8.582,7.97439,10.54416,10.54416,0,0,1,.18514,8.36033c-.03391.07823-.06779.15645-.1043.23209A35.51895,35.51895,0,0,0,41.8363,29.97367Z">
    </path>
    <path d="M47.84707,23.55607A17.8137,17.8137,0,0,0,37.6405,14.02228C24.69581,9.16933,9.4824,15.89463,8.84092,16.18147a1.43065,1.43065,0,0,0-.68844,1.94536c.28424.56587,7.10079,13.90692,17.9906,20.32451a19.575,19.575,0,0,0,9.83108,2.75895,15.74188,15.74188,0,0,0,4.87121-.74841,12.32181,12.32181,0,0,0,4.56611-2.62858,10.75431,10.75431,0,0,0,1.85669-2.227,10.6408,10.6408,0,0,0,.75624-1.43946A13.36248,13.36248,0,0,0,47.84707,23.55607Zm-2.44342,9.47644c-.03391.07823-.06779.15645-.1043.23209a7.91449,7.91449,0,0,1-1.69241,2.36,9.55142,9.55142,0,0,1-3.6482,2.12269A15.46453,15.46453,0,0,1,27.593,35.98966c-8.20126-4.8321-14.12858-14.259-16.14173-17.7794,3.98719-1.49682,15.51067-5.1424,25.18528-1.51247a14.94165,14.94165,0,0,1,8.582,7.97439A10.54416,10.54416,0,0,1,45.40365,33.03251Z">
    </path>
    <path d="M54.70537,61.55828a1.42407,1.42407,0,0,1-1.37688,1.36122.10688.10688,0,0,1-.02868.00261h-.0652a.25266.25266,0,0,1-.04432-.00261,1.42848,1.42848,0,0,1-1.33776-1.489q.1017-2.22568.0052-4.34446-.04693-1.11087-.15123-2.19047-.13692-1.46684-.37812-2.87632a32.40936,32.40936,0,0,0-5.9169-14.186q-.42638-.575-.8788-1.12652-.44983-.55154-.92574-1.08221a33.35179,33.35179,0,0,0-3.50217-3.377A35.4834,35.4834,0,0,0,27.194,25.37627a1.42792,1.42792,0,0,1,.65452-2.77983A37.68932,37.68932,0,0,1,41.8363,29.97367a35.51895,35.51895,0,0,1,3.463,3.29093q.5085.55543,1.0144,1.1526.485.575.95442,1.18912a35.22314,35.22314,0,0,1,6.27676,13.169c.18775.76667.35726,1.5542.5059,2.36781q.25424,1.3886.41984,2.86587c.11474,1.0144.19819,2.0601.24251,3.13968Q54.80707,59.2648,54.70537,61.55828Z">
    </path>
    <path d="M65.76467,25.67875c-6.43322,2.41475-9.6355,9.067-7.432,14.15988.04955.11215.09909.22167.15125.32858a7.27386,7.27386,0,0,0,1.78107,2.3c3.18923,2.76419,8.76452,2.95976,13.474.18254,8.269-4.8712,13.53924-15.32031,13.53924-15.32031S75.50188,22.028,65.76467,25.67875ZM73.01411,41.4189a11.67918,11.67918,0,0,1-9.33822,1.33776A7.23186,7.23186,0,0,1,61.196,41.39022a25.78139,25.78139,0,0,1,2.45126-2.33911,27.14753,27.14753,0,0,1,9.91453-5.28323,1.42823,1.42823,0,0,0-.65715-2.77983,29.5376,29.5376,0,0,0-10.98891,5.79174,28.36269,28.36269,0,0,0-2.38345,2.22178,7.94393,7.94393,0,0,1,.25557-5.96645A11.2809,11.2809,0,0,1,66.268,27.01651,20.27347,20.27347,0,0,1,73.39484,25.83a36.49572,36.49572,0,0,1,11.84685,2.2322C83.53624,30.98546,79.09008,37.83852,73.01411,41.4189Z">
    </path>
    <path d="M88.62389,26.85223a1.42311,1.42311,0,0,0-.75885-.824c-.50331-.22687-12.431-5.49968-22.601-1.68459a14.1448,14.1448,0,0,0-8.10477,7.57279,10.69418,10.69418,0,0,0-.1382,8.49073,8.24448,8.24448,0,0,0,.49545.96745,8.71582,8.71582,0,0,0,1.87756,2.227,10.05356,10.05356,0,0,0,3.39525,1.86972,12.53469,12.53469,0,0,0,3.87767.59455,15.4983,15.4983,0,0,0,7.797-2.18526c8.53243-5.02767,13.8678-15.46635,14.08948-15.907A1.434,1.434,0,0,0,88.62389,26.85223Zm-24.948,15.90443A7.23186,7.23186,0,0,1,61.196,41.39022a5.82038,5.82038,0,0,1-1.55418-2.11746c-.03913-.08865-.07564-.17993-.10954-.27119a7.94393,7.94393,0,0,1,.25557-5.96645A11.2809,11.2809,0,0,1,66.268,27.01651,20.27347,20.27347,0,0,1,73.39484,25.83a36.49572,36.49572,0,0,1,11.84685,2.2322c-1.70545,2.92325-6.15161,9.77631-12.22758,13.35669A11.67918,11.67918,0,0,1,63.67589,42.75666Z">
    </path>
    <path d="M73.56174,33.76788a27.14753,27.14753,0,0,0-9.91453,5.28323A25.78139,25.78139,0,0,0,61.196,41.39022q-.485.52416-.93094,1.077-.45766.55543-.871,1.13437a23.99277,23.99277,0,0,0-3.45261,6.9365h-.00261a26.96438,26.96438,0,0,0-.80057,3.25442,30.55292,30.55292,0,0,0-.42506,3.35613v.00783a36.258,36.258,0,0,0-.05215,4.274,1.42585,1.42585,0,0,1-1.33254,1.489.10688.10688,0,0,1-.02868.00261h-.0652a.25266.25266,0,0,1-.04432-.00261,1.42876,1.42876,0,0,1-1.3821-1.36122,38.82821,38.82821,0,0,1,.04954-4.4644v-.00783q.08607-1.193.24252-2.31565a31.03022,31.03022,0,0,1,.61021-3.19706h.00261a28.13315,28.13315,0,0,1,.83186-2.79807,27.2636,27.2636,0,0,1,3.97154-7.40069q.47723-.63368.96747-1.20737c.34683-.40942.69887-.798,1.04829-1.16564a28.36269,28.36269,0,0,1,2.38345-2.22178,29.5376,29.5376,0,0,1,10.98891-5.79174,1.42823,1.42823,0,0,1,.65715,2.77983Z">
    </path>
</svg>
