<svg xmlns="http://www.w3.org/2000/svg"
    xmlns:xlink="http://www.w3.org/1999/xlink" style="isolation:isolate" viewBox="0 0 75 300" width="75pt" height="300pt">
    <path d=" M 37.5 75 C 16.789 75 0 58.211 0 37.5 C 0 16.789 16.789 0 37.5 0 C 58.211 0 75 16.789 75 37.5 C 75 58.211 58.211 75 37.5 75 Z " fill="rgb(0,0,0)"/>
    <path d=" M 37.5 187.5 C 16.789 187.5 0 170.711 0 150 C 0 129.289 16.789 112.5 37.5 112.5 C 58.211 112.5 75 129.289 75 150 C 75 170.711 58.211 187.5 37.5 187.5 Z " fill="rgb(0,0,0)"/>
    <path d=" M 37.5 300 C 16.789 300 0 283.211 0 262.5 C 0 241.789 16.789 225 37.5 225 C 58.211 225 75 241.789 75 262.5 C 75 283.211 58.211 300 37.5 300 Z " fill="rgb(0,0,0)"/>
</svg>
