<svg xmlns="http://www.w3.org/2000/svg"
	xmlns:xlink="http://www.w3.org/1999/xlink" style="isolation:isolate" viewBox="0 0 270 270" width="270pt" height="270pt">
	<path d=" M 135 0 C 60.442 0 0 60.442 0 135 C 0 209.558 60.442 270 135 270 C 209.558 270 270 209.558 270 135 C 269.917 60.476 209.524 0.083 135 0 L 135 0 Z  M 135 261 C 65.412 261 9 204.588 9 135 C 9 65.412 65.412 9 135 9 C 204.588 9 261 65.412 261 135 C 261 204.588 204.588 261 135 261 Z " fill="rgb(0,0,0)"/>
	<path d=" M 180.81 169.29 L 91.98 169.29 C 90.248 169.09 88.555 169.901 87.626 171.376 C 86.697 172.851 86.697 174.729 87.626 176.204 C 88.555 177.679 90.248 178.49 91.98 178.29 L 180.81 178.29 C 182.542 178.49 184.235 177.679 185.164 176.204 C 186.093 174.729 186.093 172.851 185.164 171.376 C 184.235 169.901 182.542 169.09 180.81 169.29 Z " fill="rgb(0,0,0)"/>
	<path d=" M 180.81 200.49 L 91.98 200.49 C 89.776 200.851 88.157 202.756 88.157 204.99 C 88.157 207.224 89.776 209.129 91.98 209.49 L 180.81 209.49 C 183.014 209.129 184.633 207.224 184.633 204.99 C 184.633 202.756 183.014 200.851 180.81 200.49 Z " fill="rgb(0,0,0)"/>
	<path d=" M 95.28 146.49 C 96.489 146.49 97.649 146.01 98.504 145.154 C 99.36 144.299 99.84 143.139 99.84 141.93 C 99.84 121.667 116.267 105.24 136.53 105.24 C 156.793 105.24 173.22 121.667 173.22 141.93 C 172.928 143.713 173.716 145.5 175.23 146.487 C 176.743 147.474 178.697 147.474 180.21 146.487 C 181.724 145.5 182.512 143.713 182.22 141.93 C 182.248 122.825 170.408 105.711 152.52 99 C 160.71 91.99 163.643 80.608 159.861 70.513 C 156.079 60.418 146.388 53.766 135.608 53.864 C 124.829 53.962 115.261 60.79 111.662 70.951 C 108.064 81.113 111.204 92.44 119.52 99.3 C 102.093 106.221 90.638 123.059 90.6 141.81 C 90.567 143.061 91.049 144.271 91.934 145.156 C 92.819 146.041 94.029 146.523 95.28 146.49 Z  M 135.9 63 C 142.615 62.988 148.676 67.025 151.251 73.227 C 153.827 79.429 152.409 86.572 147.661 91.321 C 142.912 96.069 135.769 97.487 129.567 94.911 C 123.365 92.336 119.328 86.275 119.34 79.56 C 119.357 70.421 126.761 63.017 135.9 63 L 135.9 63 Z " fill="rgb(0,0,0)"/>
</svg>
