<svg height="300px" width="300px" xmlns="http://www.w3.org/2000/svg" xmlns:xlink="http://www.w3.org/1999/xlink" version="1.1" x="0px" y="0px" viewBox="0 0 96 96" style="enable-background:new 0 0 96 96;" xml:space="preserve">
    <path d="M48.5,6.6c-11.6,0-21,9.5-21,21.2v5.3h-1c-6.1,0-11,4.9-11,11v34.2c0,6.1,4.9,11,11,11h43c6.1,0,11-4.9,11-11V44.1   c0-6.1-4.9-11-11-11v-5.3C69.5,16.1,60.1,6.6,48.5,6.6z M33.5,27.8c0-8.4,6.7-15.2,15-15.2s15,6.8,15,15.2v5.3h-30V27.8z    M74.5,44.1v34.2c0,2.8-2.2,5-5,5h-43c-2.8,0-5-2.2-5-5V44.1c0-2.8,2.2-5,5-5h43C72.3,39.1,74.5,41.4,74.5,44.1z">
    </path>
    <path d="M48,59.1c-1.7,0-3,1.3-3,3v6c0,1.7,1.3,3,3,3s3-1.3,3-3v-6C51,60.5,49.7,59.1,48,59.1z">
    </path>
</svg>
