<!-- <svg xmlns="http://www.w3.org/2000/svg" xmlns:xlink="http://www.w3.org/1999/xlink" style="isolation:isolate" viewBox="0 0 300 300" width="300pt" height="300pt">
	<path transform="scale(0.003333, 0.003333)" d=" M 162.3 216.9 C 162.3 214.5 160.2 212.4 157.8 212.4 C 152.1 212.1 141.9 213 135.6 219.3 C 129.3 225.6 128.7 235.8 128.7 241.5 C 128.7 243.9 130.8 246 133.2 246 C 138.9 246.3 149.1 245.4 155.4 239.1 C 161.7 232.8 162.6 222.6 162.3 216.9 Z " fill="rgb(0,0,0)" />
	<path transform="scale(0.003333, 0.003333)" d=" M 203.7 212.4 C 198 212.1 187.8 213 181.5 219.3 C 175.2 225.6 174.6 235.8 174.6 241.5 C 174.6 243.9 176.7 246 179.1 246 C 184.8 246.3 195 245.4 201.3 239.1 C 207.6 232.8 208.2 222.6 207.9 216.9 C 207.9 214.5 206.1 212.7 203.7 212.4 Z " fill="rgb(0,0,0)" />
	<path transform="scale(0.003333, 0.003333)" d=" M 175.5 259.2 C 169.8 258.9 159.6 259.8 153.3 266.1 C 147 272.4 146.4 282.6 146.4 288.3 C 146.4 290.7 148.5 292.8 150.9 292.8 C 156.6 293.1 166.8 292.2 173.1 285.9 C 179.4 279.6 180 269.4 180 263.7 C 180 261 177.9 259.2 175.5 259.2 Z " fill="rgb(0,0,0)" />
	<path transform="scale(0.003333, 0.003333)" d=" M 251.4 116.7 L 147.6 12.6 C 140.7 5.7 129.6 5.7 123 12.6 L 48.6 87 C 41.7 93.9 41.7 105 48.6 111.6 L 123 186 C 124.2 187.2 125.4 187.8 126.9 188.1 L 150.6 194.7 C 153 195.3 155.4 195 157.5 193.8 L 165.6 189 C 167.7 187.8 169.8 187.5 172.2 188.1 L 194.1 193.2 C 197.1 193.8 200.1 192.9 202.2 190.8 L 251.7 141.3 C 258.3 134.4 258.3 123.3 251.4 116.7 Z " fill="rgb(0,0,0)" />
	<path transform="scale(0.003333, 0.003333)" d=" M 174.3 153 C 173.4 153.3 172.5 153.6 171.6 153.6 C 168.9 153.6 166.5 152.1 165.6 149.4 C 162.9 143.4 159.9 138 156.6 133.5 C 149.1 135.9 141 135.9 135 132 C 122.1 123.3 119.7 92.4 120.6 74.4 C 120.9 71.1 124.5 69.6 126.9 72 C 145.8 90.9 174.6 90.3 176.4 110.7 C 176.7 114 175.8 117.3 174.3 120 C 161.7 109.2 149.1 105 144.9 103.8 C 154.5 110.7 169.2 123.6 177.9 144.3 C 179.4 147.6 177.6 151.5 174.3 153 Z " fill="rgb(0,0,0)" />
	<path transform="scale(0.003333, 0.003333)" d=" M 144.9 228 L 144.9 144.3 L 144.9 144.3" fill="none" vector-effect="non-scaling-stroke" stroke-width="0" stroke="rgb(0,0,0)" stroke-linejoin="miter" stroke-linecap="square" stroke-miterlimit="3" />
	<path transform="scale(0.003333, 0.003333)" d=" M 194.1 228 L 194.1 144.3 L 194.1 144.3" fill="none" vector-effect="non-scaling-stroke" stroke-width="0" stroke="rgb(0,0,0)" stroke-linejoin="miter" stroke-linecap="square" stroke-miterlimit="3" />
	<path transform="scale(0.003333, 0.003333)" d=" M 162.3 274 L 162.3 149.4 L 162.3 149.4" fill="none" vector-effect="non-scaling-stroke" stroke-width="0" stroke="rgb(0,0,0)" stroke-linejoin="miter" stroke-linecap="square" stroke-miterlimit="3" />
</svg> -->


<svg xmlns="http://www.w3.org/2000/svg" xmlns:xlink="http://www.w3.org/1999/xlink" style="isolation:isolate" viewBox="0 0 300 300" width="300pt" height="300pt">
	<path transform="scale(1, 1)" d=" M 162.3 216.9 C 162.3 214.5 160.2 212.4 157.8 212.4 C 152.1 212.1 141.9 213 135.6 219.3 C 129.3 225.6 128.7 235.8 128.7 241.5 C 128.7 243.9 130.8 246 133.2 246 C 138.9 246.3 149.1 245.4 155.4 239.1 C 161.7 232.8 162.6 222.6 162.3 216.9 Z " fill="rgb(0,0,0)">
        <animateMotion dur="1.6s" repeatCount="indefinite">
            <mpath xlink:href="#seed-1-line"></mpath>
          </animateMotion>
    </path>
	<path transform="scale(1, 1)" d=" M 203.7 212.4 C 198 212.1 187.8 213 181.5 219.3 C 175.2 225.6 174.6 235.8 174.6 241.5 C 174.6 243.9 176.7 246 179.1 246 C 184.8 246.3 195 245.4 201.3 239.1 C 207.6 232.8 208.2 222.6 207.9 216.9 C 207.9 214.5 206.1 212.7 203.7 212.4 Z " fill="rgb(0,0,0)" />
	<path transform="scale(1, 1)" d=" M 175.5 259.2 C 169.8 258.9 159.6 259.8 153.3 266.1 C 147 272.4 146.4 282.6 146.4 288.3 C 146.4 290.7 148.5 292.8 150.9 292.8 C 156.6 293.1 166.8 292.2 173.1 285.9 C 179.4 279.6 180 269.4 180 263.7 C 180 261 177.9 259.2 175.5 259.2 Z " fill="rgb(0,0,0)" />
	<path transform="scale(1, 1)" d=" M 251.4 116.7 L 147.6 12.6 C 140.7 5.7 129.6 5.7 123 12.6 L 48.6 87 C 41.7 93.9 41.7 105 48.6 111.6 L 123 186 C 124.2 187.2 125.4 187.8 126.9 188.1 L 150.6 194.7 C 153 195.3 155.4 195 157.5 193.8 L 165.6 189 C 167.7 187.8 169.8 187.5 172.2 188.1 L 194.1 193.2 C 197.1 193.8 200.1 192.9 202.2 190.8 L 251.7 141.3 C 258.3 134.4 258.3 123.3 251.4 116.7 Z " fill="rgb(0,0,0)" />
	<path transform="scale(1, 1)" d=" M 174.3 153 C 173.4 153.3 172.5 153.6 171.6 153.6 C 168.9 153.6 166.5 152.1 165.6 149.4 C 162.9 143.4 159.9 138 156.6 133.5 C 149.1 135.9 141 135.9 135 132 C 122.1 123.3 119.7 92.4 120.6 74.4 C 120.9 71.1 124.5 69.6 126.9 72 C 145.8 90.9 174.6 90.3 176.4 110.7 C 176.7 114 175.8 117.3 174.3 120 C 161.7 109.2 149.1 105 144.9 103.8 C 154.5 110.7 169.2 123.6 177.9 144.3 C 179.4 147.6 177.6 151.5 174.3 153 Z " fill="rgb(0,0,0)" />
	<path transform="scale(1, 1)" d=" M 144.9 228 L 144.9 144.3 L 144.9 144.3" fill="none" vector-effect="non-scaling-stroke" stroke-width="0" stroke="rgb(0,0,0)" stroke-linejoin="miter" stroke-linecap="square" stroke-miterlimit="3" id="seed-1-line"/>
	<path transform="scale(1, 1)" d=" M 194.1 228 L 194.1 144.3 L 194.1 144.3" fill="none" vector-effect="non-scaling-stroke" stroke-width="0" stroke="rgb(0,0,0)" stroke-linejoin="miter" stroke-linecap="square" stroke-miterlimit="3" id="seed-2-line" />
	<path transform="scale(1, 1)" d=" M 162.3 274 L 162.3 149.4 L 162.3 149.4" fill="none" vector-effect="non-scaling-stroke" stroke-width="0" stroke="rgb(0,0,0)" stroke-linejoin="miter" stroke-linecap="square" stroke-miterlimit="3" id="seed-3-line"/>
</svg>
