<svg xmlns="http://www.w3.org/2000/svg"
    xmlns:xlink="http://www.w3.org/1999/xlink" style="isolation:isolate" viewBox="0 0 0.72 1" width="0.7pt" height="1pt">
        <path d=" M 0.357 0 C 0.357 0 0.357 0 0.357 0 C 0.357 0 0.357 0 0.357 0 L 0.357 0 C 0 0.256 -0.001 0.603 0 0.639 C 0 0.641 0 0.642 0 0.643 C 0 0.84 0.16 1 0.357 1 C 0.555 1 0.714 0.84 0.714 0.643 C 0.714 0.643 0.735 0.27 0.357 0 L 0.357 0 L 0.357 0 Z " id="raindrop-outline"/>
        <path d=" M 0.358 0.02 C 0.54 0.155 0.622 0.314 0.659 0.424 C 0.7 0.547 0.696 0.64 0.696 0.641 L 0.696 0.641 L 0.696 0.642 C 0.696 0.828 0.545 0.98 0.358 0.98 C 0.172 0.98 0.02 0.828 0.02 0.641 L 0.02 0.638 C 0.019 0.601 0.021 0.27 0.358 0.02 Z " id="raindrop-fill"/>
</svg>
