<svg xmlns="http://www.w3.org/2000/svg"
    xmlns:xlink="http://www.w3.org/1999/xlink" style="isolation:isolate" viewBox="0 0 240.1 247.1" width="240.1pt" height="247.1pt">
    <path d=" M 45.248 3.68 C 67.958 20.519 78.227 40.346 82.85 54.167 C 88.004 69.572 87.479 81.092 87.473 81.203 L 87.47 81.284 L 87.47 81.365 C 87.47 104.654 68.525 123.599 45.236 123.599 C 21.95 123.599 3.002 104.654 3.005 81.236 L 3.011 80.864 C 2.891 76.205 3.083 34.913 45.248 3.68 Z " fill="rgb(0,0,0)"/>
    <path d=" M 45.257 -0.04 C 45.254 -0.037 45.248 -0.034 45.245 -0.031 C 45.242 -0.031 45.236 -0.034 45.233 -0.04 L 45.224 -0.013 C 0.002 32.318 -0.109 76.328 0.011 80.942 C 0.011 81.083 0.002 81.224 0.002 81.365 C 0.002 106.349 20.252 126.599 45.236 126.599 C 70.223 126.599 90.47 106.346 90.47 81.365 C 90.47 81.365 93.047 34.145 45.272 -0.016 L 45.257 -0.04 L 45.257 -0.04 Z " fill="rgb(0,0,0)"/>
    <path d=" M 194.876 34.178 C 217.583 51.017 227.852 70.844 232.478 84.665 C 237.632 100.07 237.104 111.59 237.101 111.701 L 237.095 111.782 L 237.095 111.863 C 237.095 135.152 218.15 154.097 194.861 154.097 C 171.575 154.097 152.63 135.152 152.63 111.863 L 152.633 111.665 L 152.639 111.44 L 152.639 111.359 C 152.516 106.7 152.696 65.423 194.876 34.178 Z " fill="rgb(0,0,0)"/>
    <path d=" M 194.888 30.458 C 194.882 30.461 194.876 30.464 194.876 30.467 C 194.87 30.467 194.864 30.464 194.861 30.458 L 194.852 30.485 C 149.63 62.816 149.519 106.826 149.639 111.44 C 149.636 111.584 149.63 111.722 149.63 111.866 C 149.63 136.847 169.88 157.1 194.861 157.1 C 219.848 157.1 240.095 136.847 240.095 111.866 C 240.095 111.866 242.672 64.646 194.9 30.485 L 194.888 30.458 L 194.888 30.458 Z " fill="rgb(0,0,0)"/>
    <path d=" M 110.873 124.175 C 133.586 141.017 143.855 160.844 148.481 174.665 C 153.635 190.07 153.107 201.593 153.104 201.701 L 153.098 201.782 L 153.098 201.863 C 153.098 225.152 134.15 244.097 110.858 244.097 C 87.572 244.097 68.624 225.152 68.627 201.734 L 68.633 201.362 C 68.516 196.7 68.708 155.414 110.873 124.175 Z " fill="rgb(0,0,0)"/>
    <path d=" M 110.885 120.458 C 110.879 120.464 110.873 120.464 110.873 120.467 C 110.867 120.464 110.861 120.464 110.858 120.458 L 110.849 120.485 C 65.627 152.819 65.519 196.826 65.636 201.44 C 65.636 201.584 65.627 201.722 65.627 201.866 C 65.627 226.847 85.877 247.1 110.861 247.1 C 135.851 247.1 156.101 226.847 156.101 201.866 C 156.101 201.866 158.678 154.649 110.9 120.485 L 110.885 120.458 L 110.885 120.458 Z " fill="rgb(0,0,0)"/>

    <text transform="matrix(1,0,0,1,28.473,84.243)" style="font-family:'Open Sans';font-weight:400;font-size:24px;font-style:normal;fill:#ffffff;stroke:none;" id="label-drop-left">EN</text>
    <rect x="0" y="0" width="61.612" height="57.865" transform="matrix(1,0,0,1,14.388,46)" id="label-rect-drop-left"/>
    <text transform="matrix(1,0,0,1,94.45,205.243)" style="font-family:'Open Sans';font-weight:400;font-size:24px;font-style:normal;fill:#ffffff;stroke:none;" id="label-drop-bottom">DE</text>
    <rect x="0" y="0" width="61.612" height="57.865" transform="matrix(1,0,0,1,80.065,167)" id="label-rect-drop-bottom"/>

    <text transform="matrix(1,0,0,1,180.613,114.176)" style="font-family:'Open Sans';font-weight:400;font-size:24px;font-style:normal;fill:#ffffff;stroke:none;" id="label-drop-right">ES</text>
    <rect x="0" y="0" width="61.612" height="57.865" transform="matrix(1,0,0,1,164.066,75.933)" id="label-rect-drop-right"/>
</svg>
