<svg xmlns="http://www.w3.org/2000/svg"
    xmlns:xlink="http://www.w3.org/1999/xlink" style="isolation:isolate" viewBox="0 0 90.5 126.6" width="90.5pt" height="126.6pt">
    <path d=" M 45.248 3.68 C 67.958 20.519 78.227 40.346 82.85 54.167 C 88.004 69.572 87.479 81.092 87.473 81.203 L 87.47 81.284 L 87.47 81.365 C 87.47 104.654 68.525 123.599 45.236 123.599 C 21.95 123.599 3.002 104.654 3.005 81.236 L 3.011 80.864 C 2.891 76.205 3.083 34.913 45.248 3.68 Z " fill="rgb(130,0,210)"/>
    <path d=" M 45.257 -0.04 C 45.254 -0.037 45.248 -0.034 45.245 -0.031 C 45.242 -0.031 45.236 -0.034 45.233 -0.04 L 45.224 -0.013 C 0.002 32.318 -0.109 76.328 0.011 80.942 C 0.011 81.083 0.002 81.224 0.002 81.365 C 0.002 106.349 20.252 126.599 45.236 126.599 C 70.223 126.599 90.47 106.346 90.47 81.365 C 90.47 81.365 93.047 34.145 45.272 -0.016 L 45.257 -0.04 L 45.257 -0.04 Z " fill="rgb(34,48,0)"/>
    <text transform="matrix(1,0,0,1,28.473,84.243)" style="font-family:'Open Sans';font-weight:400;font-size:24px;font-style:normal;fill:#ffffff;stroke:none;">EN</text>
    <rect x="0" y="0" width="61.612" height="57.865" transform="matrix(1,0,0,1,14.388,46)"/>
</svg>
