<svg height="300px" width="300px" fill="#000000" xmlns="http://www.w3.org/2000/svg" xmlns:xlink="http://www.w3.org/1999/xlink" viewBox="0 0 24 24" version="1.1" x="0px" y="0px">
	<g stroke="none" stroke-width="1" fill="none" fill-rule="evenodd">
		<g fill-rule="nonzero" fill="#000000">
			<path d="M8.97452669,16.2248655 C8.93392433,16.4015942 8.84478436,16.5694292 8.70710678,16.7071068 L4.17157288,21.2426407 C3.78104858,21.633165 3.1478836,21.633165 2.75735931,21.2426407 C2.36683502,20.8521164 2.36683502,20.2189514 2.75735931,19.8284271 L7.29289322,15.2928932 C7.4305708,15.1552156 7.59840579,15.0660757 7.77513446,15.0254733 C6.66490023,13.6519888 6,11.9036423 6,10 C6,5.581722 9.581722,2 14,2 C18.418278,2 22,5.581722 22,10 C22,14.418278 18.418278,18 14,18 C12.0963577,18 10.3480112,17.3350998 8.97452669,16.2248655 Z M14,16 C17.3137085,16 20,13.3137085 20,10 C20,6.6862915 17.3137085,4 14,4 C10.6862915,4 8,6.6862915 8,10 C8,13.3137085 10.6862915,16 14,16 Z M18.7214196,8.3510313 C18.9035091,8.87243504 18.6284405,9.44272899 18.1070368,9.62481848 C17.585633,9.80690797 17.0153391,9.53183942 16.8332496,9.01043567 C16.537859,8.16460009 15.8720371,7.48924061 15.0307164,7.18146255 C14.5120488,6.99171976 14.2454025,6.41743965 14.4351453,5.89877201 C14.6248881,5.38010437 15.1991682,5.11345809 15.7178358,5.30320087 C17.1217055,5.81677474 18.2284144,6.93933659 18.7214196,8.3510313 Z">
			</path>
		</g>
	</g>
</svg>
