<svg xmlns="http://www.w3.org/2000/svg"
	xmlns:xlink="http://www.w3.org/1999/xlink" style="isolation:isolate" viewBox="0 0 30 28.5" width="30pt" height="28.5pt">
	<path d=" M 29.993 0.319 C 29.98 0.156 29.863 0.021 29.703 -0.014 C 29.544 -0.05 29.38 0.024 29.3 0.166 C 29.289 0.187 28.135 2.198 25.841 2.198 C 25.358 2.198 24.85 2.109 24.33 1.933 C 23.411 1.62 22.578 1.461 21.857 1.461 C 19.632 1.461 19.025 2.926 18.891 3.375 C 18.857 3.49 18.836 3.625 18.822 3.766 C 18.714 3.717 18.594 3.69 18.467 3.696 C 16.062 3.868 14.353 5.501 13.513 8.422 C 13.422 8.282 13.324 8.146 13.217 8.013 C 12.384 6.985 11.197 6.405 9.687 6.289 C 9.668 6.288 9.649 6.29 9.63 6.29 C 9.632 5.983 9.586 5.706 9.504 5.491 C 9.374 5.151 8.821 4.044 7.167 4.044 C 6.489 4.044 5.702 4.234 4.828 4.609 C 4.33 4.822 3.84 4.93 3.37 4.93 C 1.672 4.93 0.688 3.502 0.679 3.488 C 0.588 3.352 0.419 3.292 0.263 3.339 C 0.107 3.387 0 3.531 0 3.694 C 0 3.741 0.051 8.447 4.482 9.333 C 4.995 9.436 5.482 9.488 5.932 9.488 C 7.705 9.488 8.617 8.703 9.069 8.045 C 9.151 7.926 9.222 7.804 9.284 7.682 C 9.371 7.728 9.469 7.758 9.573 7.766 C 10.673 7.851 11.487 8.235 12.061 8.94 C 12.718 9.748 12.93 10.831 12.986 11.652 C 12.972 11.897 12.965 12.112 12.961 12.299 C 11.967 12.57 10.592 13.138 9.901 14.286 C 7.003 19.102 8.403 23.252 8.47 23.443 C 8.53 24.046 8.635 24.65 8.802 25.252 C 9.543 27.936 10.894 28.5 11.896 28.5 C 13.475 28.5 14.883 27.092 15.233 26.714 C 15.953 26.219 20.688 22.749 20.273 17.321 C 19.92 12.672 17.462 11.444 16.211 11.444 C 15.656 11.444 15.079 11.61 14.483 11.925 C 14.48 11.838 14.477 11.748 14.471 11.653 C 14.608 9.517 15.297 5.407 18.572 5.173 C 18.716 5.163 18.846 5.111 18.955 5.031 C 19.073 5.43 19.263 5.839 19.548 6.221 C 20.075 6.927 21.094 7.768 22.965 7.768 C 22.965 7.768 22.965 7.768 22.966 7.768 C 23.644 7.768 24.39 7.655 25.186 7.431 C 30.368 5.971 29.997 0.375 29.993 0.319 Z  M 8.459 7.625 C 7.777 8.615 6.422 8.965 4.628 8.607 C 1.994 8.08 1.145 6.035 0.871 4.753 C 1.43 5.207 2.271 5.671 3.37 5.671 C 3.94 5.671 4.529 5.543 5.119 5.29 C 5.901 4.954 6.59 4.784 7.167 4.784 C 8.316 4.784 8.7 5.463 8.812 5.755 C 8.941 6.092 8.959 6.898 8.459 7.625 Z  M 16.212 12.926 C 17.758 12.926 18.654 15.562 18.796 17.434 C 19.125 21.732 15.433 24.729 14.535 25.391 C 14.667 25.167 14.757 25.009 14.768 24.988 C 14.868 24.81 14.805 24.584 14.627 24.484 C 14.448 24.382 14.223 24.446 14.123 24.625 C 13.864 25.084 13.105 26.364 12.702 26.767 C 12.686 26.783 12.679 26.803 12.667 26.82 C 12.409 26.939 12.146 27.019 11.897 27.019 C 11.187 27.019 10.626 26.292 10.23 24.858 C 9.272 21.388 10.337 17.965 13.395 14.686 C 14.468 13.534 15.443 12.926 16.212 12.926 Z  M 24.986 6.718 C 24.255 6.923 23.576 7.027 22.966 7.027 C 22.966 7.027 22.966 7.027 22.965 7.027 C 21.402 7.027 20.568 6.348 20.143 5.778 C 19.589 5.036 19.45 4.094 19.602 3.585 C 19.725 3.169 20.192 2.201 21.857 2.201 C 22.497 2.201 23.249 2.347 24.092 2.634 C 24.688 2.836 25.276 2.939 25.841 2.939 C 27.442 2.939 28.56 2.14 29.222 1.462 C 29.057 3.017 28.29 5.787 24.986 6.718 Z "/>
	<path d=" M 16.717 20.548 C 16.615 20.726 16.677 20.952 16.855 21.054 C 16.912 21.087 16.976 21.103 17.038 21.103 C 17.167 21.103 17.292 21.035 17.36 20.916 C 18.917 18.19 17.139 14.196 17.062 14.027 C 16.978 13.84 16.758 13.758 16.573 13.843 C 16.386 13.927 16.304 14.147 16.388 14.333 C 16.406 14.371 18.088 18.148 16.717 20.548 Z "/>
	<path d=" M 24.266 3.747 C 22.247 2.535 20.264 3.697 20.181 3.747 C 20.006 3.852 19.95 4.078 20.054 4.254 C 20.159 4.429 20.386 4.486 20.562 4.382 C 20.63 4.342 22.253 3.401 23.885 4.382 C 23.945 4.418 24.01 4.435 24.075 4.435 C 24.201 4.435 24.324 4.371 24.394 4.255 C 24.499 4.079 24.442 3.852 24.266 3.747 Z "/>
	<path d=" M 7.969 6.092 C 6.316 5.101 4.693 6.051 4.624 6.092 C 4.449 6.198 4.392 6.425 4.498 6.601 C 4.603 6.776 4.83 6.833 5.005 6.727 C 5.019 6.72 6.311 5.962 7.588 6.727 C 7.647 6.763 7.713 6.78 7.778 6.78 C 7.903 6.78 8.026 6.716 8.096 6.601 C 8.201 6.425 8.144 6.198 7.969 6.092 Z "/>
</svg>
