<?xml version="1.0" encoding="utf-8"?>
<svg version="1.2" baseProfile="tiny" id="Ebene_2"
    xmlns="http://www.w3.org/2000/svg"
    xmlns:xlink="http://www.w3.org/1999/xlink" x="0px" y="0px" width="23px" height="23px" viewBox="0 0 23 23" xml:space="preserve">
    <g id="logo_googleg_48dp" transform="translate(15.000000, 15.000000)">
        <path id="Shape" fill="#587DBA" d="M7.541-3.239c0-0.815-0.074-1.6-0.209-2.352H-3.5v4.447h6.189
		C2.422,0.294,1.612,1.514,0.394,2.329v2.885h3.718C6.285,3.212,7.541,0.264,7.541-3.239L7.541-3.239z"/>
        <path id="Shape_5_" fill="#37A854" d="M-3.5,8c3.105,0,5.707-1.03,7.611-2.786L0.394,2.329
		C-0.635,3.02-1.953,3.426-3.5,3.426c-2.996,0-5.53-2.021-6.435-4.741h-3.842v2.98C-11.885,5.423-7.996,8-3.5,8L-3.5,8z"/>
        <path id="Shape_2_" fill="#FABC0F" d="M-9.935-1.315c-0.23-0.689-0.361-1.426-0.361-2.185
		c0-0.758,0.131-1.495,0.361-2.185v-2.98h-3.842C-14.556-7.112-15-5.355-15-3.5s0.444,3.611,1.223,5.165L-9.935-1.315L-9.935-1.315z
		"/>
        <path id="Shape_3_" fill="#E64638" d="M-3.5-10.426c1.688,0,3.205,0.58,4.396,1.72l3.298-3.298
		C2.203-13.86-0.4-15-3.5-15c-4.496,0-8.385,2.577-10.277,6.335l3.842,2.98C-9.03-8.404-6.496-10.426-3.5-10.426L-3.5-10.426z"/>
        
    </g>
</svg>
